<svg xmlns="http://www.w3.org/2000/svg" xmlns:xlink="http://www.w3.org/1999/xlink" width="421.58" height="98.275" viewBox="0 0 421.58 98.275">
  <defs>
    <linearGradient id="linear-gradient" x1="-0.181" y1="-49.206" x2="-0.181" y2="-50.206" gradientUnits="objectBoundingBox">
      <stop offset="0" stop-color="#4ac49e" stop-opacity="0.851"/>
      <stop offset="1" stop-color="#4ac49e" stop-opacity="0"/>
    </linearGradient>
  </defs>
  <g id="card-wave-nd" transform="translate(-104 -9722.158)" opacity="0.15">
    <path id="Path_137" data-name="Path 137" d="M104,9819.754c3.895,0,21.419-39.577,57.116-13.792,1.947,0,17.848,10.794,33.75-11.993,4.975-6,18.951-14.392,35.047,0,5.408-1.4,17.264-10.554,21.418-35.979,8.438-15.191,29.466-29.263,46.082,35.979,4.111,10.4,18.952,20.39,45.431-22.786,5.193-5,18.433-7.315,29.856,11.395,22.5-24.387,68.539-65.124,72.692-32.982s32.451,18.989,46.081,8.4c8.655-13.192,27.52-38.616,33.75-34.779" fill="none" stroke="#4ac49e" stroke-width="1.36"/>
    <path id="Path_138" data-name="Path 138" d="M161.116,9805.962c-35.7-25.785-53.221,13.792-57.116,13.792H525.223v-96.543c-6.23-3.837-25.1,21.587-33.75,34.779-13.63,10.594-41.927,23.747-46.081-8.4s-50.191,8.6-72.692,32.982c-11.423-18.71-24.663-16.392-29.856-11.395-26.479,43.176-41.32,33.182-45.431,22.786-16.615-65.241-37.644-51.17-46.082-35.979-4.154,25.425-16.009,34.58-21.418,35.979-16.1-14.392-30.072-6-35.047,0C178.964,9816.756,163.063,9805.962,161.116,9805.962Z" fill="url(#linear-gradient)"/>
  </g>
</svg>
