<svg xmlns="http://www.w3.org/2000/svg" xmlns:xlink="http://www.w3.org/1999/xlink" width="421.518" height="77.135" viewBox="0 0 421.518 77.135">
  <defs>
    <linearGradient id="linear-gradient" x1="-0.181" y1="-63.495" x2="-0.181" y2="-64.495" gradientUnits="objectBoundingBox">
      <stop offset="0" stop-color="#fd818d" stop-opacity="0.541"/>
      <stop offset="1" stop-color="#fd818d" stop-opacity="0"/>
    </linearGradient>
  </defs>
  <g id="card-wave-tu" transform="translate(-978.038 -9743.299)" opacity="0.15">
    <path id="Path_131" data-name="Path 131" d="M978.038,9819.754c3.893,0,21.418-30.94,57.114-10.783,1.947,0,17.848,8.439,33.75-9.376,4.976-4.687,18.952-11.251,35.048,0,5.409-1.094,17.264-8.252,21.419-28.129,8.437-11.877,29.465-22.879,46.08,28.129,4.111,8.126,18.952,15.939,45.433-17.814,5.191-3.908,18.432-5.721,29.854,8.906,22.5-19.065,68.544-50.912,72.69-25.784s32.455,14.847,46.085,6.563c8.654-10.314,27.518-30.192,33.75-27.191" fill="none" stroke="#ff5668" stroke-width="1.36"/>
    <path id="Path_132" data-name="Path 132" d="M1035.152,9808.971c-35.7-20.157-53.221,10.783-57.114,10.783h421.223v-75.479c-6.232-3-25.1,16.877-33.75,27.191-13.63,8.283-41.926,18.564-46.085-6.563s-50.191,6.719-72.69,25.784c-11.422-14.627-24.663-12.814-29.854-8.906-26.481,33.754-41.322,25.94-45.433,17.814-16.615-51.008-37.643-40.006-46.08-28.129-4.155,19.877-16.01,27.035-21.419,28.129-16.1-11.251-30.072-4.687-35.048,0C1053,9817.41,1037.1,9808.971,1035.152,9808.971Z" fill="url(#linear-gradient)"/>
  </g>
</svg>
