<svg xmlns="http://www.w3.org/2000/svg" width="31.496" height="31.496" viewBox="0 0 31.496 31.496">
  <g id="card-icon-td" transform="translate(-773.367 -256.026)">
    <path id="Path_754" data-name="Path 754" d="M789.115,287.522a15.748,15.748,0,1,0-15.748-15.748A15.747,15.747,0,0,0,789.115,287.522Z" fill="#f3ba2f"/>
    <g id="Group_490" data-name="Group 490">
      <path id="Path_771" data-name="Path 771" d="M782.258,279.454a3.373,3.373,0,0,1-.481-.028c-.538-.082-.713-.266-.776-.819a3.446,3.446,0,0,1-.017-.38V266.97l3.12,0a2.849,2.849,0,0,0,.575-.044,1.88,1.88,0,0,0,1.533-1.885c.007-.714.006-1.429.005-2.143v-1.119l4.072,0c1.3,0,2.6,0,3.9.013.508,0,.618.5.639.65a3.491,3.491,0,0,1,.027.522v15.2c0,.156,0,.313-.013.467a.753.753,0,0,1-.722.79,3.216,3.216,0,0,1-.547.038l-6.231,0Zm3.538-3.223h2.023c.064,0,.131-.005.2-.011.649-.052,1.022-.409,1.006-.916a.893.893,0,0,0-.98-.846q-.89-.009-1.781-.009-1.017,0-2.036.01a.857.857,0,0,0-.929.846.823.823,0,0,0,.215.616.97.97,0,0,0,.716.289c.257.008.515.01.771.01l.8,0Zm4.841-2.787q.721,0,1.443-.006a.853.853,0,0,0,.929-.847.882.882,0,0,0-.874-.9l-.11,0s-6.139,0-7.653,0a1,1,0,0,0-.656.165,1.077,1.077,0,0,0-.416.728.953.953,0,0,0,.457.72,1.073,1.073,0,0,0,.6.132c.725,0,4.921,0,4.921,0Zm-4.367-4.677c-.642,0-1.284.005-1.926.022a1.392,1.392,0,0,0-.888.489.488.488,0,0,0-.114.373.95.95,0,0,0,.268.617,1.325,1.325,0,0,0,.812.266q1.563.006,3.125.006l4.413-.006a1.1,1.1,0,0,0,.825-.292.825.825,0,0,0,.229-.614c-.005-.254-.12-.842-1.048-.844h-3.387l-.344-.011Z" fill="#fff"/>
      <path id="Path_772" data-name="Path 772" d="M784.531,281.774a1.206,1.206,0,0,1-.946-.31,1,1,0,0,1-.2-.7h10.092c.143,0,.286,0,.43-.006a2.146,2.146,0,0,0,2.268-2.173c.011-.134.01-.268.01-.4V264.072a1.5,1.5,0,0,1,.161-.01c.569,0,.9.372.9,1.018q0,7.847,0,15.693c0,.709-.277.985-.989.985l-6.481-.007q-2.607,0-5.214.022Z" fill="#fff"/>
      <path id="Path_773" data-name="Path 773" d="M781.945,265.668c-.181,0-.363-.005-.543-.019a.791.791,0,0,1-.365-.1c-.039-.059.13-.238.183-.291l2.87-2.9c.054-.054.106-.111.159-.168a1.843,1.843,0,0,1,.331-.31.5.5,0,0,1,.235-.076.279.279,0,0,1,.076.124c.021.927.038,2.038,0,3.171-.015.443-.394.545-.71.554-.185,0-.371.006-.556.006l-.823,0Z" fill="#fff"/>
    </g>
  </g>
</svg>
