<svg xmlns="http://www.w3.org/2000/svg" width="31.495" height="31.496" viewBox="0 0 31.495 31.496">
  <g id="card-icon-du" transform="translate(-119.831 -256.027)">
    <path id="Path_744" data-name="Path 744" d="M150.855,275.584A15.744,15.744,0,1,1,139.387,256.5,15.746,15.746,0,0,1,150.855,275.584Z" fill="#f7931a"/>
    <g id="du">
      <path id="Path_763" data-name="Path 763" d="M129.962,281.371a1.62,1.62,0,0,1-1.725-1.728s.006-12.857,0-15.812a1.651,1.651,0,0,1,.461-1.2,1.613,1.613,0,0,1,1.157-.454c1.092.021,2.145.027,3.2.027l4.455-.011v.463c0,.706,0,1.39.007,2.073a5.1,5.1,0,0,0,.133,1.226,2.524,2.524,0,0,0,2.576,1.867c.346,0,.691.006,1.037.006l1.649,0c0,.021.006,11.771.006,11.771a1.624,1.624,0,0,1-1.755,1.777l-5.91,0Zm1.411-3.651a.8.8,0,0,0-.447.108c-.151.1-.5.36-.477.714a1,1,0,0,0,.474.7.812.812,0,0,0,.462.116l8.194,0a1.4,1.4,0,0,0,.682-.118.935.935,0,0,0,.467-.691.829.829,0,0,0-.485-.708,1.524,1.524,0,0,0-.665-.113Zm3.416-6.063c0,1.279,0,2.559-.006,3.838-.005.754.434,1.032.845,1.042h0a.717.717,0,0,0,.532-.2,1.061,1.061,0,0,0,.229-.794l0-4.879,1.607,1.75a.948.948,0,0,0,.7.362.788.788,0,0,0,.573-.264c.2-.2.454-.633-.086-1.215l-2.909-3.121a.864.864,0,0,0-1.376,0l-.653.7q-1.13,1.211-2.252,2.428c-.517.562-.337.972-.094,1.217a.783.783,0,0,0,.563.256,1.006,1.006,0,0,0,.7-.363c.22-.229.436-.461.651-.694l.982-1.044Z" fill="#fff"/>
      <path id="Path_764" data-name="Path 764" d="M140.862,266.137c-.4,0-.8-.011-1.19-.049-.322-.031-.486-.406-.5-.741-.029-.64-.024-1.281-.018-1.957l2.606,2.735h-.025C141.438,266.131,141.148,266.137,140.862,266.137Z" fill="#fff"/>
    </g>
  </g>
</svg>
