<svg xmlns="http://www.w3.org/2000/svg" xmlns:xlink="http://www.w3.org/1999/xlink" width="313.941" height="57.781" viewBox="0 0 313.941 57.781">
  <defs>
    <linearGradient id="linear-gradient" x1="-0.415" y1="248.588" x2="-0.415" y2="247.587" gradientUnits="objectBoundingBox">
      <stop offset="0" stop-color="#fd818d" stop-opacity="0.541"/>
      <stop offset="1" stop-color="#fd818d" stop-opacity="0"/>
    </linearGradient>
  </defs>
  <g id="card-line-td" transform="translate(-758.932 -323.426)" opacity="0.15">
    <path id="Path_755" data-name="Path 755" d="M758.932,380.527c2.9,0,15.948-23.039,42.528-8.029,1.45,0,13.29,6.284,25.131-6.982,3.7-3.49,14.111-8.377,26.1,0,4.028-.814,12.855-6.144,15.949-20.945,6.282-8.843,21.94-17.035,34.312,20.945,3.061,6.051,14.112,11.869,33.829-13.265,3.866-2.909,13.725-4.259,22.23,6.633,16.752-14.2,51.038-37.91,54.126-19.2s24.166,11.055,34.314,4.887c6.445-7.68,20.491-22.481,25.131-20.247" fill="none" stroke="#ff5668" stroke-width="1.36"/>
    <path id="Path_756" data-name="Path 756" d="M801.46,372.5c-26.58-15.01-39.629,8.029-42.528,8.029h313.646v-56.2c-4.64-2.234-18.686,12.567-25.131,20.247-10.148,6.168-31.218,13.824-34.314-4.887s-37.374,5-54.126,19.2c-8.505-10.892-18.364-9.542-22.23-6.633-19.717,25.134-30.768,19.316-33.829,13.265-12.372-37.98-28.03-29.788-34.312-20.945-3.094,14.8-11.921,20.131-15.949,20.945-11.985-8.377-22.392-3.49-26.1,0C814.75,378.782,802.91,372.5,801.46,372.5Z" fill="url(#linear-gradient)"/>
  </g>
</svg>
