<svg xmlns="http://www.w3.org/2000/svg" xmlns:xlink="http://www.w3.org/1999/xlink" width="314.005" height="73.524" viewBox="0 0 314.005 73.524">
  <defs>
    <linearGradient id="linear-gradient" x1="-0.415" y1="195.009" x2="-0.415" y2="194.009" gradientUnits="objectBoundingBox">
      <stop offset="0" stop-color="#4ac49e" stop-opacity="0.851"/>
      <stop offset="1" stop-color="#4ac49e" stop-opacity="0"/>
    </linearGradient>
  </defs>
  <g id="card-line-tu" transform="translate(-1085.698 -299.808)" opacity="0.15">
    <path id="Path_757" data-name="Path 757" d="M1085.7,372.652c2.9,0,15.947-29.469,42.534-10.269,1.448,0,13.285,8.037,25.131-8.93,3.7-4.465,14.1-10.717,26.1,0,4.023-1.042,12.85-7.859,15.946-26.791,6.281-11.311,21.938-21.789,34.315,26.791,3.058,7.739,14.1,15.181,33.823-16.967,3.869-3.721,13.728-5.448,22.237,8.484,16.747-18.159,51.033-48.492,54.12-24.559s24.166,14.14,34.315,6.251c6.444-9.822,20.491-28.754,25.131-25.9" fill="none" stroke="#4ac49e" stroke-width="1.36"/>
    <path id="Path_758" data-name="Path 758" d="M1128.232,362.383c-26.587-19.2-39.63,10.269-42.534,10.269h313.648V300.766c-4.64-2.858-18.687,16.074-25.131,25.9-10.149,7.889-31.218,17.683-34.315-6.251s-37.373,6.4-54.12,24.559c-8.509-13.932-18.368-12.2-22.237-8.484-19.718,32.148-30.765,24.706-33.823,16.967-12.377-48.58-28.034-38.1-34.315-26.791-3.1,18.932-11.923,25.749-15.946,26.791-11.992-10.717-22.391-4.465-26.1,0C1141.517,370.42,1129.68,362.383,1128.232,362.383Z" fill="url(#linear-gradient)"/>
  </g>
</svg>
