<svg xmlns="http://www.w3.org/2000/svg" xmlns:xlink="http://www.w3.org/1999/xlink" width="421.778" height="83.399" viewBox="0 0 421.778 83.399">
  <defs>
    <linearGradient id="linear-gradient" x1="-0.181" y1="-58.95" x2="-0.181" y2="-60.094" gradientUnits="objectBoundingBox">
      <stop offset="0" stop-color="#4ac49e" stop-opacity="0.851"/>
      <stop offset="1" stop-color="#4ac49e" stop-opacity="0"/>
    </linearGradient>
  </defs>
  <g id="card-wave-p" transform="translate(-541.473 -9737.034)" opacity="0.15">
    <path id="Path_134" data-name="Path 134" d="M541.473,9819.754c3.895,0,22.537-87.623,58.234-62.9,12.618,5.264,18.068,8.767,33.969-13.077,4.977-5.749,17.874-11.177,33.97,2.619,5.409-1.341,21.353,61.136,38.822,46.464,26.2-22.01,21.353-23.232,36.882-33.015,27.176-13.449,10.487,54.74,36.968,13.351,19.325-25.576,25.378,11.1,40.677-4.791,22.5-23.376,53.215-25.482,61.87-15.9,18.687,20.677,14.8,29.236,32.275,18.23,34.94-3.667,32.028,14.674,47.556-7.217" fill="none" stroke="#4ac49e" stroke-width="1.36"/>
    <path id="Path_135" data-name="Path 135" d="M598.589,9757.625c-35.7-24.718-53.221,62.129-57.116,62.129H962.7v-56.361c-8.735,24.454-36.88-2.444-61.144,12.227-16.5-23.23-27.176-34.117-46.588-26.781-38.833,14.676-33.969,26.275-40.763,24.354-12.617-3.566-19.411-15.794-33.883,0-23.381,34.336-10.763-9.681-31.145-15.794-35.91,18.34-46.586,51.354-56.292,33.013-8.736-6.3-20.087-45.624-25.494-44.283-16.1-13.795-30.073-5.748-35.049,0C616.437,9767.973,600.536,9757.625,598.589,9757.625Z" fill="url(#linear-gradient)"/>
  </g>
</svg>
