<svg xmlns="http://www.w3.org/2000/svg" width="31.495" height="31.495" viewBox="0 0 31.495 31.495">
  <g id="card-icon-cftc" transform="translate(-446.599 -256.027)">
    <path id="Path_747" data-name="Path 747" d="M473.44,282.985a15.439,15.439,0,0,1-11.188,4.534A15.39,15.39,0,0,1,446.6,271.864a15.614,15.614,0,0,1,9.633-14.719,15.14,15.14,0,0,1,6.016-1.115,15.443,15.443,0,0,1,11.188,4.522,15.127,15.127,0,0,1,4.652,11.312,14.929,14.929,0,0,1-4.652,11.121Z" fill="#c8c8c8"/>
    <path id="Path_748" data-name="Path 748" d="M462.347,260.976l-6.3,10.734,6.3-2.941Z" fill="#8b8b8b"/>
    <path id="Path_749" data-name="Path 749" d="M462.347,268.767l-6.3,2.942,6.3,3.822Z" fill="#393939"/>
    <path id="Path_750" data-name="Path 750" d="M462.347,260.976v7.793l6.292,2.941Z" fill="#343434"/>
    <path id="Path_751" data-name="Path 751" d="M462.347,268.767v6.764l6.292-3.822Z" fill="#161616"/>
    <path id="Path_752" data-name="Path 752" d="M456.048,272.936l6.3,9.117V276.76Z" fill="#8b8b8b"/>
    <path id="Path_753" data-name="Path 753" d="M468.646,272.936l-6.3,3.824v5.293Z" fill="#343434"/>
  </g>
</svg>
