<svg xmlns="http://www.w3.org/2000/svg" width="31.496" height="31.496" viewBox="0 0 31.496 31.496">
  <g id="card-icon-tu" transform="translate(-1100.136 -256.026)">
    <circle id="Ellipse_5" data-name="Ellipse 5" cx="15.748" cy="15.748" r="15.748" transform="translate(1100.136 256.026)" fill="#fff"/>
    <g id="Group_489" data-name="Group 489">
      <path id="Path_765" data-name="Path 765" d="M1111.891,280.2c-.423,0-.458-.035-.458-.464V279.2c0-1.8,0-3.6.014-5.4a2.5,2.5,0,0,1,2.376-2.493q1.022-.047,2.046-.046c.7,0,1.394.016,2.088.048a2.437,2.437,0,0,1,2.368,2.428c.039,1.582.033,3.2.028,4.754l0,1.41c0,.212-.015.307-.379.307l-1.627,0Z" fill="#4d4d4d"/>
      <path id="Path_766" data-name="Path 766" d="M1115.891,269.834a3.271,3.271,0,1,1,2.3-.962,3.205,3.205,0,0,1-2.294.962Z" fill="#4d4d4d"/>
      <path id="Path_767" data-name="Path 767" d="M1107.432,280.2a1.406,1.406,0,0,1-1.515-1.44c-.045-1.269-.044-2.4.005-3.46a2.561,2.561,0,0,1,2.482-2.471c.191-.012.382-.015.571-.015l.618.006V280.2l-1.439,0C1107.914,280.2,1107.673,280.2,1107.432,280.2Z" fill="#4d4d4d"/>
      <path id="Path_768" data-name="Path 768" d="M1123.6,280.18c-.276,0-.554,0-.838-.009-.186,0-.375-.006-.566-.007v-7.343c.216-.01.433-.019.648-.019a2.917,2.917,0,0,1,2.334.85,2.363,2.363,0,0,1,.693,1.626q.029,1.741.01,3.482a1.288,1.288,0,0,1-1.236,1.388C1124.3,280.173,1123.948,280.18,1123.6,280.18Z" fill="#4d4d4d"/>
      <path id="Path_769" data-name="Path 769" d="M1109.555,271.361a2.33,2.33,0,0,1-2.3-2.368,2.324,2.324,0,0,1,4.019-1.576,2.278,2.278,0,0,1,.662,1.634,2.365,2.365,0,0,1-2.35,2.311Z" fill="#4d4d4d"/>
      <path id="Path_770" data-name="Path 770" d="M1122.167,271.357a2.348,2.348,0,0,1-2.314-2.374,2.339,2.339,0,0,1,4.678.068,2.316,2.316,0,0,1-2.315,2.307Z" fill="#4d4d4d"/>
    </g>
  </g>
</svg>
