<svg xmlns="http://www.w3.org/2000/svg" xmlns:xlink="http://www.w3.org/1999/xlink" width="314.199" height="62.448" viewBox="0 0 314.199 62.448">
  <defs>
    <linearGradient id="linear-gradient" x1="-0.415" y1="232.313" x2="-0.415" y2="231.169" gradientUnits="objectBoundingBox">
      <stop offset="0" stop-color="#4ac49e" stop-opacity="0.851"/>
      <stop offset="1" stop-color="#4ac49e" stop-opacity="0"/>
    </linearGradient>
  </defs>
  <g id="card-line-nftc" transform="translate(-432.164 -314.23)" opacity="0.15">
    <path id="Path_745" data-name="Path 745" d="M432.164,376c2.9,0,16.781-65.245,43.361-46.839,9.4,3.919,13.454,6.527,25.293-9.738,3.706-4.28,13.31-8.321,25.294,1.951,4.028-1,15.9,45.522,28.908,34.6,19.512-16.388,15.9-17.3,27.462-24.582,20.235-10.015,7.809,40.759,27.527,9.94,14.389-19.044,18.9,8.269,30.288-3.567,16.753-17.407,39.624-18.974,46.069-11.842,13.914,15.4,11.023,21.769,24.032,13.575,26.016-2.731,23.848,10.926,35.41-5.374" fill="none" stroke="#4ac49e" stroke-width="1.36"/>
    <path id="Path_746" data-name="Path 746" d="M474.692,329.736C448.111,311.331,435.064,376,432.164,376H745.808V334.031c-6.5,18.209-27.461-1.821-45.528,9.1-12.286-17.3-20.235-25.4-34.689-19.942-28.916,10.929-25.294,19.565-30.353,18.134-9.395-2.656-14.454-11.761-25.229,0-17.41,25.567-8.014-7.208-23.191-11.761C560.079,343.223,552.13,367.8,544.9,354.148c-6.505-4.688-14.957-33.971-18.984-32.973-11.985-10.272-22.392-4.28-26.1,0C487.982,337.441,476.142,329.736,474.692,329.736Z" fill="url(#linear-gradient)"/>
  </g>
</svg>
