<svg xmlns="http://www.w3.org/2000/svg" xmlns:xlink="http://www.w3.org/1999/xlink" width="314.003" height="73.524" viewBox="0 0 314.003 73.524">
  <defs>
    <linearGradient id="linear-gradient" x1="-0.415" y1="195.009" x2="-0.415" y2="194.009" gradientUnits="objectBoundingBox">
      <stop offset="0" stop-color="#4ac49e" stop-opacity="0.851"/>
      <stop offset="1" stop-color="#4ac49e" stop-opacity="0"/>
    </linearGradient>
  </defs>
  <g id="card-line-du" transform="translate(-105.395 -299.808)" opacity="0.15">
    <path id="Path_742" data-name="Path 742" d="M105.395,372.652c2.9,0,15.949-29.469,42.528-10.269,1.45,0,13.29,8.037,25.131-8.93,3.705-4.465,14.111-10.717,26.1,0,4.026-1.042,12.854-7.859,15.947-26.791,6.283-11.311,21.941-21.789,34.313,26.791,3.061,7.739,14.112,15.181,33.829-16.967,3.866-3.721,13.725-5.448,22.231,8.484,16.753-18.159,51.034-48.492,54.127-24.559s24.163,14.14,34.312,6.251c6.444-9.822,20.491-28.754,25.131-25.9" fill="none" stroke="#4ac49e" stroke-width="1.36"/>
    <path id="Path_743" data-name="Path 743" d="M147.923,362.383c-26.579-19.2-39.628,10.269-42.528,10.269H419.041V300.766c-4.64-2.858-18.687,16.074-25.131,25.9-10.149,7.889-31.219,17.683-34.312-6.251s-37.373,6.4-54.127,24.559c-8.506-13.932-18.365-12.2-22.231-8.484-19.717,32.148-30.768,24.706-33.829,16.967-12.371-48.58-28.03-38.1-34.313-26.791-3.093,18.932-11.92,25.749-15.947,26.791-11.986-10.717-22.392-4.465-26.1,0C161.213,370.42,149.373,362.383,147.923,362.383Z" fill="url(#linear-gradient)"/>
  </g>
</svg>
