<svg id="copy-icon" xmlns="http://www.w3.org/2000/svg" width="17.26" height="20.005" viewBox="0 0 17.26 20.005">
  <path id="Path_1005" data-name="Path 1005" d="M514.609-457.068q0,3.081,0,6.161a1.85,1.85,0,0,1-2,2.017q-4.8,0-9.6,0a1.852,1.852,0,0,1-2.018-2.037q0-6.144,0-12.289a1.825,1.825,0,0,1,2.021-2.02q4.783,0,9.566,0a1.829,1.829,0,0,1,2.035,2.04Q514.61-460.132,514.609-457.068Zm-11.8-.011q0,2.639,0,5.278c0,.764.33,1.086,1.1,1.087h7.763c.772,0,1.1-.324,1.1-1.087q0-5.261,0-10.521c0-.785-.329-1.11-1.12-1.11q-3.865,0-7.729,0c-.79,0-1.119.327-1.12,1.111Q502.812-459.7,502.813-457.079Z" transform="translate(-497.35 468.892)"/>
  <path id="Path_1006" data-name="Path 1006" d="M447.595-511.26c0-1.861.035-3.723-.012-5.582a1.926,1.926,0,0,1,2.064-2.074c3.165.023,6.331.008,9.5.009a2.08,2.08,0,0,1,.372.023.874.874,0,0,1,.771.957.883.883,0,0,1-.9.842c-.385.012-.772,0-1.157,0-2.508,0-5.016.026-7.523-.012-1.1-.017-1.327.509-1.322,1.311.019,3.449.009,6.9.008,10.348,0,.615-.241.943-.752,1.045a.882.882,0,0,1-1.029-.71,2.873,2.873,0,0,1-.019-.441Q447.594-508.4,447.595-511.26Z" transform="translate(-447.582 518.916)"/>
</svg>
