<svg xmlns="http://www.w3.org/2000/svg" width="26.257" height="26.257" viewBox="0 0 26.257 26.257">
  <g id="google-icon" transform="translate(-484.553 -2084.169)">
    <path id="Path_682" data-name="Path 682" d="M501.686,2104.213a8.226,8.226,0,0,0,3.239-3.6c.211-.459.213-.459-.279-.459H499.36c-.83,0-1.109-.28-1.11-1.1,0-1.026,0-2.052,0-3.078a.855.855,0,0,1,.961-.961q5.225-.006,10.449,0a.857.857,0,0,1,.993.813,10.6,10.6,0,0,1-.123,4.194,12.807,12.807,0,0,1-6.073,8.515,1.846,1.846,0,0,1-.22.1Z" fill="#177ee5"/>
    <path id="Path_683" data-name="Path 683" d="M486.351,2103.853a11.383,11.383,0,0,1-1.582-4.218,12.91,12.91,0,0,1,1.342-8.526c.069-.13.158-.25.238-.375l4.411,2.544a8.22,8.22,0,0,0-1.048,4.627,8.5,8.5,0,0,0,1.047,3.4Z" fill="#fed401"/>
    <path id="Path_684" data-name="Path 684" d="M490.76,2093.278l-4.411-2.544a11.89,11.89,0,0,1,3.289-3.811,12.746,12.746,0,0,1,8.036-2.753v5.115a8.054,8.054,0,0,0-5.149,1.907A9.073,9.073,0,0,0,490.76,2093.278Z" fill="#fe4c27"/>
    <path id="Path_685" data-name="Path 685" d="M486.351,2103.853l4.408-2.546a8.253,8.253,0,0,0,3.813,3.351,8.5,8.5,0,0,0,3.1.646v5.112a12.858,12.858,0,0,1-9.683-4.28A9.593,9.593,0,0,1,486.351,2103.853Z" fill="#13b347"/>
    <path id="Path_686" data-name="Path 686" d="M497.675,2089.285v-5.115a12.676,12.676,0,0,1,7.4,2.287,12.225,12.225,0,0,1,1.163.9.834.834,0,0,1,.066,1.3q-1.179,1.222-2.4,2.405a.855.855,0,0,1-1.251,0,7.961,7.961,0,0,0-3.4-1.6A13.148,13.148,0,0,0,497.675,2089.285Z" fill="#d84022"/>
    <path id="Path_687" data-name="Path 687" d="M497.674,2110.416V2105.3a8.835,8.835,0,0,0,4.011-1.091q1.276,2.211,2.552,4.421a10.913,10.913,0,0,1-3.544,1.45A10.622,10.622,0,0,1,497.674,2110.416Z" fill="#10993f"/>
  </g>
</svg>
