<svg xmlns="http://www.w3.org/2000/svg" width="14.76" height="16" viewBox="0 0 14.76 16">
  <g id="logout-icon" transform="translate(-1334.997 -2945)">
    <g id="Group_425" data-name="Group 425">
      <path id="Path_650" data-name="Path 650" d="M1335.827,2953.026q0,3.041,0,6.081c0,.732.33,1.061,1.063,1.061h6.6a.918.918,0,0,0,1.05-1.045c0-.6,0-1.2,0-1.8,0-.363.132-.524.407-.525s.423.171.42.52c-.008.752.025,1.511-.058,2.256a1.59,1.59,0,0,1-1.643,1.422q-3.455.014-6.908,0a1.729,1.729,0,0,1-1.761-1.767q-.009-6.218,0-12.436a1.733,1.733,0,0,1,1.776-1.784q3.391-.012,6.785,0a1.716,1.716,0,0,1,1.754,1.764c.005.652,0,1.3,0,1.956,0,.323-.126.469-.387.478s-.418-.151-.421-.478c-.006-.621,0-1.242,0-1.864a.917.917,0,0,0-1.036-1.031h-6.6a.914.914,0,0,0-1.04,1.052Q1335.826,2949.956,1335.827,2953.026Z" fill="#333"/>
      <path id="Path_651" data-name="Path 651" d="M1348.373,2953.612h-7.964a1.431,1.431,0,0,1-.334-.018.364.364,0,0,1-.295-.406.348.348,0,0,1,.329-.373,3.134,3.134,0,0,1,.335-.011h7.929l.1-.135a1.2,1.2,0,0,1-.294-.157c-.539-.526-1.07-1.06-1.6-1.595-.231-.232-.255-.46-.077-.64s.405-.172.64.061q1.2,1.194,2.4,2.4a.611.611,0,0,1,0,.941q-1.184,1.192-2.375,2.376c-.243.242-.486.265-.663.075s-.151-.4.088-.638q.906-.906,1.819-1.805Z" fill="#333"/>
    </g>
  </g>
</svg>
