<svg xmlns="http://www.w3.org/2000/svg" width="15.206" height="20" viewBox="0 0 15.206 20">
  <g id="nav-icon-2" transform="translate(-24.397 -13830)">
    <path id="Path_831" data-name="Path 831" d="M26.252,13850a1.709,1.709,0,0,1-1.855-1.864v-16.244a1.706,1.706,0,0,1,1.9-1.886H29.91q2.12,0,4.239,0a.908.908,0,0,1,.711.289q2.22,2.238,4.461,4.458a.9.9,0,0,1,.282.685c0,3,0,12.711,0,12.711a1.709,1.709,0,0,1-1.863,1.856H26.252Zm-.013-19c-.631,0-.843.217-.843.861v16.281c0,.652.212.861.874.861H37.727c.661,0,.873-.209.873-.863v-12.361l-.137-.031-2.69-.014a1.744,1.744,0,0,1-1.907-1.921v-2.713l-.425-.1Zm8.627,1.618c0,.5,0,.993.006,1.481a.586.586,0,0,0,.56.615c.308.013.617.018.926.018l1.234-.008-1.168-1.414-1.556-1.562Z" fill="#fff"/>
    <path id="Path_832" data-name="Path 832" d="M28.56,13839.337a.679.679,0,0,1-.489-.166.433.433,0,0,1-.122-.313c0-.292.247-.489.612-.489l6.874,0a.536.536,0,0,1,.559.294.386.386,0,0,1-.066.488.813.813,0,0,1-.464.181q-.917.013-1.835.012h0Z" fill="#fff"/>
    <path id="Path_833" data-name="Path 833" d="M28.59,13841.728c-.377,0-.641-.206-.641-.5a.436.436,0,0,1,.125-.316.724.724,0,0,1,.518-.174H35.4a.721.721,0,0,1,.517.175.44.44,0,0,1,.125.317c0,.3-.267.5-.644.5H28.59Z" fill="#fff"/>
    <path id="Path_834" data-name="Path 834" d="M28.545,13844.071c-.358,0-.586-.182-.6-.47a.443.443,0,0,1,.124-.327.647.647,0,0,1,.471-.174h6.907a.639.639,0,0,1,.471.176.436.436,0,0,1,.124.325c-.009.288-.238.469-.6.47Z" fill="#fff"/>
    <path id="Path_835" data-name="Path 835" d="M28.559,13846.461a.548.548,0,0,1-.61-.5.444.444,0,0,1,.127-.32.68.68,0,0,1,.483-.172h4.508c.385,0,.6.175.6.491s-.223.5-.6.5l-2.255,0Z" fill="#fff"/>
  </g>
</svg>
