<svg xmlns="http://www.w3.org/2000/svg" width="19.989" height="20" viewBox="0 0 19.989 20">
  <g id="nav-icon-active-5" transform="translate(-2090.006 -9921)">
    <path id="Path_97" data-name="Path 97" d="M2099.536,9921a5.111,5.111,0,1,1-5.122,5.086A5.121,5.121,0,0,1,2099.536,9921Z" fill="#fff"/>
    <path id="Path_98" data-name="Path 98" d="M2100.844,9940.085h-9.08a1.575,1.575,0,0,1-1.758-1.768,9.18,9.18,0,0,1,.121-1.975,4.086,4.086,0,0,1,1.911-2.394,11.307,11.307,0,0,1,4.164-1.6,17.769,17.769,0,0,1,4.232-.292c.136.006.272.021.457.034a1.735,1.735,0,0,0,.275,2.395,1.628,1.628,0,0,0-1.482.623,2.17,2.17,0,0,0-.364,1.021c-.049.9.543,1.43,1.8,1.676A1.73,1.73,0,0,0,2100.844,9940.085Z" fill="#fff"/>
    <path id="Path_99" data-name="Path 99" d="M2104.413,9932.87c0-.309-.009-.586,0-.865a.721.721,0,0,1,.727-.77.708.708,0,0,1,.667.783c.007.268.008.534.012.8,0,.011.007.021,0,.016.328.145.642.292.965.415a.315.315,0,0,0,.261-.058c.186-.158.346-.346.526-.511a.683.683,0,0,1,1-.01.633.633,0,0,1-.024.986.968.968,0,0,0-.293,1.45c.13.234.218.325.472.313a3.007,3.007,0,0,1,.761.045.633.633,0,0,1,.5.729.648.648,0,0,1-.609.609l-.035,0c-.321.017-.714-.075-.944.077s-.241.556-.384.831a.274.274,0,0,0,.071.39,6.479,6.479,0,0,1,.491.5.695.695,0,0,1-.977.987c-.183-.161-.336-.357-.529-.5a.611.611,0,0,0-.351-.052c-.063,0-.123.072-.189.082-.666.1-.809.512-.737,1.126a.633.633,0,0,1-.563.749.648.648,0,0,1-.8-.689,1,1,0,0,0-.872-1.265c-.192-.048-.309-.09-.448.075a4.765,4.765,0,0,1-.468.469.673.673,0,0,1-.972,0,.681.681,0,0,1-.025-.971c.206-.235.55-.429.609-.69.054-.239-.2-.545-.308-.822-.035-.086-.057-.176-.091-.286-.292,0-.582.006-.872,0a.707.707,0,0,1-.758-.693.723.723,0,0,1,.729-.7c.15-.011.3,0,.453,0h.428l.488-1.172c-.187-.164-.417-.343-.62-.549a.693.693,0,0,1-.044-1.024.657.657,0,0,1,1.015.04c.405.509.814.671,1.376.274A1.388,1.388,0,0,1,2104.413,9932.87Zm-1.205,3.249a1.915,1.915,0,1,0,1.935-1.9A1.914,1.914,0,0,0,2103.208,9936.119Z" fill="#fff"/>
  </g>
</svg>
