<svg xmlns="http://www.w3.org/2000/svg" width="23.515" height="20" viewBox="0 0 23.515 20">
  <g id="nav-icon-4" transform="translate(-20.242 -13954)">
    <path id="Path_836" data-name="Path 836" d="M31.929,13955.833a22.744,22.744,0,0,1,2.016-1.21,6.88,6.88,0,0,1,8.3,2.1,7.472,7.472,0,0,1,1.495,3.879,6.353,6.353,0,0,1-1.2,4.067,20.132,20.132,0,0,1-3.269,3.8,51.905,51.905,0,0,1-6.831,5.366.621.621,0,0,1-.773.052,46.138,46.138,0,0,1-8.487-7.027,14.77,14.77,0,0,1-2.182-3.028,6.142,6.142,0,0,1,.156-6.134,6.719,6.719,0,0,1,5.322-3.644,6.625,6.625,0,0,1,5.135,1.5C31.726,13955.659,31.846,13955.764,31.929,13955.833Zm10.9,5.021a7.472,7.472,0,0,0-.129-1,6,6,0,0,0-4.22-4.657,5.736,5.736,0,0,0-5.973,1.515c-.415.4-.594.4-1.012-.006a5.926,5.926,0,0,0-9.165.827,5.293,5.293,0,0,0-.388,6.1,15.662,15.662,0,0,0,1.576,2.2,42.112,42.112,0,0,0,8.248,7.026.381.381,0,0,0,.513-.028,49.854,49.854,0,0,0,6.3-4.982,18.381,18.381,0,0,0,3.448-4.126A5.257,5.257,0,0,0,42.829,13960.854Z" fill="#fff"/>
    <path id="Path_837" data-name="Path 837" d="M41.27,13960.7c.027.547-.1.78-.417.794-.294.013-.42-.219-.482-.722a3.625,3.625,0,0,0-2.344-3.178c-.432-.171-.58-.448-.378-.737.171-.246.4-.224.653-.142A4.5,4.5,0,0,1,41.27,13960.7Z" fill="#fff"/>
    <path id="Path_838" data-name="Path 838" d="M36.719,13957a.449.449,0,0,1-.474.451.427.427,0,0,1-.422-.463.438.438,0,0,1,.473-.448A.426.426,0,0,1,36.719,13957Z" fill="#fff"/>
  </g>
</svg>
