<svg xmlns="http://www.w3.org/2000/svg" width="20.063" height="20" viewBox="0 0 20.063 20">
  <g id="nav-icon-9" transform="translate(-24.622 -14550)">
    <g id="Path_828" data-name="Path 828" fill="none">
      <path d="M35.765,14570c-6.961,0-11.622-5.089-11.1-11.276a10.3,10.3,0,0,1,7.562-8.71c.23-.051.673.042.726.181a1.243,1.243,0,0,1-.016.944,8.538,8.538,0,0,0-1.157,4.268,8.288,8.288,0,0,0,6.774,8.062,8.989,8.989,0,0,0,4.907-.467,1.294,1.294,0,0,1,1,.077c.415.249.155.661-.007.98A10.067,10.067,0,0,1,35.765,14570Z" stroke="none"/>
      <path d="M 35.74139022827148 14569 C 37.36101913452148 14568.9208984375 38.8421745300293 14568.4453125 40.14408874511719 14567.587890625 C 41.4000129699707 14566.7607421875 42.45491409301758 14565.59765625 43.28634643554688 14564.123046875 C 42.28234100341797 14564.4501953125 41.24914169311523 14564.6162109375 40.20758819580078 14564.6162109375 C 39.60755920410156 14564.6162109375 38.99149703979492 14564.560546875 38.37662887573242 14564.4521484375 C 34.05365753173828 14563.69140625 30.78609848022461 14559.8037109375 30.77599906921387 14555.4091796875 C 30.77218055725098 14553.943359375 31.10295295715332 14552.5517578125 31.78602027893066 14551.1708984375 C 28.61874961853027 14552.2109375 25.93451881408691 14555.49609375 25.65750885009766 14558.806640625 C 25.43489837646484 14561.4658203125 26.26200866699219 14563.962890625 27.98648834228516 14565.837890625 C 29.85759925842285 14567.8720703125 32.61113357543945 14568.9951171875 35.74139022827148 14569 M 35.76298904418945 14570 C 28.80269432067871 14570 24.14303016662598 14564.9111328125 24.6609992980957 14558.7236328125 C 24.99299812316895 14554.7548828125 28.33999824523926 14550.884765625 32.22299957275391 14550.013671875 C 32.4530029296875 14549.9599609375 32.89599990844727 14550.056640625 32.94899749755859 14550.1943359375 C 33.05599975585938 14550.470703125 33.07399749755859 14550.888671875 32.93299865722656 14551.138671875 C 32.1870002746582 14552.470703125 31.77199935913086 14553.873046875 31.77599906921387 14555.40625 C 31.78499794006348 14559.32421875 34.68899917602539 14562.7880859375 38.54999923706055 14563.4677734375 C 40.22999954223633 14563.7646484375 41.85800170898438 14563.6201171875 43.45699691772461 14563.0009765625 C 43.74700927734375 14562.888671875 44.19900131225586 14562.919921875 44.46099853515625 14563.078125 C 44.87599945068359 14563.3271484375 44.61599731445312 14563.7392578125 44.45399856567383 14564.05859375 C 42.49399948120117 14567.9404296875 39.28400039672852 14569.8359375 35.76499938964844 14570 C 35.76457214355469 14570 35.76341247558594 14570 35.76298904418945 14570 Z" stroke="none" fill="#fff"/>
    </g>
    <g id="Path_829" data-name="Path 829" fill="none">
      <path d="M41.125,14555.62c-.5.2-.969.352-1.412.558a5.3,5.3,0,0,0-.758.5c-.348.243-.708.488-1.1.109-.42-.407-.151-.785.1-1.152.135-.2.265-.394.4-.592a2.614,2.614,0,0,0,.01-3.146,4.446,4.446,0,0,1-.585-.926.918.918,0,0,1,.092-.792.9.9,0,0,1,.793-.087,7.123,7.123,0,0,1,1.037.656,2.577,2.577,0,0,0,2.98-.049,3.883,3.883,0,0,1,.869-.555,1.145,1.145,0,0,1,.9.057c.147.11.125.586.028.843a5.78,5.78,0,0,1-.62.982,2.532,2.532,0,0,0-.044,2.813,8.264,8.264,0,0,1,.686,1.094.983.983,0,0,1-.093.845c-.125.146-.561.145-.795.051-.373-.151-.674-.474-1.04-.65C42.118,14555.956,41.625,14555.808,41.125,14555.62Z" stroke="none"/>
      <path d="M 42.88285827636719 14555.216796875 C 42.25797653198242 14554.0654296875 42.25164794921875 14552.8759765625 42.86177444458008 14551.751953125 C 42.30718231201172 14552.046875 41.73558044433594 14552.1962890625 41.15763092041016 14552.1962890625 C 40.57822799682617 14552.1962890625 40.00145721435547 14552.0458984375 39.44033432006836 14551.7490234375 C 40.04550170898438 14552.888671875 40.03691101074219 14554.072265625 39.41556167602539 14555.21484375 C 39.71820068359375 14555.080078125 40.02505493164062 14554.9658203125 40.32297134399414 14554.8544921875 C 40.46648025512695 14554.80078125 40.61489105224609 14554.7451171875 40.76241302490234 14554.6884765625 L 41.11843109130859 14554.5498046875 L 41.47611999511719 14554.68359375 C 41.61752319335938 14554.7373046875 41.76452255249023 14554.7890625 41.90667343139648 14554.8388671875 C 42.22616577148438 14554.951171875 42.55530548095703 14555.0673828125 42.88285827636719 14555.216796875 M 38.28200912475586 14556.98046875 C 38.14342880249023 14556.98046875 38.0014762878418 14556.92578125 37.85500335693359 14556.7841796875 C 37.43500137329102 14556.376953125 37.70400238037109 14555.9990234375 37.95600128173828 14555.6318359375 C 38.09100341796875 14555.4365234375 38.22100067138672 14555.23828125 38.35300064086914 14555.0400390625 C 39.05300140380859 14553.994140625 39.06600189208984 14552.9462890625 38.36300277709961 14551.89453125 C 38.15900039672852 14551.58984375 37.89500045776367 14551.3046875 37.77800369262695 14550.96875 C 37.69600296020508 14550.732421875 37.71800231933594 14550.328125 37.87000274658203 14550.1767578125 C 38.02400207519531 14550.0263671875 38.43299865722656 14550 38.66300201416016 14550.08984375 C 39.03700256347656 14550.236328125 39.35000228881836 14550.53125 39.70000076293945 14550.74609375 C 40.70100784301758 14551.36328125 41.69700241088867 14551.345703125 42.68000030517578 14550.697265625 C 42.96900177001953 14550.5068359375 43.23200225830078 14550.2421875 43.54900360107422 14550.142578125 C 43.82899856567383 14550.0537109375 44.24800109863281 14550.0439453125 44.4530029296875 14550.19921875 C 44.60000228881836 14550.3095703125 44.5780029296875 14550.78515625 44.48100280761719 14551.0419921875 C 44.34800338745117 14551.3974609375 44.06900024414062 14551.6962890625 43.86100006103516 14552.0244140625 C 43.27200317382812 14552.9521484375 43.26800155639648 14553.896484375 43.81700134277344 14554.837890625 C 44.03500366210938 14555.2099609375 44.35100173950195 14555.5380859375 44.50300216674805 14555.931640625 C 44.59800338745117 14556.1767578125 44.56700134277344 14556.5927734375 44.41000366210938 14556.7763671875 C 44.28500366210938 14556.921875 43.84900665283203 14556.9208984375 43.6150016784668 14556.8271484375 C 43.24200057983398 14556.67578125 42.94100189208984 14556.353515625 42.57500076293945 14556.1767578125 C 42.11800003051758 14555.9560546875 41.625 14555.8076171875 41.125 14555.6201171875 C 40.62300109863281 14555.8154296875 40.15600204467773 14555.9716796875 39.7130012512207 14556.177734375 C 39.44200134277344 14556.3037109375 39.2030029296875 14556.501953125 38.95500183105469 14556.6748046875 C 38.73703384399414 14556.8271484375 38.51430892944336 14556.98046875 38.28200912475586 14556.98046875 Z" stroke="none" fill="#fff"/>
    </g>
  </g>
</svg>
