<svg xmlns="http://www.w3.org/2000/svg" width="20.008" height="20" viewBox="0 0 20.008 20">
  <g id="nav-icon-7" transform="translate(-21.996 -14132)">
    <path id="Path_840" data-name="Path 840" d="M37.207,14142.941a5.131,5.131,0,0,1-2.16,3.161c.475.154.875.285,1.276.414q2.655.85,5.312,1.694a.449.449,0,0,1,.369.493c-.012.947,0,1.895-.005,2.842,0,.363-.094.453-.468.453H22.475c-.386,0-.472-.088-.473-.479,0-.927.01-1.854-.006-2.779a.48.48,0,0,1,.4-.537q3.133-.99,6.261-2c.076-.025.148-.061.286-.116a5.109,5.109,0,0,1-2.144-3.148c-.245,0-.493.006-.741,0a1.553,1.553,0,0,1-1.548-1.555c-.012-.781,0-1.562,0-2.343a.962.962,0,0,1,1.083-1.1c.041,0,.082-.006.132-.009a3.137,3.137,0,0,1,.138-.4,1.606,1.606,0,0,1,.177-.257l-.685-.813a3.674,3.674,0,0,1-.847-2.847c.033-.338.247-.443.548-.271.349.2.692.414,1.08.647.068-.447.128-.847.187-1.245.006-.041,0-.083.009-.124.059-.7.355-.771.813-.363.24.213.5.5.779.547.258.042.557-.207.845-.307a7.614,7.614,0,0,1,4.173-.346,3.268,3.268,0,0,1,1.944,1.215.44.44,0,0,0,.3.152,2.126,2.126,0,0,1,2.3,2.273c.013.391-.04.785-.064,1.2a.985.985,0,0,1,.843.91.2.2,0,0,0,.06.028c.924.05,1.184.324,1.184,1.258,0,.708,0,1.416,0,2.124a1.562,1.562,0,0,1-1.637,1.624C37.645,14142.942,37.427,14142.941,37.207,14142.941Zm4.166,8.427c0-.786-.009-1.544.006-2.3a.315.315,0,0,0-.271-.366c-1.367-.429-2.728-.874-4.093-1.312-.619-.2-1.24-.388-1.889-.591,0,.457-.011.873,0,1.288a.581.581,0,0,1-.261.527,4.453,4.453,0,0,1-2.37.86,4.842,4.842,0,0,1-3.343-.842.617.617,0,0,1-.285-.578c.017-.407,0-.817,0-1.235a1.216,1.216,0,0,0-.139.02c-1.978.632-3.956,1.262-5.931,1.905a.345.345,0,0,0-.17.263c-.016.531-.008,1.063-.008,1.593v.769ZM36.818,14137a14.878,14.878,0,0,0-.01-1.557,1.344,1.344,0,0,0-1.538-1.251c.024.111.056.221.07.332.036.288.075.577.094.865a.3.3,0,0,1-.306.354c-.215,0-.31-.141-.316-.347,0-.053,0-.105,0-.157a2.365,2.365,0,0,0-2.062-2.479,6.5,6.5,0,0,0-4.525.689.459.459,0,0,1-.59-.032c-.212-.174-.44-.329-.7-.524-.079.54-.143,1.022-.221,1.5-.073.445-.243.518-.64.283-.3-.178-.6-.357-.959-.568.018.209.019.361.045.51a3.093,3.093,0,0,0,1.61,2.218,1.228,1.228,0,0,0,.585.156q4.528.013,9.057.006Zm-6.043,4.373a1.273,1.273,0,0,1,2.452,0h4.03a.327.327,0,0,0,.366-.367q0-1.513,0-3.027a.318.318,0,0,0-.35-.351c-.177,0-.354,0-.53,0H26.876c-.384,0-.495.08-.5.392,0,.988,0,1.977,0,2.966,0,.255.118.389.376.389Zm-3.469.627a4.3,4.3,0,0,0,2.091,3.616,4.9,4.9,0,0,0,5.321-.069,4.271,4.271,0,0,0,1.973-3.547h-.377c-1.073,0-2.146,0-3.218,0-.281,0-.447-.074-.483-.39a.616.616,0,0,0-1.226.008c-.036.3-.187.384-.459.382-.854-.007-1.708,0-2.561,0Zm2.2,4.388c0,.575-.008,1.093.008,1.608a.366.366,0,0,0,.17.228,4.491,4.491,0,0,0,4.64,0,.374.374,0,0,0,.17-.229c.015-.516.008-1.033.008-1.611A5.63,5.63,0,0,1,29.5,14146.392Zm-3.752-7.809c-.549-.035-.623.033-.623.539,0,.739-.006,1.479,0,2.218a.926.926,0,0,0,.864.968c.226.019.454,0,.681,0l.061-.073c-.067-.082-.119-.211-.2-.239a.962.962,0,0,1-.779-1.054C25.75,14140.165,25.751,14139.385,25.751,14138.583Zm11.583,3.732h.453a.966.966,0,0,0,1.087-1.1q0-1.062,0-2.124c0-.482-.116-.576-.624-.482,0,.8,0,1.6,0,2.4a.906.906,0,0,1-.722.962C37.325,14142.016,37.274,14142.1,37.334,14142.315Z" fill="#fff"/>
    <path id="Path_841" data-name="Path 841" d="M36.38,14140.112v-1.224h-.613v-.634a6.083,6.083,0,0,1,.908.015.454.454,0,0,1,.309.3c.033.5.015,1.014.015,1.539Z" fill="#fff"/>
    <path id="Path_842" data-name="Path 842" d="M27,14138.894h.612v1.229h.621v.626a7.144,7.144,0,0,1-.948-.015.431.431,0,0,1-.273-.306C26.986,14139.924,27,14139.415,27,14138.894Z" fill="#fff"/>
    <path id="Path_843" data-name="Path 843" d="M34.506,14138.854v-.576h.6v.576Z" fill="#fff"/>
    <path id="Path_844" data-name="Path 844" d="M29.49,14140.154v.58h-.6v-.58Z" fill="#fff"/>
    <path id="Path_845" data-name="Path 845" d="M31.975,14144.82a2.786,2.786,0,0,1-2.354-1.284c-.128-.192-.2-.387.032-.539s.358,0,.483.18a2.212,2.212,0,0,0,3.727,0c.124-.181.26-.324.482-.185s.166.344.037.537A2.788,2.788,0,0,1,31.975,14144.82Z" fill="#fff"/>
  </g>
</svg>
