<svg xmlns="http://www.w3.org/2000/svg" width="20.006" height="20" viewBox="0 0 20.006 20">
  <path id="nav-icon-6" d="M34.263,14096.079a1.021,1.021,0,0,1-.824.93.334.334,0,0,0-.177.205,1.019,1.019,0,0,1-1.707.5.406.406,0,0,0-.485-.106c-.622.234-1.17-.14-1.344-.886a1.051,1.051,0,0,1-.944-.884c-.01-.057-.135-.114-.217-.136a.971.971,0,0,1-.728-.738.285.285,0,0,0-.26-.241.869.869,0,0,1-.685-.659.652.652,0,0,0-.367-.459c-.21-.111-.41-.241-.629-.373-.184.416-.538.288-.8.21-.985-.295-1.957-.633-2.93-.965a.291.291,0,0,1-.165-.212q-.008-3.236,0-6.471c0-.007.014-.013.048-.043a2.064,2.064,0,0,1,1.542.3c.156.133.379.188.532.322.465.412.933.223,1.467.043a1.868,1.868,0,0,0-.185-.223,2.04,2.04,0,0,1-.805-1.5,4.8,4.8,0,0,1,.115-1.633,2.163,2.163,0,0,1,2.207-1.524c-.083-.207-.152-.407-.242-.6a.281.281,0,0,1,.065-.381q.7-.672,1.37-1.37c.131-.137.241-.183.391-.044a1.193,1.193,0,0,0,1.576.186c.3-.17.508-.286.535-.646a5.062,5.062,0,0,1,.144-.68h2.462c.067.315.119.632.208.938a.519.519,0,0,0,.235.273c.161.091.369.106.517.21a.751.751,0,0,0,1-.08c.483-.359.5-.338.937.1.353.354.7.717,1.065,1.055a.356.356,0,0,1,.088.51,4.7,4.7,0,0,0-.219.517,2.309,2.309,0,0,1,2.312,1.922,2.753,2.753,0,0,1-1.043,2.955l1.017.272a1.208,1.208,0,0,1,.211.052,1.191,1.191,0,0,0,1.351-.157,1.49,1.49,0,0,1,1.093-.182v.3c0,1.375-.006,2.751.006,4.126a.4.4,0,0,1-.269.421c-1.761.872-3.516,1.757-5.276,2.631a.444.444,0,0,0-.289.382.944.944,0,0,1-.758.815c-.082.021-.2.105-.209.177A1.04,1.04,0,0,1,34.263,14096.079Zm7.068-9c-.143.072-.251.124-.357.18-1.767.93-3.538,1.851-5.3,2.795a1.411,1.411,0,0,1-1.136.105c-.578-.168-1.16-.324-1.737-.5a1.364,1.364,0,0,0-1,.075c-.6.288-1.194.588-1.785.893a.476.476,0,0,0-.228.659.452.452,0,0,0,.669.14c.343-.2.679-.4,1.019-.605a1.3,1.3,0,0,1,1.763.172c.815.728,1.629,1.457,2.434,2.2a.387.387,0,0,0,.514.085q2.46-1.25,4.934-2.471a.361.361,0,0,0,.234-.382c-.009-1.021,0-2.041,0-3.062C41.351,14087.289,41.34,14087.21,41.331,14087.082Zm-8.162,5.823c.569.474,1.118.934,1.671,1.39.219.181.485.189.612.019.17-.23.056-.405-.123-.566q-1.254-1.128-2.507-2.257a.741.741,0,0,0-1.045-.09c-.358.212-.707.439-1.073.638a1.081,1.081,0,0,1-1.566-.621,1.122,1.122,0,0,1,.593-1.368c.5-.257,1-.5,1.5-.752a3.455,3.455,0,0,0-1.053-.3,11.482,11.482,0,0,0-3.155.511.232.232,0,0,0-.142.142c-.279.967-.551,1.936-.829,2.917l.991.594c.238-.244.451-.488.69-.7a.937.937,0,0,1,1.3-.025c.188.187.237.513.424.7s.559.225.683.429a2.016,2.016,0,0,0,.8.8c.211.113.248.513.441.706a3.618,3.618,0,0,0,.744.457c.016.01.02.037.035.051.293.247.578.5.885.733a.33.33,0,0,0,.5-.083c.134-.18.05-.334-.088-.468-.052-.051-.113-.092-.169-.139-.492-.413-.984-.826-1.492-1.251l.415-.491,1.559,1.3c.056.047.11.1.169.139a.368.368,0,0,0,.555-.035c.154-.191.07-.371-.1-.516l-1.628-1.36Zm-4.375-4.486a1.325,1.325,0,0,0,.178-.015,3.877,3.877,0,0,1,1.79.032c.73.2,1.458.4,2.187.6.63.176,1.258.356,1.888.531.33.092.387.047.388-.292,0-.281.009-.562,0-.844a.985.985,0,0,0-.838-1.046c-.512-.135-1.027-.258-1.54-.392-.071-.02-.188-.071-.191-.113a3.965,3.965,0,0,1,0-.871c.018-.113.218-.193.322-.3a2.4,2.4,0,0,0,.4-.469,2.474,2.474,0,0,0,.123-1.909,1.581,1.581,0,0,0-1.41-1.144,1.622,1.622,0,0,0-1.562.936,2.243,2.243,0,0,0,.69,2.727,1.525,1.525,0,0,1,.067,1.106.56.56,0,0,1-.178.048c-.533.136-1.068.268-1.6.412A.91.91,0,0,0,28.794,14088.419Zm7.081.794c.629-.33,1.2-.628,1.767-.928s1.126-.6,1.752-.927c-.347-.095-.613-.169-.882-.237-.714-.179-.706-.178-.717-.9a.449.449,0,0,1,.249-.445,1.4,1.4,0,0,0,.688-1.065,5.294,5.294,0,0,0,0-1.153,1.615,1.615,0,0,0-1.646-1.368,1.589,1.589,0,0,0-1.521,1.528c-.011.271-.008.542,0,.813a1.344,1.344,0,0,0,.594,1.147.7.7,0,0,1,.359.771,1.437,1.437,0,0,1-.009.31.417.417,0,0,1-.2.236c-.279.1-.57.16-.9.247A2.544,2.544,0,0,1,35.875,14089.213Zm-7.4-2c-.059-.018-.174-.061-.293-.091-.7-.174-.693-.173-.707-.881a.478.478,0,0,1,.258-.476,1.322,1.322,0,0,0,.653-.949,4.9,4.9,0,0,0,.013-1.274,1.589,1.589,0,0,0-3.158.163c-.015.228-.011.458-.012.687a1.617,1.617,0,0,0,.785,1.44.358.358,0,0,1,.167.227,2.2,2.2,0,0,1-.043.86c-.048.125-.384.139-.59.2-.007,0-.013.011-.04.036a11.8,11.8,0,0,0,1.078.628c.426.2.679.448.564.946,0,.012.02.03.045.065l.815-.187Zm-.4-.78c.465.115.874.221,1.286.315a.475.475,0,0,0,.214-.02c.312-.076.624-.155.935-.24.063-.018.171-.072.167-.1a.344.344,0,0,0-.107-.2,2.193,2.193,0,0,1-.8-1.4,6.492,6.492,0,0,1-.023-1,2.24,2.24,0,0,1,4.29-.913,3.519,3.519,0,0,1,.211,1.592,2.231,2.231,0,0,1-.725,1.636,2.788,2.788,0,0,0-.218.28c.107.05.211.1.319.15a2.881,2.881,0,0,0,2.294-.145,2.279,2.279,0,0,1-.217-.234,4.557,4.557,0,0,1-.672-1.027,3.422,3.422,0,0,1,.016-2.12.525.525,0,0,0-.009-.369,3.551,3.551,0,0,0-5.987-.171.639.639,0,0,0-.08.688,1.91,1.91,0,0,1,.12.64,2.578,2.578,0,0,1-.882,2.439A.98.98,0,0,0,28.074,14086.431Zm.377-4.237a4.2,4.2,0,0,1,7.081-.016,2.273,2.273,0,0,0,.612-.41,5.276,5.276,0,0,0,.461-.891c.008-.016-.022-.058-.042-.078-.32-.322-.642-.643-.964-.966-.249.164-.476.293-.68.452a.351.351,0,0,1-.442.017,4.513,4.513,0,0,0-1.048-.466.693.693,0,0,1-.628-.657c-.086-.554-.114-.55-.671-.55-.85,0-.844,0-1.024.831a.45.45,0,0,1-.234.266c-.471.215-.949.412-1.43.6a.392.392,0,0,1-.3-.009c-.259-.145-.5-.315-.784-.494-.305.315-.6.608-.876.92a.389.389,0,0,0-.05.288A1.725,1.725,0,0,0,28.451,14082.193Zm-4.476,10.2c.035-.038.046-.045.048-.054q.57-2.231,1.131-4.463a.263.263,0,0,0-.1-.222q-1.042-.624-2.1-1.226a.863.863,0,0,0-.267-.059c-.026.047-.035.056-.035.066-.006,1.787-.013,3.576-.01,5.365a.268.268,0,0,0,.149.189C23.181,14092.136,23.575,14092.261,23.975,14092.395Zm1.278.428c.029-.039.056-.061.063-.087.393-1.355.785-2.71,1.167-4.068a.26.26,0,0,0-.089-.227c-.185-.129-.389-.23-.621-.363l-1.133,4.533Zm3.538.342c-.074-.1-.128-.242-.219-.271a.506.506,0,0,0-.4.045,4.3,4.3,0,0,0-.579.559.333.333,0,0,0-.011.5.341.341,0,0,0,.523,0c.183-.168.36-.343.526-.527A1.442,1.442,0,0,0,28.791,14093.164Zm1.939,1.933c-.073-.094-.129-.237-.219-.265a.5.5,0,0,0-.4.041,4.076,4.076,0,0,0-.6.586.334.334,0,0,0,.032.5.32.32,0,0,0,.474-.01c.2-.185.387-.375.57-.573A1.249,1.249,0,0,0,30.73,14095.1Zm.039,1.909c.018,0,.074.006.1-.017a10.35,10.35,0,0,0,.763-.8c.047-.06-.031-.3-.118-.363a.407.407,0,0,0-.388-.017,4.073,4.073,0,0,0-.678.678A.336.336,0,0,0,30.769,14097.006Zm-1.944-1.931c.022,0,.076,0,.1-.024.269-.267.544-.529.788-.818.04-.049-.029-.259-.106-.319s-.3-.123-.356-.071a4.692,4.692,0,0,0-.757.765C28.349,14094.8,28.554,14095.074,28.825,14095.075Zm2.98,1.975c.173.192.341.366.6.258.094-.04.229-.2.208-.259a3.49,3.49,0,0,0-.326-.562Z" transform="translate(-21.997 -14078)" fill="#fff"/>
</svg>
