<svg xmlns="http://www.w3.org/2000/svg" width="19.999" height="20" viewBox="0 0 19.999 20">
  <g id="nav-icon-5" transform="translate(-22.001 -14016)">
    <path id="Path_849" data-name="Path 849" d="M33.831,14031.813c-.286,0-.577.007-.867,0a.7.7,0,0,1-.737-.68.718.718,0,0,1,.683-.708,4.777,4.777,0,0,1,.488-.008h.432c.146-.332.291-.634.407-.947a.347.347,0,0,0-.061-.288c-.155-.187-.346-.345-.509-.526a.691.691,0,0,1-.014-.976.649.649,0,0,1,.99,0c.43.536.869.723,1.465.286a1.148,1.148,0,0,1,.306-.094c0-.271-.005-.545,0-.82.011-.5.3-.828.717-.82s.672.319.68.809c0,.267,0,.534,0,.789.345.152.668.306,1,.433a.326.326,0,0,0,.258-.084c.176-.151.329-.329.5-.486a.687.687,0,0,1,1-.027.636.636,0,0,1-.007.987.971.971,0,0,0-.29,1.479c.118.192.175.314.413.292a3.877,3.877,0,0,1,.593,0,.693.693,0,0,1,.72.731.636.636,0,0,1-.738.651c-.618-.062-.993.081-1.174.745-.087.318-.11.5.145.7a2.6,2.6,0,0,1,.391.4.7.7,0,0,1-.98.978,4.648,4.648,0,0,1-.5-.49c-.144-.162-.277-.226-.474-.082a1.468,1.468,0,0,1-.346.162c-.513.2-.513.2-.515.771a3.663,3.663,0,0,1-.011.419.642.642,0,0,1-.621.6.623.623,0,0,1-.708-.484,4.817,4.817,0,0,1-.054-.9c0-.178-.036-.286-.237-.31a1.3,1.3,0,0,1-.327-.116c-.572-.235-.572-.236-1.023.214a3.121,3.121,0,0,1-.227.216.694.694,0,0,1-.985-.968,5.41,5.41,0,0,1,.538-.548.27.27,0,0,0,.064-.388C34.077,14032.439,33.971,14032.143,33.831,14031.813Zm1.379-.687a1.916,1.916,0,1,0,1.926-1.914A1.914,1.914,0,0,0,35.21,14031.126Z" fill="#fff"/>
    <path id="Path_850" data-name="Path 850" d="M31.541,14026.226a5.113,5.113,0,1,1,5.122-5.13A5.108,5.108,0,0,1,31.541,14026.226Zm0-1.4a3.714,3.714,0,1,0-3.732-3.716A3.723,3.723,0,0,0,31.541,14024.827Z" fill="#fff"/>
    <path id="Path_851" data-name="Path 851" d="M27.5,14035.089c-1.269,0-2.537,0-3.806,0A1.552,1.552,0,0,1,22,14033.4a9.532,9.532,0,0,1,.12-2.046,4.057,4.057,0,0,1,1.91-2.4,10.628,10.628,0,0,1,4.272-1.608c1.006-.164,2.031-.222,3.05-.3.551-.041.859.228.868.67.009.458-.3.713-.87.722a13.564,13.564,0,0,0-5.529,1.11,5.7,5.7,0,0,0-1.832,1.251,2,2,0,0,0-.6,1.512c.015.3,0,.6,0,.907,0,.47,0,.471.457.471h7.508c.491,0,.782.192.849.554a.693.693,0,0,1-.76.843C30.133,14035.092,28.818,14035.089,27.5,14035.089Z" fill="#fff"/>
  </g>
</svg>
