<svg xmlns="http://www.w3.org/2000/svg" width="20.063" height="20" viewBox="0 0 20.063 20">
  <g id="nav-icon-active-9" transform="translate(-24.622 -14550)">
    <path id="Path_828" data-name="Path 828" d="M35.765,14570c-6.961,0-11.622-5.089-11.1-11.276a10.3,10.3,0,0,1,7.562-8.71c.23-.051.673.042.726.181a1.243,1.243,0,0,1-.016.944,8.538,8.538,0,0,0-1.157,4.268,8.288,8.288,0,0,0,6.774,8.062,8.989,8.989,0,0,0,4.907-.467,1.294,1.294,0,0,1,1,.077c.415.249.155.661-.007.98A10.067,10.067,0,0,1,35.765,14570Z" fill="#fff"/>
    <path id="Path_829" data-name="Path 829" d="M41.125,14555.62c-.5.2-.969.352-1.412.558a5.3,5.3,0,0,0-.758.5c-.348.243-.708.488-1.1.109-.42-.407-.151-.785.1-1.152.135-.2.265-.394.4-.592a2.614,2.614,0,0,0,.01-3.146,4.446,4.446,0,0,1-.585-.926.918.918,0,0,1,.092-.792.9.9,0,0,1,.793-.087,7.123,7.123,0,0,1,1.037.656,2.577,2.577,0,0,0,2.98-.049,3.883,3.883,0,0,1,.869-.555,1.145,1.145,0,0,1,.9.057c.147.11.125.586.028.843a5.78,5.78,0,0,1-.62.982,2.532,2.532,0,0,0-.044,2.813,8.264,8.264,0,0,1,.686,1.094.983.983,0,0,1-.093.845c-.125.146-.561.145-.795.051-.373-.151-.674-.474-1.04-.65C42.118,14555.956,41.625,14555.808,41.125,14555.62Z" fill="#fff"/>
  </g>
</svg>
