<svg xmlns="http://www.w3.org/2000/svg" width="20" height="20" viewBox="0 0 20 20">
  <path id="nav-icon-active-6" d="M2109.99,11335.341c0-.086-.011-.171-.022-.31-.15.075-.267.139-.374.191-1.892.994-3.783,1.978-5.664,2.993a1.5,1.5,0,0,1-1.208.107c-.62-.183-1.24-.342-1.859-.524a1.444,1.444,0,0,0-1.08.075c-.63.31-1.272.63-1.9.951a.514.514,0,0,0-.246.705.478.478,0,0,0,.716.149c.363-.2.727-.427,1.09-.641a1.391,1.391,0,0,1,1.881.181c.877.781,1.742,1.562,2.608,2.353a.409.409,0,0,0,.545.085q2.629-1.332,5.279-2.641a.394.394,0,0,0,.246-.405C2109.99,11337.521,2110,11336.431,2109.99,11335.341Zm-6.188-3.9c-.011.288,0,.576,0,.865a1.421,1.421,0,0,0,.641,1.219.78.78,0,0,1,.385.834c-.022.105.021.224-.011.319a.469.469,0,0,1-.214.257c-.3.106-.609.172-.962.268a2.731,2.731,0,0,1,.5,2.1c.673-.352,1.282-.673,1.891-.992s1.2-.632,1.871-.984c-.374-.107-.663-.182-.941-.256-.769-.193-.759-.193-.769-.962a.467.467,0,0,1,.267-.481,1.447,1.447,0,0,0,.726-1.133,5.217,5.217,0,0,0,0-1.229,1.724,1.724,0,0,0-1.763-1.464A1.7,1.7,0,0,0,2103.8,11331.44Zm-7.6-1.636a4.5,4.5,0,0,1,7.577-.011,2.759,2.759,0,0,0,.652-.437,6.237,6.237,0,0,0,.492-.951c.01-.022-.022-.065-.043-.086-.342-.343-.7-.685-1.037-1.036-.267.181-.5.319-.727.491a.369.369,0,0,1-.47.011,4.54,4.54,0,0,0-1.122-.492.744.744,0,0,1-.673-.705c-.086-.6-.118-.588-.716-.588-.909,0-.9,0-1.09.887a.521.521,0,0,1-.257.289c-.5.225-1,.438-1.517.642a.475.475,0,0,1-.321-.012c-.278-.159-.545-.342-.834-.533-.331.342-.641.651-.94.982a.4.4,0,0,0-.054.311A1.814,1.814,0,0,0,2096.2,11329.8Zm7.748,4.232a5.085,5.085,0,0,1-.716-1.09,3.723,3.723,0,0,1,.011-2.267.557.557,0,0,0,0-.395,3.8,3.8,0,0,0-6.4-.183.667.667,0,0,0-.085.728,2.091,2.091,0,0,1,.128.684,2.75,2.75,0,0,1-.941,2.608.793.793,0,0,0-.138.213c.491.128.929.235,1.367.342a.839.839,0,0,0,.236-.021l.993-.256c.065-.022.182-.086.182-.107a.331.331,0,0,0-.117-.214,2.355,2.355,0,0,1-.855-1.507,5.833,5.833,0,0,1-.022-1.059,2.388,2.388,0,0,1,1.892-2.352,2.416,2.416,0,0,1,2.693,1.369,3.892,3.892,0,0,1,.225,1.709,2.411,2.411,0,0,1-.781,1.743,3.056,3.056,0,0,0-.224.3c.107.053.224.118.331.16a3.138,3.138,0,0,0,2.458-.149A2.467,2.467,0,0,1,2103.951,11334.037Zm-3.078,5.707a.791.791,0,0,0-1.111-.1c-.385.224-.759.47-1.144.684a1.168,1.168,0,0,1-1.678-.663,1.2,1.2,0,0,1,.631-1.464c.534-.278,1.069-.534,1.6-.8a3.737,3.737,0,0,0-1.122-.33,12.5,12.5,0,0,0-3.377.544.288.288,0,0,0-.15.149c-.3,1.036-.588,2.073-.887,3.121.363.213.7.417,1.058.63.256-.256.481-.513.737-.748a1,1,0,0,1,1.4-.021c.193.192.246.545.449.748s.6.235.727.459a2.178,2.178,0,0,0,.855.854c.224.118.267.547.47.76a3.988,3.988,0,0,0,.8.48c.011.011.021.043.032.053.32.269.62.547.951.791a.358.358,0,0,0,.524-.085c.149-.192.053-.362-.1-.5-.053-.053-.117-.105-.17-.148-.535-.438-1.058-.887-1.6-1.336.161-.192.3-.363.449-.524.567.47,1.112.93,1.668,1.379a1.212,1.212,0,0,0,.181.15.394.394,0,0,0,.588-.032c.171-.214.075-.407-.107-.556-.577-.481-1.154-.962-1.742-1.454.16-.192.289-.353.438-.534.609.513,1.2,1,1.785,1.5a.458.458,0,0,0,.663.011c.181-.246.053-.427-.139-.6C2102.669,11341.358,2101.771,11340.546,2100.873,11339.744Zm-1.827-4.8c-.567.149-1.133.289-1.71.448a.96.96,0,0,0-.759,1.069.948.948,0,0,0,.182-.021,4.2,4.2,0,0,1,1.923.042c.78.2,1.55.428,2.33.642.674.181,1.347.374,2.02.566.353.1.417.054.417-.311,0-.3.011-.608,0-.908a1.053,1.053,0,0,0-.9-1.111c-.545-.149-1.1-.278-1.646-.417-.074-.021-.2-.074-.2-.128a3.917,3.917,0,0,1,0-.931c.022-.117.225-.2.342-.319a2.369,2.369,0,0,0,.428-.5,2.662,2.662,0,0,0,.139-2.042,1.707,1.707,0,0,0-1.507-1.219,1.748,1.748,0,0,0-1.678.994,2.412,2.412,0,0,0,.737,2.918,1.58,1.58,0,0,1,.075,1.187A.579.579,0,0,1,2099.046,11334.945Zm.748,10.74c.181.2.363.4.641.278.1-.043.246-.224.214-.278a3.87,3.87,0,0,0-.342-.6C2100.093,11345.333,2099.954,11345.494,2099.794,11345.686Zm-.727-1.324a4.282,4.282,0,0,0-.727.727.36.36,0,0,0,.342.555c.022-.01.086,0,.107-.021a10.109,10.109,0,0,0,.812-.855c.054-.063-.032-.319-.128-.385A.421.421,0,0,0,2099.067,11344.361Zm-.427-.76c-.075-.106-.139-.256-.236-.287a.574.574,0,0,0-.427.043,4.372,4.372,0,0,0-.631.63.358.358,0,0,0,.033.534.337.337,0,0,0,.5-.011q.319-.306.609-.609A1.573,1.573,0,0,0,2098.64,11343.6Zm-1.2-1.271a.44.44,0,0,0-.385-.076,4.857,4.857,0,0,0-.8.823c-.16.2.064.492.353.492.021,0,.075.011.107-.021.288-.288.577-.566.844-.877C2097.6,11342.619,2097.528,11342.394,2097.443,11342.331Zm-.877-.8c-.075-.1-.128-.257-.235-.289a.559.559,0,0,0-.417.054,4.127,4.127,0,0,0-.62.6.351.351,0,0,0-.01.535.358.358,0,0,0,.555-.011c.193-.182.385-.364.567-.556A1.914,1.914,0,0,0,2096.566,11341.529Zm-2.96-7.834a.387.387,0,0,1,.171.246,2.2,2.2,0,0,1-.043.919c-.053.128-.406.149-.63.214-.011,0-.011.01-.043.043a12.829,12.829,0,0,0,1.154.662c.449.214.727.48.6,1.015,0,.011.021.032.053.075.321-.075.652-.149.866-.2.181-.556.342-1.015.5-1.5-.064-.021-.192-.063-.321-.1-.748-.183-.737-.183-.748-.941a.5.5,0,0,1,.267-.513,1.393,1.393,0,0,0,.706-1.015,5.275,5.275,0,0,0,.01-1.357,1.7,1.7,0,0,0-3.377.171c-.011.246-.011.491-.011.737A1.724,1.724,0,0,0,2093.606,11333.7Zm.406,2.789c-.2-.139-.417-.245-.663-.385-.416,1.636-.812,3.228-1.218,4.842.246.086.449.159.663.224.021-.042.053-.064.064-.1.416-1.443.833-2.9,1.25-4.339A.341.341,0,0,0,2094.012,11336.484Zm-1.432-.833q-1.122-.674-2.245-1.315a1.45,1.45,0,0,0-.288-.063.536.536,0,0,0-.032.074c-.011,1.913-.021,3.826-.011,5.729a.263.263,0,0,0,.161.2c.406.16.833.288,1.261.427l.053-.054c.406-1.593.812-3.175,1.208-4.767A.274.274,0,0,0,2092.58,11335.651Z" transform="translate(-2090 -11326)" fill="#fff"/>
</svg>
