<svg xmlns="http://www.w3.org/2000/svg" width="15.21" height="20" viewBox="0 0 15.21 20">
  <g id="nav-icon-active-2" transform="translate(3486.106 -364)">
    <path id="Path_1059" data-name="Path 1059" d="M-3476.755,364c0,1.341,0,2.632,0,3.923a1.8,1.8,0,0,0,1.942,1.948c1.184,0,2.368,0,3.552,0h.365v.335q0,5.921,0,11.841a1.785,1.785,0,0,1-1.957,1.953h-11.312a1.782,1.782,0,0,1-1.94-1.938q0-8.061,0-16.122a1.781,1.781,0,0,1,1.939-1.939h7.411Zm-1.749,8.251q-1.7,0-3.392,0c-.425,0-.7.235-.7.581a.632.632,0,0,0,.706.589q3.393,0,6.785,0a.628.628,0,0,0,.7-.6c0-.347-.277-.574-.706-.575Q-3476.808,372.249-3478.5,372.251Zm0,3.5q1.695,0,3.392,0c.428,0,.7-.229.705-.576a.627.627,0,0,0-.7-.594q-3.393,0-6.785,0a.632.632,0,0,0-.7.59c0,.347.275.58.7.581Q-3480.2,375.751-3478.5,375.749Zm0,1.189q-1.7,0-3.392,0c-.429,0-.705.228-.706.575a.629.629,0,0,0,.7.6q3.393,0,6.785,0a.63.63,0,0,0,.705-.589c0-.347-.274-.581-.7-.581Q-3476.8,376.936-3478.5,376.938Zm-1.155,3.5c.746,0,1.493,0,2.239,0,.413,0,.658-.223.657-.58a.592.592,0,0,0-.661-.59q-2.254-.008-4.509,0a.62.62,0,0,0-.669.593.6.6,0,0,0,.673.577C-3481.166,380.438-3480.41,380.436-3479.653,380.436Z" fill="#fff"/>
    <path id="Path_1060" data-name="Path 1060" d="M-3475.572,364.388l4.27,4.28c-.1.008-.186.02-.271.02q-1.634,0-3.268,0c-.538,0-.73-.193-.731-.733q0-1.638,0-3.276Z" fill="#fff"/>
  </g>
</svg>
