<svg xmlns="http://www.w3.org/2000/svg" width="23.515" height="20" viewBox="0 0 23.515 20">
  <path id="nav-icon-active-4" d="M43.735,8529.6a7.472,7.472,0,0,0-1.495-3.879,6.879,6.879,0,0,0-8.3-2.1,22.528,22.528,0,0,0-2.016,1.211c-.083-.07-.2-.175-.326-.275a6.625,6.625,0,0,0-5.135-1.5,6.719,6.719,0,0,0-5.322,3.644,6.142,6.142,0,0,0-.156,6.134,14.77,14.77,0,0,0,2.182,3.028,46.171,46.171,0,0,0,8.487,7.027.621.621,0,0,0,.773-.052,51.905,51.905,0,0,0,6.831-5.366,20.132,20.132,0,0,0,3.269-3.8A6.353,6.353,0,0,0,43.735,8529.6Zm-2.882.9c-.294.013-.42-.219-.482-.722a3.627,3.627,0,0,0-2.344-3.178c-.432-.171-.58-.448-.378-.737.171-.246.4-.224.653-.142a4.5,4.5,0,0,1,2.968,3.984C41.3,8530.249,41.175,8530.482,40.853,8530.5Zm-4.557-4.953a.426.426,0,0,1,.423.46.449.449,0,0,1-.474.451.428.428,0,0,1-.422-.463A.438.438,0,0,1,36.3,8525.543Z" transform="translate(-20.242 -8523)" fill="#fff"/>
</svg>
