<svg xmlns="http://www.w3.org/2000/svg" width="24.128" height="20" viewBox="0 0 24.128 20">
  <g id="nav-icon-active-3" transform="translate(-1974.936 -7137)">
    <path id="Path_206" data-name="Path 206" d="M1977.687,7157a2.55,2.55,0,0,1-2.74-2.755v-7.277s9.276,3.086,11.251,3.747a2.4,2.4,0,0,0,.769.124,3.615,3.615,0,0,0,1.158-.217c3.644-1.222,10.937-3.658,10.94-3.658v7.3a2.558,2.558,0,0,1-2.722,2.734l-9.328,0Z" fill="#fff"/>
    <path id="Path_207" data-name="Path 207" d="M1987.006,7148.761a1.382,1.382,0,0,1-.434-.075q-4.226-1.417-8.453-2.822l-2.934-.977c-.077-.025-.152-.054-.228-.084,0-.216-.006-.433-.01-.649-.012-.585-.024-1.19.022-1.773a2.515,2.515,0,0,1,2.582-2.295c.655-.006,1.311-.007,1.966-.007l3.648,0v-1.154a1.771,1.771,0,0,1,1.932-1.922l1.986-.006q.93,0,1.858.006a1.757,1.757,0,0,1,1.9,1.911v1.13l.388.022c.1.006.2.012.294.012l4.806,0a2.563,2.563,0,0,1,2.73,2.727v1.994l-4.995,1.669q-3.31,1.1-6.62,2.211A1.38,1.38,0,0,1,1987.006,7148.761Zm-2.29-8.7h4.579v-1.5h-4.579Z" fill="#fff"/>
  </g>
</svg>
