<svg xmlns="http://www.w3.org/2000/svg" width="18.025" height="20.5" viewBox="0 0 18.025 20.5">
  <g id="nav-icon-8" transform="translate(-24.365 -14487.75)">
    <path id="Path_852" data-name="Path 852" d="M38.334,14504.482c-.213-.024-.424-.038-.632-.072a1.607,1.607,0,0,1-1.431-1.637q-.021-2.418,0-4.84a1.73,1.73,0,0,1,3.453-.155c.047,2.17.069,4.345-.017,6.514a2.753,2.753,0,0,1-2.617,2.5c-.3.028-.6.019-.9.02-.628,0-1.179-.05-1.66.624a1.6,1.6,0,0,1-2.487-.062,1.775,1.775,0,0,1,.212-2.533,1.679,1.679,0,0,1,2.45.31,1,1,0,0,0,1.021.48c.492-.041.992-.009,1.478-.078A1.264,1.264,0,0,0,38.334,14504.482Z" fill="none" stroke="#fff" stroke-width="0.5"/>
    <path id="Path_853" data-name="Path 853" d="M42.118,14496.68c-1.158-.247-1.176-.263-1.333-1.19a7.551,7.551,0,0,0-7.479-6.239,7.424,7.424,0,0,0-7.34,6.277c-.122.8-.623.982-1.236,1.156-.309-1.585.658-4.759,3.11-6.65a8.339,8.339,0,0,1,9.6-.935C40.5,14490.681,41.9,14493.307,42.118,14496.68Z" fill="none" stroke="#fff" stroke-width="0.5"/>
    <path id="Path_854" data-name="Path 854" d="M30.421,14500.38c0,.752.019,1.5,0,2.257a1.746,1.746,0,1,1-3.485-.021c-.015-1.526-.018-3.052,0-4.578a1.731,1.731,0,0,1,1.75-1.832,1.767,1.767,0,0,1,1.735,1.853C30.437,14498.832,30.422,14499.606,30.421,14500.38Z" fill="none" stroke="#fff" stroke-width="0.5"/>
    <path id="Path_855" data-name="Path 855" d="M25.766,14503.175a1.6,1.6,0,0,1-1.129-1.454c-.023-.944-.019-1.89,0-2.835a1.465,1.465,0,0,1,1.125-1.375Z" fill="none" stroke="#fff" stroke-width="0.5"/>
    <path id="Path_856" data-name="Path 856" d="M40.934,14497.553a1.28,1.28,0,0,1,1.071,1.174c.053,1.089.043,2.184-.009,3.271-.028.589-.455.926-1.062,1.131Z" fill="none" stroke="#fff" stroke-width="0.5"/>
  </g>
</svg>
