<svg xmlns="http://www.w3.org/2000/svg" width="20.004" height="20" viewBox="0 0 20.004 20">
  <g id="nav-icon-active-7" transform="translate(-21.998 -12758)">
    <path id="Path_881" data-name="Path 881" d="M25.329,12764.356v2.517a1.032,1.032,0,0,0,.832,1.131c.1.032.149.16.224.256-.022.021-.043.055-.064.075-.246,0-.491.021-.736,0a.981.981,0,0,1-.918-1.035c-.01-.789,0-1.579,0-2.368C24.667,12764.4,24.742,12764.324,25.329,12764.356Z" fill="#fff"/>
    <path id="Path_882" data-name="Path 882" d="M34.663,12772.687c0,.619.011,1.163-.011,1.719a.371.371,0,0,1-.181.245,4.8,4.8,0,0,1-4.95,0,.371.371,0,0,1-.181-.245c-.011-.556-.011-1.1-.011-1.719A6.043,6.043,0,0,0,34.663,12772.687Z" fill="#fff"/>
    <path id="Path_883" data-name="Path 883" d="M36.594,12768c-1.142,0-2.283,0-3.425.011-.3,0-.48-.085-.522-.416a.654.654,0,0,0-1.3,0c-.042.32-.2.416-.491.416-.917-.011-1.824-.011-2.73-.011H26.993a4.6,4.6,0,0,0,2.229,3.862,5.214,5.214,0,0,0,5.676-.075A4.544,4.544,0,0,0,37,12768Zm-2.059,1.633a3.038,3.038,0,0,1-5.078.011c-.139-.215-.213-.416.032-.576s.384-.011.523.191a2.353,2.353,0,0,0,3.968,0c.139-.191.278-.342.512-.191C34.748,12769.22,34.674,12769.433,34.535,12769.637Z" fill="#fff"/>
    <path id="Path_884" data-name="Path 884" d="M24.689,12760.131c-.022-.148-.032-.32-.043-.544.373.235.693.416,1.013.609.427.255.608.181.694-.3.074-.513.149-1.025.234-1.6.278.2.523.374.747.555a.483.483,0,0,0,.63.032,6.993,6.993,0,0,1,4.832-.735,2.527,2.527,0,0,1,2.2,2.646v.17c.01.224.106.374.341.374a.313.313,0,0,0,.32-.384c-.021-.31-.053-.608-.1-.917-.011-.118-.053-.235-.075-.353a1.429,1.429,0,0,1,1.643,1.333c.054.533.011,1.077.011,1.653H36.69c-3.222,0-6.433.011-9.655,0a1.285,1.285,0,0,1-.629-.171A3.315,3.315,0,0,1,24.689,12760.131Z" fill="#fff"/>
    <path id="Path_885" data-name="Path 885" d="M37.618,12763.342H26.534c-.416,0-.533.086-.533.416-.011,1.057,0,2.113,0,3.169,0,.268.117.416.394.416h4.289a1.364,1.364,0,0,1,2.624,0h4.3a.347.347,0,0,0,.384-.395v-3.232A.343.343,0,0,0,37.618,12763.342Zm-9.633,3.329a6.352,6.352,0,0,1-1.013-.021.42.42,0,0,1-.289-.319c-.032-.545-.021-1.078-.021-1.644h.662V12766h.661Zm1.333-.021h-.64v-.618h.64Zm5.985-2.006h-.629v-.607H35.3Zm2.027,1.345h-.662v-1.3h-.65v-.673a7.286,7.286,0,0,1,.97.012c.129.021.321.2.321.319C37.351,12764.889,37.33,12765.433,37.33,12765.988Z" fill="#fff"/>
    <path id="Path_886" data-name="Path 886" d="M37.9,12767.972a.967.967,0,0,0,.768-1.023v-2.561c.544-.1.662,0,.662.513v2.271a1.018,1.018,0,0,1-1.152,1.163c-.16.01-.31,0-.491,0C37.618,12768.111,37.671,12768.026,37.9,12767.972Z" fill="#fff"/>
    <path id="Path_887" data-name="Path 887" d="M42,12775.546c-.021.8-.01,1.611-.01,2.454H22v-.821c0-.565-.01-1.131.011-1.7a.381.381,0,0,1,.181-.288q3.153-1.024,6.326-2.027a1.12,1.12,0,0,1,.15-.021c0,.447.01.885-.011,1.312a.656.656,0,0,0,.309.619,5.157,5.157,0,0,0,3.563.9,4.762,4.762,0,0,0,2.529-.918.6.6,0,0,0,.277-.554c-.011-.448,0-.886,0-1.377.683.214,1.355.417,2.016.63,1.451.47,2.9.939,4.363,1.4A.346.346,0,0,1,42,12775.546Z" fill="#fff"/>
    <g id="Group_560" data-name="Group 560">
      <path id="Path_888" data-name="Path 888" d="M38.663,12764.388v2.561a.967.967,0,0,1-.768,1.023c-.224.055-.277.14-.213.363.181,0,.331.01.491,0a1.018,1.018,0,0,0,1.152-1.163v-2.271C39.325,12764.388,39.207,12764.292,38.663,12764.388Zm-12.5,3.616a1.032,1.032,0,0,1-.832-1.131v-2.517c-.587-.032-.662.043-.662.575,0,.789-.01,1.579,0,2.368a.981.981,0,0,0,.918,1.035c.245.021.49,0,.736,0,.021-.021.042-.054.064-.075C26.31,12768.164,26.257,12768.036,26.161,12768Zm8.5,4.683a6.043,6.043,0,0,1-5.334,0c0,.619,0,1.163.011,1.719a.371.371,0,0,0,.181.245,4.8,4.8,0,0,0,4.95,0,.371.371,0,0,0,.181-.245C34.674,12773.85,34.663,12773.306,34.663,12772.687Zm1.931-4.683c-1.142,0-2.283,0-3.425.011-.3,0-.48-.085-.522-.416a.654.654,0,0,0-1.3,0c-.042.32-.2.416-.491.416-.917-.011-1.824-.011-2.73-.011H26.993a4.6,4.6,0,0,0,2.229,3.862,5.214,5.214,0,0,0,5.676-.075A4.544,4.544,0,0,0,37,12768Zm-2.059,1.633a3.038,3.038,0,0,1-5.078.011c-.139-.215-.213-.416.032-.576s.384-.011.523.191a2.353,2.353,0,0,0,3.968,0c.139-.191.278-.342.512-.191C34.748,12769.22,34.674,12769.433,34.535,12769.637Zm3.083-6.295H26.534c-.416,0-.533.086-.533.416-.011,1.057,0,2.113,0,3.169,0,.268.117.416.394.416h4.289a1.364,1.364,0,0,1,2.624,0h4.3a.347.347,0,0,0,.384-.395v-3.232A.343.343,0,0,0,37.618,12763.342Zm-9.633,3.329a6.352,6.352,0,0,1-1.013-.021.42.42,0,0,1-.289-.319c-.032-.545-.021-1.078-.021-1.644h.662V12766h.661Zm1.333-.021h-.64v-.618h.64Zm5.985-2.006h-.629v-.607H35.3Zm2.027,1.345h-.662v-1.3h-.65v-.673a7.286,7.286,0,0,1,.97.012c.129.021.321.2.321.319C37.351,12764.889,37.33,12765.433,37.33,12765.988Zm-.2-4.972a1.429,1.429,0,0,0-1.643-1.333c.022.117.064.234.075.353.043.309.075.607.1.917a.313.313,0,0,1-.32.384c-.235,0-.331-.15-.341-.374v-.17a2.527,2.527,0,0,0-2.2-2.646,6.993,6.993,0,0,0-4.832.735.483.483,0,0,1-.63-.032c-.224-.181-.469-.352-.747-.555-.085.576-.16,1.089-.234,1.6-.086.479-.267.554-.694.3-.32-.193-.64-.374-1.013-.609.011.224.021.4.043.544a3.315,3.315,0,0,0,1.717,2.368,1.285,1.285,0,0,0,.629.171c3.222.011,6.433,0,9.655,0h.448C37.138,12762.094,37.181,12761.55,37.127,12761.017Zm4.587,14.136c-1.461-.459-2.912-.929-4.363-1.4-.661-.213-1.333-.416-2.016-.63,0,.491-.011.929,0,1.377a.6.6,0,0,1-.277.554,4.762,4.762,0,0,1-2.529.918,5.157,5.157,0,0,1-3.563-.9.656.656,0,0,1-.309-.619c.021-.427.011-.864.011-1.312a1.12,1.12,0,0,0-.15.021q-3.168,1.008-6.326,2.027a.381.381,0,0,0-.181.288c-.021.565-.011,1.131-.011,1.7v.821H41.992c0-.843-.011-1.654.01-2.454A.346.346,0,0,0,41.714,12775.152ZM26.161,12768a1.032,1.032,0,0,1-.832-1.131v-2.517c-.587-.032-.662.043-.662.575,0,.789-.01,1.579,0,2.368a.981.981,0,0,0,.918,1.035c.245.021.49,0,.736,0,.021-.021.042-.054.064-.075C26.31,12768.164,26.257,12768.036,26.161,12768Zm8.5,4.683a6.043,6.043,0,0,1-5.334,0c0,.619,0,1.163.011,1.719a.371.371,0,0,0,.181.245,4.8,4.8,0,0,0,4.95,0,.371.371,0,0,0,.181-.245C34.674,12773.85,34.663,12773.306,34.663,12772.687Zm1.931-4.683c-1.142,0-2.283,0-3.425.011-.3,0-.48-.085-.522-.416a.654.654,0,0,0-1.3,0c-.042.32-.2.416-.491.416-.917-.011-1.824-.011-2.73-.011H26.993a4.6,4.6,0,0,0,2.229,3.862,5.214,5.214,0,0,0,5.676-.075A4.544,4.544,0,0,0,37,12768Zm-2.059,1.633a3.038,3.038,0,0,1-5.078.011c-.139-.215-.213-.416.032-.576s.384-.011.523.191a2.353,2.353,0,0,0,3.968,0c.139-.191.278-.342.512-.191C34.748,12769.22,34.674,12769.433,34.535,12769.637Zm2.592-8.62a1.429,1.429,0,0,0-1.643-1.333c.022.117.064.234.075.353.043.309.075.607.1.917a.313.313,0,0,1-.32.384c-.235,0-.331-.15-.341-.374v-.17a2.527,2.527,0,0,0-2.2-2.646,6.993,6.993,0,0,0-4.832.735.483.483,0,0,1-.63-.032c-.224-.181-.469-.352-.747-.555-.085.576-.16,1.089-.234,1.6-.086.479-.267.554-.694.3-.32-.193-.64-.374-1.013-.609.011.224.021.4.043.544a3.315,3.315,0,0,0,1.717,2.368,1.285,1.285,0,0,0,.629.171c3.222.011,6.433,0,9.655,0h.448C37.138,12762.094,37.181,12761.55,37.127,12761.017Zm.491,2.325H26.534c-.416,0-.533.086-.533.416-.011,1.057,0,2.113,0,3.169,0,.268.117.416.394.416h4.289a1.364,1.364,0,0,1,2.624,0h4.3a.347.347,0,0,0,.384-.395v-3.232A.343.343,0,0,0,37.618,12763.342Zm-9.633,3.329a6.352,6.352,0,0,1-1.013-.021.42.42,0,0,1-.289-.319c-.032-.545-.021-1.078-.021-1.644h.662V12766h.661Zm1.333-.021h-.64v-.618h.64Zm5.985-2.006h-.629v-.607H35.3Zm2.027,1.345h-.662v-1.3h-.65v-.673a7.286,7.286,0,0,1,.97.012c.129.021.321.2.321.319C37.351,12764.889,37.33,12765.433,37.33,12765.988Zm1.333-1.6v2.561a.967.967,0,0,1-.768,1.023c-.224.055-.277.14-.213.363.181,0,.331.01.491,0a1.018,1.018,0,0,0,1.152-1.163v-2.271C39.325,12764.388,39.207,12764.292,38.663,12764.388Zm3.051,10.765c-1.461-.459-2.912-.929-4.363-1.4-.661-.213-1.333-.416-2.016-.63,0,.491-.011.929,0,1.377a.6.6,0,0,1-.277.554,4.762,4.762,0,0,1-2.529.918,5.157,5.157,0,0,1-3.563-.9.656.656,0,0,1-.309-.619c.021-.427.011-.864.011-1.312a1.12,1.12,0,0,0-.15.021q-3.168,1.008-6.326,2.027a.381.381,0,0,0-.181.288c-.021.565-.011,1.131-.011,1.7v.821H41.992c0-.843-.011-1.654.01-2.454A.346.346,0,0,0,41.714,12775.152Z" fill="#fff"/>
    </g>
  </g>
</svg>
