<svg xmlns="http://www.w3.org/2000/svg" width="24.032" height="20" viewBox="0 0 24.032 20">
  <g id="nav-icon-3" transform="translate(-19.984 -13892)">
    <path id="Path_847" data-name="Path 847" d="M28,13895c0-.5,0-.953,0-1.4a1.5,1.5,0,0,1,1.592-1.6q2.4-.012,4.8,0a1.5,1.5,0,0,1,1.592,1.6c.006.447,0,.895,0,1.381.165.007.3.018.43.018,1.626,0,3.253.038,4.877-.009a2.573,2.573,0,0,1,2.72,2.71c-.036,3.863-.012,7.728-.013,11.592a2.479,2.479,0,0,1-2.7,2.7q-9.3,0-18.61,0a2.48,2.48,0,0,1-2.7-2.7q0-5.8,0-11.592a2.48,2.48,0,0,1,2.708-2.7q2.419,0,4.84,0Zm-7.022,5.24v.436q0,4.277,0,8.555a1.579,1.579,0,0,0,1.784,1.771H41.188a1.592,1.592,0,0,0,1.822-1.809q0-4.314,0-8.63v-.433c-.143.037-.252.058-.356.093q-3.411,1.185-6.821,2.374l-3.462,1.207a1.1,1.1,0,0,1-.836.121c-2.441-.877-4.894-1.723-7.344-2.576C23.145,13900.99,22.1,13900.631,20.978,13900.245ZM32.033,13896q-4.709,0-9.416,0a1.542,1.542,0,0,0-1.637,1.613c-.008.362.016.727-.007,1.088a.446.446,0,0,0,.364.533c3.46,1.211,6.912,2.442,10.37,3.659a.871.871,0,0,0,.537.013c3.506-1.23,7.007-2.476,10.512-3.709a.33.33,0,0,0,.258-.382c-.014-.362,0-.726,0-1.089a1.569,1.569,0,0,0-1.75-1.728Zm2.957-1.014c0-.529.014-1.038-.005-1.546a.436.436,0,0,0-.472-.437q-2.511-.009-5.023,0a.426.426,0,0,0-.476.388c-.029.529-.009,1.062-.009,1.6Z" fill="#fff"/>
  </g>
</svg>
