<svg xmlns="http://www.w3.org/2000/svg" width="20.01" height="20" viewBox="0 0 20.01 20">
  <g id="nav-icon-1" transform="translate(-21.995 -13768)" fill="none" stroke-miterlimit="10">
    <path d="M31.986,13788H24.573c-1.88,0-2.577-.69-2.577-2.546q0-3.485,0-6.969a4.12,4.12,0,0,1,1.357-3.157q3.573-3.316,7.139-6.645a2.01,2.01,0,0,1,3.029.014q3.544,3.3,7.094,6.6a4.181,4.181,0,0,1,1.391,3.209c0,2.365,0,4.731,0,7.1a2.106,2.106,0,0,1-2.415,2.4C37.054,13788,34.52,13788,31.986,13788Z" stroke="none"/>
    <path d="M 36.45830154418945 13787 C 37.67065811157227 13787 38.66429138183594 13786.9990234375 39.58562088012695 13786.99609375 C 40.67118072509766 13786.9931640625 41.00233840942383 13786.6669921875 41.00299835205078 13785.59765625 C 41.00450134277344 13784.416015625 41.00424957275391 13783.2333984375 41.00400161743164 13782.0517578125 C 41.00374984741211 13780.8681640625 41.00349807739258 13779.6845703125 41.00500106811523 13778.501953125 C 41.00579833984375 13777.4912109375 40.66558074951172 13776.705078125 39.9344596862793 13776.02734375 C 37.938720703125 13774.1787109375 35.91526794433594 13772.2939453125 33.95843887329102 13770.470703125 L 32.83856964111328 13769.4267578125 C 32.53408813476562 13769.1435546875 32.25024795532227 13769 31.99490928649902 13769 C 31.74452018737793 13769 31.467529296875 13769.1396484375 31.17177963256836 13769.4140625 C 30.10519981384277 13770.4052734375 29.03962898254395 13771.3984375 27.97406959533691 13772.390625 C 26.6828498840332 13773.59375 25.34766960144043 13774.837890625 24.03215026855469 13776.0595703125 C 23.33424949645996 13776.70703125 22.99499893188477 13777.5 22.99499893188477 13778.4833984375 C 22.9955005645752 13779.64453125 22.9955005645752 13780.8056640625 22.9955005645752 13781.9677734375 C 22.9955005645752 13783.12890625 22.9955005645752 13784.2900390625 22.99600028991699 13785.4521484375 C 22.99600028991699 13786.0986328125 23.09235954284668 13786.521484375 23.28240013122559 13786.708984375 C 23.47597885131836 13786.900390625 23.91036987304688 13786.998046875 24.57338905334473 13786.998046875 C 25.39702987670898 13786.998046875 26.22035980224609 13786.998046875 27.04400062561035 13786.998046875 L 31.98600006103516 13786.998046875 C 33.476806640625 13786.9970703125 34.96752548217773 13786.9990234375 36.45830154418945 13787 M 36.45830535888672 13788 C 33.32027435302734 13788 30.18202972412109 13787.998046875 27.04400062561035 13787.998046875 C 26.2202320098877 13787.998046875 25.39676666259766 13787.998046875 24.57299995422363 13787.998046875 C 22.6929988861084 13787.9970703125 21.99600028991699 13787.3076171875 21.99600028991699 13785.4521484375 C 21.99499893188477 13783.12890625 21.99600028991699 13780.8056640625 21.99499893188477 13778.4833984375 C 21.99499893188477 13777.236328125 22.43099975585938 13776.1806640625 23.35199928283691 13775.326171875 C 25.73399925231934 13773.115234375 28.11000061035156 13770.89453125 30.49099922180176 13768.681640625 C 31.47799873352051 13767.763671875 32.53300094604492 13767.775390625 33.52000045776367 13768.6953125 C 35.88299942016602 13770.896484375 38.24499893188477 13773.099609375 40.61399841308594 13775.2939453125 C 41.55300140380859 13776.1640625 42.00600051879883 13777.2314453125 42.00500106811523 13778.5029296875 C 42.00199890136719 13780.8681640625 42.00600051879883 13783.234375 42.00299835205078 13785.5986328125 C 42.00199890136719 13787.2216796875 41.23199844360352 13787.9921875 39.5880012512207 13787.99609375 C 38.54479598999023 13787.9990234375 37.50150680541992 13788 36.45830535888672 13788 Z" stroke="none" fill="#fff"/>
  </g>
</svg>
