<svg xmlns="http://www.w3.org/2000/svg" width="47.992" height="48" viewBox="0 0 47.992 48">
  <g id="question-icon" transform="translate(-6884.004 -5924)">
    <path id="Path_361" data-name="Path 361" d="M6907.99,5924A24,24,0,1,1,6884,5947.953,23.989,23.989,0,0,1,6907.99,5924Zm-.227,11.766-.053.193a7.071,7.071,0,0,0-4.916,1.657,3.571,3.571,0,0,0-1.286,2.378,1.723,1.723,0,0,0,1.108,1.844,1.448,1.448,0,0,0,1.995-.654,3.292,3.292,0,0,1,3.443-1.6,2.341,2.341,0,0,1,2.206,1.283,2.29,2.29,0,0,1-.517,2.565,11.531,11.531,0,0,1-1.621,1.436,6.066,6.066,0,0,0-2.53,5.955c.11,1.028.606,1.393,1.839,1.351,1.165-.04,1.713-.45,1.671-1.447a4.647,4.647,0,0,1,1.957-3.975,12.019,12.019,0,0,0,2.632-3.017,4.7,4.7,0,0,0-2.288-6.979A24.808,24.808,0,0,0,6907.763,5935.766Zm1.929,21.069a2.4,2.4,0,0,0-2.379-2.459,2.428,2.428,0,0,0-.069,4.855A2.418,2.418,0,0,0,6909.692,5956.835Z" fill="#f7a91d"/>
    <path id="Path_362" data-name="Path 362" d="M6907.763,5935.766a24.808,24.808,0,0,1,3.64,1,4.7,4.7,0,0,1,2.288,6.979,12.019,12.019,0,0,1-2.632,3.017,4.647,4.647,0,0,0-1.957,3.975c.042,1-.506,1.407-1.671,1.447-1.233.042-1.729-.323-1.839-1.351a6.066,6.066,0,0,1,2.53-5.955,11.531,11.531,0,0,0,1.621-1.436,2.29,2.29,0,0,0,.517-2.565,2.341,2.341,0,0,0-2.206-1.283,3.292,3.292,0,0,0-3.443,1.6,1.448,1.448,0,0,1-1.995.654,1.723,1.723,0,0,1-1.108-1.844,3.571,3.571,0,0,1,1.286-2.378,7.071,7.071,0,0,1,4.916-1.657Z" fill="#fff"/>
    <path id="Path_363" data-name="Path 363" d="M6909.692,5956.835a2.418,2.418,0,0,1-2.448,2.4,2.428,2.428,0,0,1,.069-4.855A2.4,2.4,0,0,1,6909.692,5956.835Z" fill="#fff"/>
  </g>
</svg>
