<svg xmlns="http://www.w3.org/2000/svg" width="25.034" height="25.004" viewBox="0 0 25.034 25.004">
  <g id="rest_api" transform="translate(0 0)">
    <path id="Path_1010" data-name="Path 1010" d="M227.934,192.985c-1.677.837-3.27,1.635-4.868,2.421a.463.463,0,0,1-.358,0c-1.612-.787-3.219-1.585-4.894-2.413.154-.088.256-.153.362-.207,1.388-.713,2.782-1.417,4.163-2.143a1.029,1.029,0,0,1,1.1,0c.323.193.666.35,1.049.548l2.043-3.719c-.337-.17-.644-.329-.954-.481a.777.777,0,0,1-.492-.7c-.011-1.626-.005-3.252-.005-4.925a3.185,3.185,0,0,1,.314.115c1.28.638,2.562,1.273,3.834,1.926a.518.518,0,0,1,.261.357c.016,1.681.01,3.362.009,5.043a1.033,1.033,0,0,1-.034.16l-1.618-.838-2.048,3.737Z" transform="translate(-217.709 -177.191)"/>
    <path id="Path_1011" data-name="Path 1011" d="M387.257,193.034l2.092-1.1L387.3,188.2l-1.635.846c-.01-.137-.021-.223-.021-.309,0-1.616-.006-3.232.009-4.848a.514.514,0,0,1,.214-.386c1.318-.678,2.647-1.336,3.973-2a1.513,1.513,0,0,1,.209-.064c.008.157.02.282.02.406,0,1.407-.01,2.815.007,4.222a1.013,1.013,0,0,1-.667,1.071c-.261.107-.507.25-.8.394l2.039,3.72a10.287,10.287,0,0,1,1.186-.588,1.162,1.162,0,0,1,.806-.02c1.519.743,3.016,1.529,4.519,2.3a.891.891,0,0,1,.137.121c-1.141.567-2.257,1.122-3.374,1.675-.478.237-.953.48-1.439.7a.569.569,0,0,1-.426.016c-1.564-.768-3.121-1.551-4.679-2.331A1.131,1.131,0,0,1,387.257,193.034Z" transform="translate(-372.414 -177.259)"/>
    <path id="Path_1012" data-name="Path 1012" d="M305.35,357.767c-1.131-.563-2.2-1.154-3.321-1.636a1.449,1.449,0,0,1-1.045-1.706,7,7,0,0,0,.007-.991h-4.378c0,.478-.016.967,0,1.455a.983.983,0,0,1-.623,1.018c-1.238.6-2.465,1.224-3.746,1.863-.014-.151-.033-.258-.033-.365,0-1.564-.007-3.127.008-4.691a.571.571,0,0,1,.205-.436c1.329-.685,2.671-1.345,4.01-2.01a1.562,1.562,0,0,1,.168-.058V351.9h4.373v-1.722c.3.146.537.263.777.383,1.117.558,2.236,1.111,3.344,1.685a.558.558,0,0,1,.277.387c.018,1.655.012,3.309.01,4.964A1.1,1.1,0,0,1,305.35,357.767Z" transform="translate(-286.29 -332.794)"/>
    <path id="Path_1013" data-name="Path 1013" d="M322.576,130.5c-1.671.834-3.274,1.637-4.881,2.429a.415.415,0,0,1-.321-.012c-1.595-.789-3.185-1.588-4.82-2.407a1.978,1.978,0,0,1,.226-.17c1.413-.749,2.831-1.488,4.239-2.247a1.021,1.021,0,0,1,1.064,0c1.408.759,2.826,1.5,4.239,2.247C322.389,130.372,322.45,130.417,322.576,130.5Z" transform="translate(-305.039 -127.941)"/>
    <path id="Path_1014" data-name="Path 1014" d="M220.873,358.143l-2.436-1.2q-.734-.363-1.47-.724a.78.78,0,0,1-.494-.732q0-2.4,0-4.806c0-.021.018-.043.043-.1l2.3,1.134c.618.3,1.24.6,1.849.922a.489.489,0,0,1,.251.328c.015,1.693.009,3.386.006,5.08C220.925,358.065,220.9,358.086,220.873,358.143Z" transform="translate(-216.473 -333.167)"/>
    <path id="Path_1015" data-name="Path 1015" d="M479.443,357.947c0-1.779,0-3.484.007-5.19a.4.4,0,0,1,.17-.3c1.4-.707,2.811-1.4,4.267-2.12.006.141.014.238.014.334,0,1.472-.009,2.944.006,4.415a.944.944,0,0,1-.59.955C482.045,356.657,480.779,357.288,479.443,357.947Z" transform="translate(-458.875 -332.943)"/>
  </g>
</svg>
