<svg xmlns="http://www.w3.org/2000/svg" xmlns:xlink="http://www.w3.org/1999/xlink" width="40" height="53.814" viewBox="0 0 40 53.814">
  <defs>
    <linearGradient id="linear-gradient" y1="0.5" x2="1" y2="0.5" gradientUnits="objectBoundingBox">
      <stop offset="0" stop-color="#00ffdb"/>
      <stop offset="1" stop-color="#2a73ff"/>
    </linearGradient>
  </defs>
  <path id="site-logo" d="M47.239,5580.2c-.265.224-.265.224-.554.464a2.167,2.167,0,0,0-.305-.007,1.891,1.891,0,0,0-.326-.035,5.06,5.06,0,0,0,.239-.507c.122-.269.122-.269.241-.542l.595-.48h0l.587-.5a1.569,1.569,0,0,1,.309.075h0a1.266,1.266,0,0,1,.288.051c-.13.261-.13.261-.265.518-.12.23-.12.23-.265.483l-.544.476h0m-.83,1.138c.412-.346.412-.346.819-.7h0c.4-.357.4-.357.776-.7.139-.13.139-.13.276-.262l.161-.24c.223-.354.223-.354.433-.716s.2-.366.41-.766c.073-.14.073-.14.145-.284l-.132-.028c-.2-.044-.2-.044-.418-.1h0a2.32,2.32,0,0,1-.492-.132l-.176-.067c-.16.139-.16.139-.32.28-.443.368-.443.368-.911.752h0c-.47.375-.47.375-.943.743l-.334.253c-.055.155-.055.155-.114.312-.168.435-.168.435-.351.864-.17.4-.17.4-.354.8a2.376,2.376,0,0,1-.136.269.693.693,0,0,1,.207.01,2.879,2.879,0,0,0,.537.011,4.239,4.239,0,0,0,.475-.03c.074-.009.074-.009.148-.021C46.262,5581.458,46.262,5581.458,46.409,5581.338ZM28.5,5573.574c-.431-.215-.431-.215-.848-.437,0-.459,0-.459.011-.928s0-.469.017-.942c.432-.239.432-.239.868-.482l.884-.493c.435.228.435.228.857.458h0c.425.227.425.227.852.449-.019.471-.019.471-.035.938s-.015.46-.039.922c-.432.238-.432.238-.853.474v0c-.444.239-.444.239-.876.475C28.927,5573.791,28.927,5573.791,28.5,5573.574Zm-2.249.783c.663.335.663.335,1.3.667s.651.325,1.294.643c.21.112.21.112.44.218.218-.118.218-.118.452-.241.658-.353.658-.353,1.32-.713v0l1.31-.727.468-.262c0-.233,0-.233.022-.476.031-.692.031-.692.066-1.4s.034-.716.065-1.437c0-.249,0-.249.013-.5l-.452-.238c-.642-.351-.642-.351-1.3-.7h0c-.651-.363-.651-.363-1.32-.723-.231-.127-.231-.127-.456-.256l-.483.273c-.673.381-.673.381-1.359.763s-.679.38-1.36.753c-.234.132-.234.132-.472.262,0,.254,0,.254,0,.51-.007.729-.007.729,0,1.448s0,.711,0,1.412l-.013.483Zm1.413-30.721c-.011-.463-.011-.463-.011-.927.417-.221.417-.221.848-.436s.429-.218.839-.438c.432.237.432.237.876.477v0l.854.474c.024.462.024.462.039.92s.016.469.035.939c-.428.22-.428.22-.853.449h0c-.424.229-.424.229-.857.458-.444-.249-.444-.249-.884-.493s-.436-.245-.868-.483C27.665,5544.105,27.665,5544.105,27.661,5543.635Zm-1.87-1.424c0,.7,0,.7,0,1.412s0,.719,0,1.449c0,.254,0,.254,0,.51.238.13.238.13.472.262.679.375.679.375,1.36.753s.685.382,1.368.768l.472.268c.226-.129.226-.129.457-.257.669-.36.669-.36,1.318-.722l.012,0,1.29-.705c.226-.122.226-.122.453-.24-.011-.255-.011-.255-.013-.5-.031-.722-.031-.722-.065-1.437s-.035-.7-.066-1.4c-.017-.241-.017-.241-.023-.476-.233-.13-.233-.13-.467-.263-.642-.357-.642-.357-1.31-.724h0c-.663-.358-.663-.358-1.32-.71-.235-.124-.235-.124-.452-.242-.23.108-.23.108-.441.22l-1.293.642c-.643.334-.643.334-1.3.667-.237.117-.237.117-.471.241Zm20.611-7c.144-.018.144-.018.283-.027.288.24.288.24.553.464.284.246.284.246.545.476.145.25.145.25.285.505.114.235.114.235.245.494a6.525,6.525,0,0,0-.6.125l-.587-.493-.6-.483c-.117-.271-.117-.271-.239-.54-.106-.246-.106-.246-.239-.51C46.23,5535.212,46.23,5535.212,46.4,5535.21Zm-.436-.963a4.239,4.239,0,0,0-.475-.03c-.252.009-.252.009-.537.011a.8.8,0,0,1-.209.012,1.754,1.754,0,0,1,.136.27c.186.394.186.394.355.792.183.431.183.431.35.867.059.154.059.154.116.312.167.125.167.125.334.252.474.369.474.369.943.745s.468.383.911.751c.161.138.161.138.322.28.087-.036.087-.036.176-.071a4.3,4.3,0,0,0,.492-.131c.217-.058.217-.058.418-.1a1.208,1.208,0,0,1,.131-.027l-.144-.287c-.21-.4-.21-.4-.41-.765s-.21-.361-.433-.716c-.09-.132-.09-.132-.161-.239l-.276-.263c-.374-.343-.374-.343-.776-.7s-.408-.352-.819-.7c-.145-.123-.145-.123-.295-.242C46.04,5534.256,46.04,5534.256,45.966,5534.247Zm2.446,7.7c.382-.193.382-.193.745-.371.5.437.5.437,1,.913v0c.468.44.468.44.946.917.151.627.151.627.3,1.279.149.678.149.678.287,1.354a6.213,6.213,0,0,1-.689.461v0c-.374.254-.374.254-.757.544-.529-.478-.529-.478-1.064-.938v0c-.539-.444-.539-.444-1.107-.917-.113-.724-.113-.724-.242-1.453-.118-.69-.118-.69-.256-1.384.418-.223.418-.223.818-.431Zm1.127,12.528c.689-.533.689-.533,1.337-1.059.679.612.679.612,1.322,1.2h0c.6.569.6.569,1.172,1.14.027,1.072.027,1.072.035,2.179-.008,1.072-.008,1.072-.035,2.144-.568.569-.568.569-1.172,1.14h0c-.643.59-.643.59-1.321,1.2-.65-.527-.65-.527-1.339-1.061h0l-1.483-1.091c.02-1.173.02-1.173.027-2.341-.007-1.195-.007-1.195-.027-2.365l1.483-1.094Zm-12.485-4.646c-.034-.875-.034-.875-.066-1.735.7-.4.7-.4,1.4-.792.692-.372.692-.372,1.368-.744l1.425.92h0c.7.468.7.468,1.4.934.052.835.052.835.1,1.687s.042.85.083,1.712l-1.322.805h0c-.682.411-.682.411-1.375.839-.729-.47-.729-.47-1.464-.931s-.743-.467-1.488-.925C37.086,5550.719,37.086,5550.719,37.055,5549.831Zm1.332,18.71-1.4-.79c.031-.862.031-.862.065-1.737s.031-.887.055-1.771c.747-.457.747-.457,1.489-.928s.735-.46,1.464-.93c.692.43.692.43,1.374.839l0,0c.669.406.669.406,1.317.821-.036.846-.036.846-.077,1.694s-.052.854-.1,1.689l-1.4.934v0c-.706.458-.706.458-1.425.919C39.078,5568.915,39.078,5568.915,38.387,5568.542Zm11.773,4.814c-.5.476-.5.476-1,.913-.363-.176-.363-.176-.745-.37l-.016.021c-.4-.209-.4-.209-.819-.433.139-.691.139-.691.257-1.383.129-.73.129-.73.242-1.454.566-.471.566-.471,1.106-.913.535-.461.535-.461,1.066-.937.386.288.386.288.759.545a6.743,6.743,0,0,1,.689.464c-.136.674-.136.674-.287,1.35-.151.652-.151.652-.3,1.279-.476.478-.476.478-.946.917Zm6.448-9.891c-.1.565-.1.565-.211,1.163-.124.4-.124.4-.266.787-.167.417-.167.417-.354.83-.079-.189-.079-.189-.176-.409h0c-.129-.193-.129-.193-.274-.424.1-.646.1-.646.2-1.322s.083-.677.16-1.353c.235-.373.235-.373.457-.782h0c.2-.385.2-.385.374-.745a4.929,4.929,0,0,1,.182.531,4.562,4.562,0,0,1,.086.491C56.7,5562.866,56.7,5562.866,56.608,5563.465Zm-.478-13.035c.143.395.143.395.266.79.114.6.114.6.211,1.162.09.6.09.6.175,1.231a4.69,4.69,0,0,1-.086.493,4.928,4.928,0,0,1-.182.529c-.174-.36-.174-.36-.374-.746h0a9,9,0,0,0-.457-.781c-.077-.676-.077-.676-.16-1.353s-.1-.675-.2-1.32c.145-.23.145-.23.274-.425h0c.1-.221.1-.221.176-.407C55.964,5550.013,55.964,5550.013,56.13,5550.43ZM34.9,5532.522c.132-.19.132-.19.264-.377.338.045.338.045.7.1.34.052.34.052.683.109.2.228.2.228.426.471s.221.244.439.489l-.254.387v0c-.129.2-.129.2-.26.405-.334-.041-.334-.041-.689-.089-.378-.057-.378-.057-.729-.1-.207-.254-.207-.254-.443-.516v0c-.214-.251-.214-.251-.432-.5A3.364,3.364,0,0,0,34.9,5532.522Zm4.9,6.652h0c.214-.392.214-.392.42-.779.515.066.515.066,1.053.163.5.072.5.072,1,.156.336.472.336.472.665.94s.32.472.652.959c-.172.4-.172.4-.358.806s-.2.408-.389.837l-1.055-.137c-.546-.072-.546-.072-1.088-.131-.327-.5-.327-.5-.662-1v0c-.343-.5-.343-.5-.678-.992C39.6,5539.589,39.6,5539.589,39.807,5539.175Zm-1.027-1.671c-.222.378-.222.378-.433.779h0c-.305.581-.305.581-.646,1.164-.093.179-.093.179-.187.355.148.209.148.209.277.406.475.7.475.7.947,1.407h0c.47.715.47.715.948,1.454.139.214.139.214.274.43a3.905,3.905,0,0,1,.464.043l1.559.162,1.5.177a3.985,3.985,0,0,1,.426.057c.083-.179.083-.179.165-.359.257-.621.257-.621.517-1.2.239-.583.239-.583.47-1.14a1.756,1.756,0,0,0,.113-.335c-.114-.181-.114-.181-.248-.378l-.905-1.324c-.452-.642-.452-.642-.918-1.282-.149-.2-.149-.2-.281-.376-.186-.03-.186-.03-.393-.075-.706-.145-.706-.145-1.409-.269-.518-.091-.518-.091-1.032-.171-.831-1.074-.831-1.074-1.653-2.1l.241-.418h0c.188-.329.188-.329.37-.649l.136-.237c-.137-.158-.137-.158-.277-.311-.336-.387-.336-.387-.709-.778-.354-.375-.354-.375-.693-.736-.155-.145-.155-.145-.284-.282l-.409-.074c-.552-.1-.552-.1-1.076-.185l-1.121-.176c-.2-.026-.2-.026-.431-.059a.863.863,0,0,0-.161.222,4.841,4.841,0,0,0-.452.589c-.241.313-.241.313-.483.639-.093.125-.093.125-.187.259.118.147.118.147.261.3.358.413.358.413.7.829v0l.724.873c.122.163.122.163.264.339l.465.049,1.184.135c.371.05.371.05.724.094C37.949,5536.406,37.949,5536.406,38.781,5537.5Zm-19.034,21.181-.435-.762c.217-.375.217-.375.436-.761h0c.219-.385.219-.385.437-.765l.879-.006v.006c.44,0,.44,0,.883,0,.219.383.219.383.439.762s.221.384.443.767c-.222.38-.222.38-.443.765v0c-.218.382-.218.382-.439.76-.44,0-.44,0-.884,0l-.877,0-.437-.759Zm10.4.405c-.334-.58-.334-.58-.669-1.165.335-.59.335-.59.669-1.171v-.005l.661-1.158c.666,0,.666,0,1.328,0l1.32.009.657,1.158h0c.327.581.327.581.65,1.167l-.65,1.157h0c-.328.582-.328.582-.657,1.156l-1.318.01c-.663,0-.663,0-1.328,0-.331-.577-.331-.577-.662-1.16Zm-2.333-.2c.336.588.336.588.67,1.17l0,0c.471.824.471.824.939,1.64.139.242.139.242.278.48h.545l1.871-.012c.93-.016.93-.016,1.849-.02.265,0,.265,0,.534-.017.133-.229.133-.229.27-.474.465-.818.465-.818.924-1.63h0c.455-.809.455-.809.905-1.628.13-.237.13-.237.261-.469-.13-.244-.13-.244-.261-.48-.452-.819-.452-.819-.907-1.629h0l-.924-1.63-.27-.476c-.27-.009-.27-.009-.53-.006-.923-.012-.923-.012-1.85-.02s-.935-.012-1.874-.02c-.274,0-.274,0-.546,0-.14.24-.14.24-.277.481-.467.82-.467.82-.939,1.639h0l-.671,1.166c-1.659,0-1.659,0-3.318,0-.219-.381-.219-.381-.44-.761-.361-.623-.361-.623-.72-1.249-.141-.238-.141-.238-.278-.484-.277,0-.277,0-.554,0l-1.433.006v0l-1.426.011-.548.007-.277.478-.708,1.237h0c-.355.623-.355.623-.7,1.243-.136.237-.136.237-.27.474.135.229.135.229.27.476l.7,1.234v.009l.712,1.243c.136.239.136.239.277.48.272,0,.272,0,.548.007.71,0,.71,0,1.422,0s.718.007,1.434.01h.554c.14-.243.14-.243.278-.486l.72-1.242h0l.441-.765Zm8.059,24.7c-.365.058-.365.058-.7.106-.132-.187-.132-.187-.264-.378a3.675,3.675,0,0,0-.292-.392c.218-.25.218-.25.432-.5h0c.235-.262.235-.262.443-.513.351-.043.351-.043.729-.1.355-.051.355-.051.689-.093.132.208.132.208.261.408s.128.2.254.389c-.218.247-.218.247-.439.49v0c-.225.243-.225.243-.428.47Zm5.41-6.307c-.538.094-.538.094-1.071.177-.187-.4-.187-.4-.4-.794h0c-.2-.417-.2-.417-.437-.821.335-.493.335-.493.679-1s.334-.5.661-1c.544-.06.544-.06,1.09-.129s.534-.072,1.055-.137c.191.426.191.426.389.834s.184.4.358.808c-.334.487-.334.487-.654.958h0c-.328.471-.328.471-.646.923C41.781,5577.216,41.781,5577.216,41.28,5577.289Zm-1.289,1.532c.514-.079.514-.079,1.031-.17.7-.123.7-.123,1.409-.268.207-.046.207-.046.393-.078.131-.179.131-.179.28-.376.465-.64.465-.64.919-1.282h0c.44-.642.44-.642.905-1.325l.248-.375a2.184,2.184,0,0,1-.113-.335c-.23-.559-.23-.559-.468-1.141-.261-.582-.261-.582-.518-1.206l-.165-.358a4.263,4.263,0,0,1-.425.056c-.739.086-.739.086-1.5.18s-.771.08-1.561.159a4.394,4.394,0,0,1-.464.046l-.273.43-.947,1.453c-.472.707-.472.707-.948,1.409-.147.208-.147.208-.277.4.094.177.094.177.187.354.339.583.339.583.644,1.164v0c.211.4.211.4.433.775-.831,1.1-.831,1.1-1.657,2.157l-.724.093-1.183.137c-.234.023-.234.023-.467.049-.141.174-.141.174-.264.338l-.722.873h0c-.344.419-.344.419-.7.829-.143.159-.143.159-.261.307l.188.259c.241.326.241.326.482.638a5.155,5.155,0,0,0,.453.589.847.847,0,0,0,.16.22l.431-.059c.546-.079.546-.079,1.121-.173.525-.083.525-.083,1.076-.185l.409-.076c.129-.135.129-.135.284-.282l.693-.735h0c.371-.393.371-.393.708-.778.14-.154.14-.154.277-.311l-.136-.238-.37-.647c-.12-.207-.12-.207-.239-.419C39.16,5579.9,39.16,5579.9,39.992,5578.821Zm13.9-6.977h0c-.2.4-.2.4-.4.795a2.835,2.835,0,0,1-.273.323c-.16.167-.16.167-.331.327.036-.235.036-.235.078-.5s.028-.269.062-.568c.217-.417.217-.417.445-.864.209-.421.209-.421.413-.842.18-.127.18-.127.351-.262s.157-.137.3-.282c-.055.285-.055.285-.122.569h0c-.063.248-.063.248-.14.5C54.085,5571.44,54.085,5571.44,53.89,5571.844Zm-.677-28.962a3.176,3.176,0,0,1,.273.325c.2.4.2.4.4.8h0c.2.4.2.4.383.807.077.246.077.246.14.5.067.282.067.282.122.569-.147-.146-.147-.146-.3-.284s-.171-.133-.351-.26c-.206-.423-.206-.423-.413-.844-.229-.448-.229-.448-.445-.862-.034-.3-.034-.3-.062-.569h0l-.078-.5C53.054,5542.715,53.054,5542.715,53.214,5542.882Zm1.411,2.611a31.907,31.907,0,0,0-1.781-3.571c.073.141.073.141.144.284-.129-.182-.129-.182-.269-.36-.217-.24-.217-.24-.452-.47a1.26,1.26,0,0,0-.167-.158c.023.1.023.1.042.2.051.339.051.339.094.716h0c.023.384.023.384.022.776a1.238,1.238,0,0,1,0,.248l.209.379c.334.624.334.624.647,1.227.316.636.316.636.623,1.279.079.168.079.168.171.365a.614.614,0,0,1,.172.1,5.9,5.9,0,0,1,.525.334,3.7,3.7,0,0,1,.406.322c.05.047.05.047.1.1-.023-.125-.023-.125-.047-.254-.075-.376-.075-.376-.184-.78-.118-.366-.118-.366-.254-.723Zm2.447,14.406q.061-.979.062-1.976t-.062-1.978c.013.242.015.288.024.585h0c0,.514,0,.514-.011,1.054-.007.161-.007.161-.015.358.008.16.008.16.015.318.013.542.013.542.011,1.053h0C57.087,5559.611,57.086,5559.658,57.072,5559.9Zm-.853,5.637a32.023,32.023,0,0,0,.638-3.4c.022-.184.023-.187.05-.4.019-.16.019-.16.039-.351.005-.062.005-.062.008-.128a3.273,3.273,0,0,0-.058-.675,7.7,7.7,0,0,0-.214-.749l-.071-.193a1.293,1.293,0,0,1-.1.214c-.238.485-.238.485-.51.962h0c-.234.379-.234.379-.488.752-.583-.731-.583-.731-1.289-1.534.027-1.044.027-1.044.038-2.091-.011-1.082-.011-1.082-.038-2.129.706-.8.706-.8,1.289-1.533.254.373.254.373.488.751h0c.272.476.272.476.51.961a1.293,1.293,0,0,1,.1.214c.036-.1.036-.1.071-.193a7.43,7.43,0,0,0,.214-.746,3.32,3.32,0,0,0,.058-.678c0-.064,0-.064-.008-.128-.02-.188-.02-.188-.039-.348-.023-.189-.023-.191-.05-.408a31.922,31.922,0,0,0-.638-3.393c-.113-.4-.113-.4-.238-.8-.2-.54-.2-.54-.429-1.07-.065-.146-.065-.146-.121-.259l-.04.079a3,3,0,0,1-.242.471h0a2.8,2.8,0,0,1-.4.542.344.344,0,0,1-.118.13c.039.214.039.214.075.425.129.85.129.85.248,1.729.083.7.083.7.156,1.394-.612.732-.612.732-1.351,1.5-.548-.587-.548-.587-1.134-1.177h0c-.622-.587-.622-.587-1.278-1.2-.161-1.823-.161-1.823-.371-3.619.381-.29.381-.29.748-.547h0c.433-.348.433-.348.838-.66l.178-.134c-.039-.208-.039-.208-.082-.413-.179-.863-.179-.863-.369-1.7-.211-.836-.211-.836-.435-1.642-.051-.18-.051-.18-.1-.36l-.257-.273c-.58-.605-.58-.605-1.173-1.19h0c-.623-.59-.623-.59-1.274-1.184-.157-.143-.157-.143-.3-.259-.1.042-.1.042-.209.083-.467.21-.467.21-.979.423h0c-.541.246-.541.246-1.11.517a1.393,1.393,0,0,1-.285.124c.043.2.043.2.083.41.179.922.179.922.326,1.833.144.946.144.946.284,1.92.036.236.036.236.061.453.175.129.175.129.363.282.761.6.761.6,1.493,1.2h0c.554.467.554.467,1.083.905.2,1.853.2,1.853.359,3.715-.669.491-.669.491-1.374,1h0c-.739.537-.739.537-1.515,1.075-1.456-1.06-1.456-1.06-2.995-2.159-.046-.855-.046-.855-.093-1.69-.069-1.079-.069-1.079-.148-2.146-.026-.253-.026-.253-.042-.491-.2-.134-.2-.134-.406-.286-.876-.6-.876-.6-1.766-1.2h0c-.913-.609-.913-.609-1.842-1.209-.209-.131-.209-.131-.417-.259-.2.1-.2.1-.394.207-.887.454-.887.454-1.769.945-.926.482-.926.482-1.85,1-.227.115-.227.115-.443.24.007.253.007.253.02.512.038,1.125.038,1.125.078,2.271s.035,1.156.059,2.318c0,.263,0,.263.009.532.233.14.233.14.467.287.99.6.99.6,1.966,1.2s.966.608,1.913,1.2c.218.143.218.143.432.275.213-.126.213-.126.422-.257.9-.568.9-.568,1.777-1.114h0c.659-.423.659-.423,1.308-.83,1.563,1.077,1.563,1.077,3.05,2.133.022,1.21.022,1.21.028,2.419s-.008,1.205-.028,2.393c-1.487,1.057-1.487,1.057-3.05,2.133-.648-.4-.648-.4-1.308-.827h0c-.88-.546-.88-.546-1.777-1.115-.21-.131-.21-.131-.421-.255-.215.131-.215.131-.433.272l-1.913,1.2c-.975.6-.975.6-1.964,1.2-.235.146-.235.146-.467.284-.007.271-.007.271-.011.535-.024,1.163-.024,1.163-.059,2.318s-.04,1.146-.078,2.271c-.013.259-.013.259-.02.512.217.125.217.125.444.24.924.512.924.512,1.849.994.883.493.883.493,1.769.944a3.3,3.3,0,0,1,.381.223c.222-.144.222-.144.432-.276.927-.6.927-.6,1.842-1.207v0c.891-.593.891-.593,1.766-1.2.209-.149.209-.149.406-.286.017-.236.017-.236.042-.489.079-1.068.079-1.068.148-2.144.047-.836.047-.836.093-1.694,1.534-1.075,1.534-1.075,2.995-2.159.776.542.776.542,1.515,1.077h0c.7.5.7.5,1.374,1-.161,1.89-.161,1.89-.359,3.715-.527.438-.527.438-1.08.908-.733.59-.733.59-1.495,1.193-.187.155-.187.155-.363.286-.024.216-.024.216-.061.451-.14.976-.14.976-.284,1.922-.161.932-.161.932-.324,1.832l-.083.411a1.16,1.16,0,0,1,.284.122c.57.271.57.271,1.11.516h0a8.457,8.457,0,0,0,.979.423l.209.085c.139-.118.139-.118.3-.259.652-.595.652-.595,1.274-1.183h0c.593-.586.593-.586,1.173-1.191.129-.137.129-.137.257-.274.054-.179.054-.179.1-.359.223-.806.223-.806.436-1.641.188-.837.188-.837.367-1.7.043-.208.043-.208.082-.415-.087-.063-.087-.063-.178-.132-.4-.312-.4-.312-.84-.663-.367-.257-.367-.257-.747-.544.2-1.772.2-1.772.371-3.621.658-.607.658-.607,1.278-1.2h0c.587-.589.587-.589,1.134-1.18.739.776.739.776,1.351,1.507-.073.7-.073.7-.156,1.392-.118.88-.118.88-.256,1.76-.028.183-.028.183-.067.394a.35.35,0,0,1,.118.13c.219.291.219.291.4.544h0a3.05,3.05,0,0,1,.242.472l.04.08c.057-.116.057-.116.121-.263.229-.527.229-.527.429-1.068C56.106,5565.937,56.106,5565.937,56.219,5565.536Zm-3.374,8.387a32.057,32.057,0,0,0,1.78-3.567h0l-.005-.006c.137-.358.137-.358.256-.72h0c.109-.4.109-.4.184-.783.024-.127.024-.127.047-.255l-.1.1a3.367,3.367,0,0,1-.406.319,5.222,5.222,0,0,1-.525.335.674.674,0,0,1-.172.1c-.091.2-.091.2-.171.363-.307.643-.307.643-.623,1.279-.312.6-.312.6-.647,1.229l-.209.377a1.249,1.249,0,0,1,0,.249c0,.392,0,.392-.022.777-.043.374-.043.374-.094.713-.019.1-.019.1-.042.2.077-.065.077-.065.151-.132.252-.256.252-.256.468-.5.14-.178.14-.178.269-.362C52.916,5573.782,52.916,5573.782,52.845,5573.922Z" transform="translate(-17.134 -5531.016)" fill="url(#linear-gradient)"/>
</svg>
