<svg xmlns="http://www.w3.org/2000/svg" xmlns:xlink="http://www.w3.org/1999/xlink" width="400" height="538.141" viewBox="0 0 400 538.141">
  <defs>
    <linearGradient id="linear-gradient" y1="0.5" x2="1" y2="0.5" gradientUnits="objectBoundingBox">
      <stop offset="0" stop-color="#00ffdb"/>
      <stop offset="1" stop-color="#2a73ff"/>
    </linearGradient>
  </defs>
  <path id="site-logo-xxl" d="M318.183,6022.859c-2.65,2.233-2.65,2.233-5.543,4.638a21.714,21.714,0,0,0-3.054-.065,19.2,19.2,0,0,0-3.256-.347,50.684,50.684,0,0,0,2.395-5.071c1.224-2.695,1.224-2.695,2.408-5.425,3.081-2.5,3.081-2.5,5.946-4.8h0c3.04-2.579,3.04-2.579,5.866-4.962a15.457,15.457,0,0,1,3.094.751h0a12.663,12.663,0,0,1,2.879.513c-1.3,2.608-1.3,2.608-2.65,5.179-1.2,2.305-1.2,2.305-2.65,4.833-2.61,2.275-2.61,2.275-5.435,4.76h0m-8.3,11.378c4.117-3.453,4.117-3.453,8.193-6.994h0c4.023-3.575,4.023-3.575,7.763-7.014,1.386-1.3,1.386-1.3,2.758-2.615.713-1.069.713-1.069,1.614-2.406,2.233-3.539,2.233-3.539,4.332-7.158,2-3.663,2-3.663,4.1-7.658.726-1.4.726-1.4,1.453-2.837-.646-.137-.646-.137-1.318-.282-2.018-.448-2.018-.448-4.184-1.047h0a23.054,23.054,0,0,1-4.924-1.323l-1.762-.671c-1.6,1.387-1.6,1.387-3.2,2.8-4.426,3.684-4.426,3.684-9.108,7.52h-.013c-4.7,3.75-4.7,3.75-9.431,7.434-1.668,1.257-1.668,1.257-3.337,2.528-.552,1.554-.552,1.554-1.143,3.121-1.682,4.35-1.682,4.35-3.511,8.64-1.7,4.024-1.7,4.024-3.538,7.961a24.64,24.64,0,0,1-1.359,2.694,6.947,6.947,0,0,1,2.072.094,29.215,29.215,0,0,0,5.368.108,43.712,43.712,0,0,0,4.749-.3c.74-.095.74-.095,1.48-.217C308.416,6035.443,308.416,6035.443,309.883,6034.237ZM130.776,5956.6c-4.305-2.145-4.305-2.145-8.476-4.365,0-4.594,0-4.594.108-9.275.04-4.694.04-4.694.175-9.419,4.319-2.391,4.319-2.391,8.677-4.826,4.4-2.448,4.4-2.448,8.839-4.925,4.346,2.274,4.346,2.274,8.57,4.579h.013c4.251,2.269,4.251,2.269,8.516,4.493-.188,4.711-.188,4.711-.35,9.377-.148,4.6-.148,4.6-.39,9.225-4.319,2.384-4.319,2.384-8.529,4.739v.021c-4.44,2.391-4.44,2.391-8.758,4.753C135.068,5958.763,135.068,5958.763,130.776,5956.6Zm-22.494,7.83c6.633,3.352,6.633,3.352,13.05,6.674,6.512,3.243,6.512,3.243,12.942,6.429,2.1,1.12,2.1,1.12,4.4,2.183,2.18-1.178,2.18-1.178,4.52-2.407,6.579-3.526,6.579-3.526,13.2-7.129v.029l13.1-7.267c2.341-1.308,2.341-1.308,4.682-2.624.04-2.332.04-2.332.215-4.759.309-6.919.309-6.919.659-13.957.336-7.159.336-7.159.646-14.368.04-2.485.04-2.485.135-5.042-2.274-1.192-2.274-1.192-4.52-2.384-6.417-3.51-6.417-3.51-13.023-7.006h0c-6.511-3.634-6.511-3.634-13.2-7.231-2.314-1.271-2.314-1.271-4.561-2.564-2.462,1.386-2.462,1.386-4.83,2.73-6.727,3.808-6.727,3.808-13.588,7.629-6.794,3.806-6.794,3.806-13.6,7.533-2.341,1.322-2.341,1.322-4.722,2.622,0,2.542,0,2.542-.013,5.1-.067,7.3-.067,7.3-.027,14.483,0,7.108,0,7.108-.04,14.123l-.135,4.824C105.914,5963.235,105.914,5963.235,108.282,5964.427Zm14.126-307.212c-.108-4.637-.108-4.637-.108-9.268,4.171-2.2,4.171-2.2,8.476-4.363,4.292-2.181,4.292-2.181,8.395-4.378,4.319,2.364,4.319,2.364,8.758,4.761l-.013.03c4.224,2.339,4.224,2.339,8.543,4.738.242,4.631.242,4.631.39,9.211.161,4.688.161,4.688.35,9.392-4.278,2.2-4.278,2.2-8.53,4.493h0c-4.238,2.29-4.238,2.29-8.57,4.58-4.44-2.493-4.44-2.493-8.839-4.927-4.359-2.442-4.359-2.442-8.677-4.833C122.448,5661.917,122.448,5661.917,122.408,5657.214Zm-18.7-14.246c.04,7.008.04,7.008.04,14.116-.04,7.2-.04,7.2.027,14.492.013,2.542.013,2.542.013,5.1,2.381,1.3,2.381,1.3,4.722,2.622,6.794,3.75,6.794,3.75,13.6,7.536,6.848,3.821,6.848,3.821,13.682,7.678,2.274,1.294,2.274,1.294,4.722,2.68,2.26-1.293,2.26-1.293,4.574-2.571,6.686-3.6,6.686-3.6,13.184-7.223l.121.042c6.485-3.547,6.485-3.547,12.9-7.05,2.26-1.22,2.26-1.22,4.534-2.4-.108-2.556-.108-2.556-.135-5.034-.309-7.217-.309-7.217-.646-14.361-.35-7.036-.35-7.036-.659-13.985-.175-2.413-.175-2.413-.229-4.761-2.327-1.3-2.327-1.3-4.668-2.623-6.417-3.576-6.417-3.576-13.1-7.238h0c-6.633-3.583-6.633-3.583-13.2-7.1-2.354-1.243-2.354-1.243-4.52-2.428-2.3,1.083-2.3,1.083-4.413,2.2-6.417,3.187-6.417,3.187-12.929,6.422-6.431,3.337-6.431,3.337-13.05,6.675-2.368,1.176-2.368,1.176-4.709,2.412Zm206.108-70c1.439-.181,1.439-.181,2.825-.268,2.879,2.4,2.879,2.4,5.529,4.638,2.839,2.463,2.839,2.463,5.449,4.76,1.453,2.5,1.453,2.5,2.852,5.057,1.144,2.348,1.144,2.348,2.449,4.941a15.664,15.664,0,0,1-2.879.527,14.608,14.608,0,0,1-3.094.723c-2.825-2.37-2.825-2.37-5.866-4.934-2.866-2.334-2.866-2.334-5.96-4.833-1.171-2.7-1.171-2.7-2.395-5.4-1.063-2.457-1.063-2.457-2.395-5.1C308.093,5572.985,308.093,5572.985,309.815,5572.964Zm-4.359-9.636a42.981,42.981,0,0,0-4.749-.3c-2.516.094-2.516.094-5.368.107a8.021,8.021,0,0,1-2.085.122,17.543,17.543,0,0,1,1.359,2.7c1.857,3.937,1.857,3.937,3.552,7.932,1.83,4.306,1.83,4.306,3.5,8.662.592,1.545.592,1.545,1.157,3.12,1.668,1.25,1.668,1.25,3.337,2.521,4.736,3.7,4.736,3.7,9.431,7.456,4.682,3.828,4.682,3.828,9.108,7.512,1.614,1.388,1.614,1.388,3.215,2.8.874-.362.874-.362,1.762-.7a42.845,42.845,0,0,0,4.924-1.322c2.166-.579,2.166-.579,4.184-1.026a12.591,12.591,0,0,1,1.3-.275l-1.439-2.866c-2.1-3.967-2.1-3.967-4.1-7.651-2.1-3.611-2.1-3.611-4.332-7.166-.9-1.315-.9-1.315-1.614-2.391l-2.758-2.629c-3.74-3.424-3.74-3.424-7.763-7.015-4.076-3.51-4.076-3.51-8.193-6.963-1.453-1.221-1.453-1.221-2.946-2.414C306.2,5563.422,306.2,5563.422,305.456,5563.329Zm24.458,77.019c3.821-1.936,3.821-1.936,7.453-3.712,4.978,4.37,4.978,4.37,10.023,9.13l.013-.022c4.682,4.4,4.682,4.4,9.458,9.175,1.507,6.27,1.507,6.27,3.014,12.786,1.493,6.776,1.493,6.776,2.866,13.53a62,62,0,0,1-6.888,4.615l-.013.029c-3.74,2.543-3.74,2.543-7.574,5.447-5.287-4.79-5.287-4.79-10.642-9.392l-.013.03c-5.395-4.443-5.395-4.443-11.072-9.168-1.13-7.238-1.13-7.238-2.422-14.527-1.184-6.905-1.184-6.905-2.556-13.84,4.184-2.232,4.184-2.232,8.18-4.312Zm11.274,125.283c6.888-5.333,6.888-5.333,13.373-10.592,6.794,6.119,6.794,6.119,13.225,12.042h.013c6.041,5.692,6.041,5.692,11.718,11.4.269,10.719.269,10.719.35,21.794-.081,10.72-.081,10.72-.35,21.44-5.677,5.692-5.677,5.692-11.718,11.4h-.013c-6.431,5.9-6.431,5.9-13.211,12.028-6.5-5.273-6.5-5.273-13.386-10.6h-.013c-7.265-5.354-7.265-5.354-14.826-10.908.2-11.731.2-11.731.269-23.412-.067-11.948-.067-11.948-.269-23.65,7.561-5.584,7.561-5.584,14.826-10.936ZM216.34,5719.173c-.336-8.755-.336-8.755-.659-17.358,7.05-3.98,7.05-3.98,13.965-7.91,6.915-3.721,6.915-3.721,13.682-7.435,7.184,4.624,7.184,4.624,14.247,9.2h.013c7.036,4.681,7.036,4.681,13.951,9.34.525,8.357.525,8.357,1.036,16.867.417,8.5.417,8.5.834,17.128-6.552,3.98-6.552,3.98-13.225,8.047h-.027c-6.821,4.111-6.821,4.111-13.749,8.394-7.292-4.695-7.292-4.695-14.637-9.3-7.426-4.673-7.426-4.673-14.88-9.247C216.65,5728.051,216.65,5728.051,216.34,5719.173Zm13.319,187.1c-6.929-3.915-6.929-3.915-13.965-7.9.309-8.619.309-8.619.646-17.373.309-8.871.309-8.871.552-17.706,7.467-4.573,7.467-4.573,14.893-9.275,7.346-4.608,7.346-4.608,14.637-9.3,6.915,4.3,6.915,4.3,13.736,8.395l.027.028c6.686,4.06,6.686,4.06,13.171,8.206-.363,8.466-.363,8.466-.767,16.947-.525,8.539-.525,8.539-1.049,16.889-6.915,4.637-6.915,4.637-13.951,9.34l-.013-.028c-7.063,4.573-7.063,4.573-14.247,9.2C236.574,5910.01,236.574,5910.01,229.659,5906.275Zm117.732,48.146c-5.045,4.753-5.045,4.753-10.023,9.125-3.632-1.764-3.632-1.764-7.453-3.7l-.161.216c-4.009-2.095-4.009-2.095-8.193-4.326,1.386-6.906,1.386-6.906,2.57-13.827,1.292-7.3,1.292-7.3,2.422-14.541,5.664-4.71,5.664-4.71,11.059-9.132,5.355-4.608,5.355-4.608,10.655-9.369,3.861,2.876,3.861,2.876,7.588,5.454a67.743,67.743,0,0,1,6.888,4.638c-1.359,6.741-1.359,6.741-2.866,13.5-1.507,6.516-1.507,6.516-3.014,12.786-4.763,4.776-4.763,4.776-9.458,9.175Zm64.483-98.907c-.969,5.649-.969,5.649-2.112,11.623-1.238,3.95-1.238,3.95-2.664,7.867-1.668,4.167-1.668,4.167-3.538,8.3-.794-1.885-.794-1.885-1.762-4.088h0c-1.292-1.937-1.292-1.937-2.745-4.241,1.009-6.458,1.009-6.458,1.978-13.218.834-6.77.834-6.77,1.6-13.524,2.354-3.728,2.354-3.728,4.574-7.815h0c2-3.852,2-3.852,3.74-7.455a49.667,49.667,0,0,1,1.816,5.316,45.608,45.608,0,0,1,.861,4.912C412.775,5849.519,412.775,5849.519,411.874,5855.515ZM407.1,5725.161c1.426,3.944,1.426,3.944,2.664,7.9,1.144,5.975,1.144,5.975,2.112,11.624.9,5.988.9,5.988,1.749,12.309a47.081,47.081,0,0,1-.861,4.928,49.479,49.479,0,0,1-1.816,5.288c-1.736-3.6-1.736-3.6-3.74-7.456h0c-2.22-4.088-2.22-4.088-4.574-7.816-.767-6.754-.767-6.754-1.6-13.523-.969-6.754-.969-6.754-1.978-13.205,1.453-2.3,1.453-2.3,2.745-4.254h0c.969-2.2.969-2.2,1.762-4.067C405.429,5720.993,405.429,5720.993,407.1,5725.161Zm-212.27-179.07c1.318-1.906,1.318-1.906,2.637-3.777,3.377.455,3.377.455,7.036,1.046,3.4.528,3.4.528,6.834,1.091,2.018,2.275,2.018,2.275,4.265,4.711,2.206,2.441,2.206,2.441,4.386,4.9-1.265,1.921-1.265,1.921-2.543,3.872l-.013.029c-1.292,2-1.292,2-2.6,4.052-3.337-.413-3.337-.413-6.888-.9-3.78-.563-3.78-.563-7.292-.99-2.072-2.542-2.072-2.542-4.426-5.157v.036c-2.139-2.521-2.139-2.521-4.319-5A34.611,34.611,0,0,0,194.828,5546.091Zm49.038,66.517h0c2.139-3.916,2.139-3.916,4.2-7.8,5.153.666,5.153.666,10.534,1.633,5,.73,5,.73,10.023,1.561,3.363,4.724,3.363,4.724,6.646,9.406,3.2,4.717,3.2,4.717,6.525,9.585-1.722,4.045-1.722,4.045-3.579,8.063-1.964,4.081-1.964,4.081-3.888,8.372-5.207-.673-5.207-.673-10.547-1.374-5.462-.722-5.462-.722-10.884-1.3-3.269-4.983-3.269-4.983-6.619-10l.013-.022c-3.431-5.006-3.431-5.006-6.781-9.917C241.821,5616.755,241.821,5616.755,243.866,5612.608ZM233.6,5595.9c-2.22,3.778-2.22,3.778-4.332,7.787l-.013.015c-3.054,5.815-3.054,5.815-6.458,11.637-.928,1.791-.928,1.791-1.87,3.554,1.48,2.094,1.48,2.094,2.771,4.06,4.749,6.985,4.749,6.985,9.471,14.072h0c4.7,7.144,4.7,7.144,9.485,14.534,1.386,2.138,1.386,2.138,2.745,4.3a38.439,38.439,0,0,1,4.641.434c7.884.824,7.884.824,15.593,1.619,7.628.909,7.628.909,15,1.77a38.693,38.693,0,0,1,4.265.57c.834-1.792.834-1.792,1.655-3.6,2.57-6.212,2.57-6.212,5.166-12.042,2.395-5.837,2.395-5.837,4.7-11.4a17.488,17.488,0,0,0,1.13-3.353c-1.144-1.806-1.144-1.806-2.475-3.785l-9.054-13.234c-4.52-6.421-4.52-6.421-9.175-12.821-1.493-1.965-1.493-1.965-2.812-3.757-1.857-.3-1.857-.3-3.928-.751-7.063-1.452-7.063-1.452-14.086-2.687-5.18-.911-5.18-.911-10.319-1.719-8.314-10.743-8.314-10.743-16.534-21.037,1.211-2.109,1.211-2.109,2.408-4.189h0c1.883-3.287,1.883-3.287,3.7-6.494.673-1.17.673-1.17,1.359-2.362-1.372-1.575-1.372-1.575-2.771-3.107-3.363-3.865-3.363-3.865-7.09-7.78-3.538-3.75-3.538-3.75-6.929-7.36-1.547-1.453-1.547-1.453-2.839-2.826-2.045-.376-2.045-.376-4.09-.737-5.516-1.026-5.516-1.026-10.763-1.848-5.489-.875-5.489-.875-11.207-1.764-2.018-.253-2.018-.253-4.305-.584a8.715,8.715,0,0,0-1.614,2.217,48.41,48.41,0,0,0-4.52,5.9c-2.408,3.12-2.408,3.12-4.83,6.378-.928,1.257-.928,1.257-1.87,2.593,1.184,1.475,1.184,1.475,2.61,3.042,3.579,4.131,3.579,4.131,7.023,8.293l-.013.036c3.579,4.3,3.579,4.3,7.238,8.719,1.224,1.633,1.224,1.633,2.637,3.387l4.655.492c6.014.693,6.014.693,11.839,1.351,3.713.5,3.713.5,7.238.947C225.287,5584.919,225.287,5584.919,233.6,5595.9ZM43.261,5807.708c-2.179-3.815-2.179-3.815-4.345-7.621,2.166-3.743,2.166-3.743,4.359-7.607h0c2.193-3.851,2.193-3.851,4.372-7.65,4.4-.036,4.4-.036,8.785-.057v.057c4.4.029,4.4.029,8.826-.036,2.193,3.835,2.193,3.835,4.386,7.622,2.206,3.843,2.206,3.843,4.426,7.671-2.22,3.806-2.22,3.806-4.426,7.65v.035c-2.179,3.814-2.179,3.814-4.386,7.6-4.4,0-4.4,0-8.839-.036l-8.772-.037-4.372-7.591Zm103.982,4.052c-3.336-5.8-3.336-5.8-6.686-11.652,3.35-5.9,3.35-5.9,6.686-11.7v-.058l6.606-11.58c6.66,0,6.66,0,13.279.043s6.619.037,13.2.087l6.565,11.58h-.013c3.269,5.814,3.269,5.814,6.5,11.673-3.229,5.744-3.229,5.744-6.5,11.573h.013c-3.283,5.822-3.283,5.822-6.565,11.565-6.579.058-6.579.058-13.184.094-6.633.029-6.633.029-13.279.029-3.31-5.772-3.31-5.772-6.619-11.594Zm-23.328-1.972c3.363,5.88,3.363,5.88,6.7,11.7l.027-.021c4.709,8.234,4.709,8.234,9.391,16.4,1.386,2.42,1.386,2.42,2.785,4.8,2.7,0,2.7,0,5.449-.015,9.391-.065,9.391-.065,18.714-.123,9.3-.159,9.3-.159,18.485-.195,2.65-.043,2.65-.043,5.341-.166,1.332-2.3,1.332-2.3,2.7-4.74,4.655-8.177,4.655-8.177,9.243-16.3h.027c4.547-8.083,4.547-8.083,9.054-16.276,1.3-2.37,1.3-2.37,2.61-4.7-1.3-2.435-1.3-2.435-2.61-4.8-4.52-8.191-4.52-8.191-9.068-16.289h-.013c-4.6-8.113-4.6-8.113-9.243-16.3l-2.7-4.753c-2.7-.094-2.7-.094-5.3-.065-9.229-.123-9.229-.123-18.5-.2-9.35-.123-9.35-.123-18.741-.195-2.745-.021-2.745-.021-5.462-.021-1.4,2.4-1.4,2.4-2.771,4.811-4.668,8.2-4.668,8.2-9.391,16.391h-.013c-3.35,5.829-3.35,5.829-6.713,11.659-16.588.029-16.588.029-33.176.029-2.193-3.807-2.193-3.807-4.4-7.613-3.606-6.228-3.606-6.228-7.2-12.483-1.413-2.384-1.413-2.384-2.785-4.848-2.771.037-2.771.037-5.543.037-7.157.021-7.157.021-14.328.065l.013.021c-7.144.045-7.144.045-14.261.109l-5.476.072c-1.372,2.362-1.372,2.362-2.771,4.774-3.552,6.205-3.552,6.205-7.077,12.375h-.027c-3.552,6.227-3.552,6.227-7.05,12.432-1.359,2.369-1.359,2.369-2.7,4.739,1.345,2.3,1.345,2.3,2.7,4.76l7.036,12.339.013.085c3.565,6.227,3.565,6.227,7.117,12.426,1.359,2.392,1.359,2.392,2.771,4.8,2.718.016,2.718.016,5.476.065,7.1.037,7.1.037,14.22.037,7.184.065,7.184.065,14.341.1,2.771,0,2.771,0,5.543.014,1.4-2.427,1.4-2.427,2.785-4.862,3.592-6.2,3.592-6.2,7.2-12.417h0l4.413-7.651ZM204.5,6056.818c-3.646.578-3.646.578-7.036,1.062-1.318-1.871-1.318-1.871-2.637-3.785a35.872,35.872,0,0,0-2.919-3.915c2.179-2.5,2.179-2.5,4.319-4.985h0c2.354-2.615,2.354-2.615,4.426-5.129,3.511-.426,3.511-.426,7.292-.989,3.552-.514,3.552-.514,6.888-.925,1.318,2.082,1.318,2.082,2.61,4.083,1.278,1.978,1.278,1.978,2.543,3.885-2.18,2.463-2.18,2.463-4.386,4.9l.013.021c-2.247,2.427-2.247,2.427-4.278,4.7C207.9,6056.277,207.9,6056.277,204.5,6056.818Zm54.1-63.071c-5.381.939-5.381.939-10.709,1.77-1.87-4.017-1.87-4.017-4.023-7.946h0c-2.045-4.161-2.045-4.161-4.372-8.206,3.35-4.927,3.35-4.927,6.794-9.956,3.336-5,3.336-5,6.606-9.982,5.435-.6,5.435-.6,10.9-1.292,5.341-.715,5.341-.715,10.548-1.373,1.91,4.262,1.91,4.262,3.888,8.344,1.843,4.044,1.843,4.044,3.579,8.076-3.337,4.875-3.337,4.875-6.538,9.586h.013c-3.283,4.711-3.283,4.711-6.458,9.232C263.6,5993.018,263.6,5993.018,258.6,5993.748Zm-12.888,15.322c5.139-.794,5.139-.794,10.305-1.7,7.036-1.229,7.036-1.229,14.086-2.681,2.072-.462,2.072-.462,3.928-.78,1.305-1.791,1.305-1.791,2.8-3.757,4.655-6.4,4.655-6.4,9.189-12.822v.015c4.4-6.416,4.4-6.416,9.054-13.249,1.171-1.777,1.171-1.777,2.475-3.755a21.7,21.7,0,0,1-1.13-3.353c-2.3-5.591-2.3-5.591-4.682-11.406-2.61-5.822-2.61-5.822-5.18-12.063l-1.655-3.583a42.351,42.351,0,0,1-4.251.557c-7.386.859-7.386.859-15,1.8-7.709.794-7.709.794-15.606,1.588a46.1,46.1,0,0,1-4.641.463c-1.359,2.131-1.359,2.131-2.731,4.3-4.8,7.367-4.8,7.367-9.471,14.533-4.722,7.073-4.722,7.073-9.485,14.094-1.466,2.081-1.466,2.081-2.771,4.03.942,1.77.942,1.77,1.87,3.548,3.39,5.822,3.39,5.822,6.444,11.637l.013.029c2.112,3.979,2.112,3.979,4.332,7.758-8.314,11.009-8.314,11.009-16.575,21.564-3.525.447-3.525.447-7.238.932l-11.826,1.365c-2.341.231-2.341.231-4.668.492-1.413,1.74-1.413,1.74-2.637,3.387-3.659,4.414-3.659,4.414-7.225,8.727h0c-3.444,4.2-3.444,4.2-7.023,8.292-1.426,1.589-1.426,1.589-2.61,3.07l1.884,2.593c2.408,3.258,2.408,3.258,4.816,6.378a51.782,51.782,0,0,0,4.534,5.9,8.473,8.473,0,0,0,1.6,2.2c2.287-.325,2.287-.325,4.305-.592,5.462-.789,5.462-.789,11.207-1.734,5.247-.825,5.247-.825,10.763-1.85,2.045-.39,2.045-.39,4.09-.766,1.292-1.343,1.292-1.343,2.839-2.825,3.377-3.574,3.377-3.574,6.929-7.346h.013c3.713-3.929,3.713-3.929,7.077-7.78,1.4-1.538,1.4-1.538,2.771-3.106l-1.359-2.377c-1.816-3.179-1.816-3.179-3.7-6.472-1.2-2.074-1.2-2.074-2.395-4.2C237.4,6019.847,237.4,6019.847,245.709,6009.069ZM384.7,5939.3h0c-1.991,3.98-1.991,3.98-4.036,7.946a27.813,27.813,0,0,1-2.731,3.235c-1.6,1.677-1.6,1.677-3.31,3.274.363-2.349.363-2.349.78-4.992.283-2.688.283-2.688.619-5.686,2.166-4.175,2.166-4.175,4.453-8.64,2.085-4.21,2.085-4.21,4.13-8.422,1.8-1.272,1.8-1.272,3.511-2.622,1.574-1.373,1.574-1.373,3.041-2.825-.552,2.853-.552,2.853-1.224,5.692h0c-.632,2.485-.632,2.485-1.4,4.978C386.648,5935.265,386.648,5935.265,384.7,5939.3ZM377.93,5649.68a32.685,32.685,0,0,1,2.731,3.251c2.045,3.965,2.045,3.965,4.036,7.959h0c1.951,4.009,1.951,4.009,3.834,8.063.767,2.462.767,2.462,1.4,4.962.673,2.825.673,2.825,1.224,5.692-1.466-1.451-1.466-1.451-3.041-2.839-1.709-1.335-1.709-1.335-3.511-2.592-2.059-4.241-2.059-4.241-4.13-8.438-2.287-4.478-2.287-4.478-4.453-8.625-.336-3-.336-3-.619-5.693h0c-.417-2.665-.417-2.665-.78-4.993C376.329,5648.011,376.329,5648.011,377.93,5649.68Zm14.113,26.107a318.944,318.944,0,0,0-17.812-35.707c.727,1.408.727,1.408,1.44,2.838-1.292-1.812-1.292-1.812-2.691-3.6-2.166-2.4-2.166-2.4-4.52-4.7a12.592,12.592,0,0,0-1.668-1.575c.229.968.229.968.417,1.95.511,3.389.511,3.389.942,7.159h0c.229,3.842.229,3.842.215,7.759a12.394,12.394,0,0,1-.027,2.477c1.036,1.885,1.036,1.885,2.085,3.8,3.336,6.227,3.336,6.227,6.471,12.258,3.162,6.356,3.162,6.356,6.229,12.787.794,1.683.794,1.683,1.709,3.648a6.116,6.116,0,0,1,1.722.967,59.051,59.051,0,0,1,5.247,3.346,37.138,37.138,0,0,1,4.063,3.221c.5.47.5.47,1,.975-.229-1.256-.229-1.256-.471-2.542-.753-3.763-.753-3.763-1.843-7.8-1.184-3.655-1.184-3.655-2.543-7.231Zm24.472,144.063q.605-9.8.619-19.764t-.619-19.772c.135,2.414.148,2.876.242,5.852h0c.027,5.136.027,5.136-.108,10.54-.067,1.6-.067,1.6-.148,3.583.081,1.6.081,1.6.148,3.187.135,5.418.135,5.418.108,10.524h0C416.663,5816.975,416.65,5817.438,416.515,5819.85Zm-8.529,56.368a320.307,320.307,0,0,0,6.377-33.959c.215-1.841.229-1.871.5-4.045.188-1.6.188-1.6.39-3.511.054-.622.054-.622.081-1.28a32.721,32.721,0,0,0-.578-6.753,76.854,76.854,0,0,0-2.139-7.483c-.35-.954-.35-.954-.713-1.936a12.682,12.682,0,0,1-.969,2.138c-2.381,4.854-2.381,4.854-5.1,9.624h0c-2.341,3.792-2.341,3.792-4.884,7.519-5.825-7.318-5.825-7.318-12.888-15.343.269-10.446.269-10.446.377-20.913-.108-10.821-.108-10.821-.377-21.3,7.063-8,7.063-8,12.888-15.328,2.543,3.727,2.543,3.727,4.884,7.513h0c2.717,4.76,2.717,4.76,5.1,9.614a12.708,12.708,0,0,1,.969,2.138c.363-.954.363-.954.713-1.937a74.167,74.167,0,0,0,2.139-7.455,33.179,33.179,0,0,0,.578-6.783c-.027-.643-.027-.643-.081-1.279-.2-1.877-.2-1.877-.39-3.481-.229-1.886-.229-1.907-.5-4.075a319.072,319.072,0,0,0-6.377-33.93c-1.13-4.009-1.13-4.009-2.381-7.974-2-5.4-2-5.4-4.292-10.7-.646-1.466-.646-1.466-1.211-2.593l-.4.788a29.839,29.839,0,0,1-2.422,4.71h0a27.828,27.828,0,0,1-4.049,5.425,3.443,3.443,0,0,1-1.184,1.3c.39,2.145.39,2.145.753,4.255,1.292,8.5,1.292,8.5,2.475,17.286.834,6.971.834,6.971,1.561,13.942-6.121,7.318-6.121,7.318-13.507,15.047-5.476-5.872-5.476-5.872-11.341-11.767H372c-6.215-5.874-6.215-5.874-12.781-11.97-1.614-18.233-1.614-18.233-3.713-36.19,3.807-2.9,3.807-2.9,7.48-5.469h0c4.332-3.481,4.332-3.481,8.382-6.6l1.776-1.343c-.39-2.073-.39-2.073-.821-4.132-1.789-8.626-1.789-8.626-3.686-16.961-2.112-8.358-2.112-8.358-4.345-16.42-.511-1.8-.511-1.8-1.049-3.6l-2.57-2.73c-5.8-6.053-5.8-6.053-11.731-11.9h0c-6.229-5.9-6.229-5.9-12.741-11.84-1.574-1.422-1.574-1.422-2.96-2.585-1.036.418-1.036.418-2.085.823-4.668,2.1-4.668,2.1-9.794,4.233h0c-5.408,2.463-5.408,2.463-11.1,5.172a13.344,13.344,0,0,1-2.852,1.235c.431,2.052.431,2.052.834,4.1,1.789,9.224,1.789,9.224,3.256,18.333,1.439,9.457,1.439,9.457,2.839,19.2.363,2.361.363,2.361.605,4.528,1.749,1.293,1.749,1.293,3.632,2.824,7.615,6.032,7.615,6.032,14.933,11.963h-.013c5.543,4.667,5.543,4.667,10.83,9.052,2.045,18.528,2.045,18.528,3.592,37.151-6.686,4.919-6.686,4.919-13.736,9.976h0c-7.386,5.367-7.386,5.367-15.149,10.756-14.557-10.605-14.557-10.605-29.948-21.584-.457-8.554-.457-8.554-.928-16.911-.686-10.785-.686-10.785-1.48-21.454-.256-2.529-.256-2.529-.417-4.906-1.978-1.344-1.978-1.344-4.063-2.86-8.758-6.011-8.758-6.011-17.664-11.963v-.015c-9.135-6.089-9.135-6.089-18.418-12.091-2.085-1.309-2.085-1.309-4.171-2.594-1.978,1.019-1.978,1.019-3.942,2.065-8.866,4.537-8.866,4.537-17.691,9.45-9.256,4.826-9.256,4.826-18.5,9.955-2.274,1.148-2.274,1.148-4.426,2.4.067,2.528.067,2.528.2,5.12.377,11.248.377,11.248.78,22.712.35,11.559.35,11.559.592,23.182.027,2.629.027,2.629.094,5.324,2.327,1.4,2.327,1.4,4.668,2.868,9.9,6.017,9.9,6.017,19.656,11.977,9.66,6.083,9.66,6.083,19.131,12,2.179,1.424,2.179,1.424,4.319,2.746,2.126-1.258,2.126-1.258,4.224-2.566,8.973-5.685,8.973-5.685,17.772-11.146h0c6.592-4.233,6.592-4.233,13.077-8.3,15.633,10.771,15.633,10.771,30.5,21.331.215,12.1.215,12.1.283,24.193-.081,12.049-.081,12.049-.283,23.933-14.866,10.567-14.866,10.567-30.5,21.324-6.485-4.031-6.485-4.031-13.077-8.271h0c-8.8-5.461-8.8-5.461-17.772-11.153-2.1-1.308-2.1-1.308-4.211-2.551-2.153,1.308-2.153,1.308-4.332,2.723-9.471,5.931-9.471,5.931-19.131,12-9.754,5.974-9.754,5.974-19.642,11.991-2.354,1.452-2.354,1.452-4.668,2.838-.067,2.716-.067,2.716-.108,5.352-.242,11.631-.242,11.631-.592,23.182-.4,11.465-.4,11.465-.78,22.711-.135,2.593-.135,2.593-.2,5.122,2.166,1.258,2.166,1.258,4.44,2.4,9.243,5.122,9.243,5.122,18.485,9.94,8.825,4.927,8.825,4.927,17.691,9.435a33.69,33.69,0,0,1,3.807,2.231c2.22-1.437,2.22-1.437,4.319-2.758,9.269-6.019,9.269-6.019,18.418-12.063l-.013-.029c8.906-5.932,8.906-5.932,17.664-11.978,2.085-1.487,2.085-1.487,4.063-2.86.175-2.362.175-2.362.417-4.89.794-10.685.794-10.685,1.48-21.441.471-8.357.471-8.357.928-16.939,15.337-10.748,15.337-10.748,29.948-21.584,7.763,5.417,7.763,5.417,15.149,10.771h0c7.05,5.041,7.05,5.041,13.736,9.961-1.614,18.9-1.614,18.9-3.592,37.153-5.274,4.384-5.274,4.384-10.8,9.079-7.332,5.9-7.332,5.9-14.947,11.934-1.87,1.546-1.87,1.546-3.632,2.853-.242,2.167-.242,2.167-.605,4.516-1.4,9.759-1.4,9.759-2.839,19.216-1.614,9.324-1.614,9.324-3.242,18.318-.417,2.059-.417,2.059-.834,4.11a11.569,11.569,0,0,1,2.839,1.222c5.7,2.715,5.7,2.715,11.1,5.158h0a84.433,84.433,0,0,0,9.794,4.231c1.049.427,1.049.427,2.085.853,1.386-1.178,1.386-1.178,2.96-2.593,6.525-5.945,6.525-5.945,12.741-11.832h0c5.933-5.859,5.933-5.859,11.731-11.906,1.292-1.373,1.292-1.373,2.57-2.745.538-1.792.538-1.792,1.049-3.6,2.233-8.062,2.233-8.062,4.359-16.405,1.883-8.373,1.883-8.373,3.673-16.984.43-2.073.43-2.073.821-4.146-.875-.629-.875-.629-1.776-1.322-4.05-3.121-4.05-3.121-8.4-6.625-3.673-2.571-3.673-2.571-7.467-5.438,2.032-17.721,2.032-17.721,3.713-36.207,6.579-6.075,6.579-6.075,12.781-11.955h-.013c5.866-5.895,5.866-5.895,11.341-11.8,7.386,7.758,7.386,7.758,13.507,15.076-.726,6.971-.726,6.971-1.561,13.913-1.184,8.805-1.184,8.805-2.556,17.6-.283,1.828-.283,1.828-.673,3.944a3.45,3.45,0,0,1,1.184,1.3c2.193,2.912,2.193,2.912,4.049,5.439h0a30.617,30.617,0,0,1,2.422,4.724l.4.8c.565-1.163.565-1.163,1.211-2.63,2.287-5.272,2.287-5.272,4.292-10.684C406.856,5880.227,406.856,5880.227,407.986,5876.218Zm-33.741,83.868a320.369,320.369,0,0,0,17.8-35.679h0l-.054-.057c1.372-3.577,1.372-3.577,2.556-7.2h0c1.09-4.046,1.09-4.046,1.843-7.824.242-1.278.242-1.278.471-2.549-.5.506-.5.506-1,1a33.849,33.849,0,0,1-4.063,3.192,51.881,51.881,0,0,1-5.247,3.352,6.748,6.748,0,0,1-1.722.975c-.915,1.98-.915,1.98-1.709,3.634-3.067,6.43-3.067,6.43-6.229,12.786-3.121,6.033-3.121,6.033-6.471,12.3-1.049,1.892-1.049,1.892-2.085,3.778a12.465,12.465,0,0,1,.027,2.483c.013,3.917.013,3.917-.215,7.766-.43,3.742-.43,3.742-.942,7.13-.188,1-.188,1-.417,1.979.767-.657.767-.657,1.507-1.32,2.516-2.558,2.516-2.558,4.682-4.964,1.4-1.777,1.4-1.777,2.691-3.619C374.957,5958.676,374.957,5958.676,374.244,5960.085Z" transform="translate(-17.134 -5531.016)" fill="url(#linear-gradient)"/>
</svg>
