<svg xmlns="http://www.w3.org/2000/svg" width="26.252" height="26.256" viewBox="0 0 26.252 26.256">
  <g id="sso-icon" transform="translate(-484.555 -2149.215)">
    <path id="Path_688" data-name="Path 688" d="M484.555,2163.445a.213.213,0,0,1,.206-.155c.448-.038.9-.083,1.344-.124l1.909-.177c.56-.052,1.12-.1,1.68-.152l1.589-.147c.021,0,.043,0,.071,0a6.434,6.434,0,0,0,.327,1.7l-.552.152-2.5.688c-.187.051-.26.009-.295-.179-.029-.156-.056-.312-.085-.477-.1.025-.2.048-.292.073l-2.8.728a.412.412,0,0,1-.127.025c-.092,0-.147-.066-.166-.174-.083-.465-.164-.929-.247-1.393-.02-.107-.044-.213-.066-.32Z"/>
    <path id="Path_689" data-name="Path 689" d="M510.807,2161.255a.214.214,0,0,1-.2.141c-.265.021-.53.047-.795.072l-1.7.161-1.68.154-1.483.141-.94.085a6.475,6.475,0,0,0-.328-1.7l.834-.23,2.25-.619c.151-.042.23.011.257.165.024.138.046.276.07.414,0,.026.012.052.02.086.271-.071.538-.142.8-.211l1.933-.5c.125-.032.25-.063.374-.1.172-.051.257.03.287.188.073.388.135.778.2,1.167.031.174.065.349.1.523Z"/>
    <path id="Path_690" data-name="Path 690" d="M498.834,2149.215c.153.057.174.1.16.266-.05.582-.1,1.164-.144,1.746q-.08.953-.158,1.9-.07.849-.138,1.7c-.033.4-.067.808-.1,1.223a6.662,6.662,0,0,0-1.732.034c-.015-.154-.029-.3-.043-.447q-.081-.843-.16-1.687c-.034-.36-.069-.721-.1-1.081a.173.173,0,0,1,.181-.2c.175,0,.35,0,.536,0-.012-.162-.023-.317-.035-.471l-.126-1.558c-.031-.386-.06-.772-.093-1.157-.013-.163.012-.211.159-.271Z"/>
    <path id="Path_691" data-name="Path 691" d="M503.514,2159.874a6.724,6.724,0,0,0-.9-1.494c.143-.1.283-.2.423-.3l2.152-1.531.054-.038a.168.168,0,0,1,.27.058c.088.148.173.3.265.456l.253-.172,2.4-1.654c.14-.1.233-.075.317.07l.848,1.467c.083.144.059.231-.093.3l-2.54,1.2Z"/>
    <path id="Path_692" data-name="Path 692" d="M491.894,2170.112l-.452.633q-.714,1-1.426,2a.175.175,0,0,1-.3.037l-1.288-1.077c-.156-.131-.159-.215-.017-.358l3.624-3.664q.489-.5.98-.988c.009-.01.02-.018.026-.024.219.2.428.4.653.58s.465.346.7.522l-.569.824-1.248,1.808a.173.173,0,0,1-.29.04C492.161,2170.34,492.03,2170.227,491.894,2170.112Z"/>
    <path id="Path_693" data-name="Path 693" d="M499.105,2168.513a6.072,6.072,0,0,0,1.616-.615c.012.019.023.034.031.05l1.363,2.865a.167.167,0,0,1-.108.248c-.161.06-.323.119-.493.18a.69.69,0,0,0,.025.07q.662,1.446,1.325,2.892a.176.176,0,0,1-.122.262l-.989.359-.609.222a.2.2,0,0,1-.3-.153c-.056-.2-.11-.4-.165-.6q-.779-2.845-1.556-5.692C499.118,2168.574,499.113,2168.547,499.105,2168.513Z"/>
    <path id="Path_694" data-name="Path 694" d="M491.85,2164.821a6.311,6.311,0,0,0,.9,1.493l-.309.222-2.293,1.632a.186.186,0,0,1-.311-.067l-.252-.439-.33.226-2.356,1.627a.163.163,0,0,1-.244-.04c-.052-.074-.1-.155-.14-.233-.242-.42-.485-.841-.724-1.262-.1-.178-.074-.253.113-.342l2.578-1.219q1.441-.682,2.882-1.368Z"/>
    <path id="Path_695" data-name="Path 695" d="M496.253,2156.168a6.442,6.442,0,0,0-1.616.616c-.016-.03-.031-.055-.043-.081q-.658-1.384-1.316-2.77c-.009-.017-.017-.034-.025-.052a.178.178,0,0,1,.115-.267c.158-.059.317-.116.484-.177-.084-.185-.166-.364-.248-.543l-1.083-2.369c-.083-.181-.05-.258.137-.326l1.529-.556.047-.016a.184.184,0,0,1,.268.143l1.737,6.333C496.244,2156.121,496.247,2156.14,496.253,2156.168Z"/>
    <path id="Path_696" data-name="Path 696" d="M503.482,2154.572l.985-1.383.873-1.227c.113-.159.19-.17.342-.042l1.282,1.071c.126.1.131.2.017.31l-3.243,3.278q-.675.681-1.349,1.364c-.023.023-.044.049-.061.069-.221-.2-.427-.4-.649-.583s-.463-.342-.7-.518l.16-.234q.822-1.191,1.645-2.383c.1-.144.191-.154.326-.039S503.352,2154.463,503.482,2154.572Z"/>
    <path id="Path_697" data-name="Path 697" d="M507.3,2163.477l.51.05q.762.073,1.523.144l1.18.11c.165.015.223.088.2.252-.056.325-.115.648-.172.972q-.064.365-.126.729a.166.166,0,0,1-.222.143q-1.2-.315-2.409-.631-1.952-.512-3.9-1.019l-.127-.032c.062-.288.134-.569.18-.853s.066-.571.1-.867a.5.5,0,0,1,.052,0l1.919.157,1.132.089.1.012a.18.18,0,0,1,.165.233C507.36,2163.134,507.331,2163.3,507.3,2163.477Z"/>
    <path id="Path_698" data-name="Path 698" d="M491.609,2160.482c-.062.287-.135.566-.181.849s-.064.571-.1.868l-.54-.042c-.383-.031-.766-.064-1.148-.094l-1.485-.119c-.165-.014-.22-.089-.191-.254.023-.135.049-.269.073-.4.005-.027.007-.054.011-.09l-.393-.039-2.048-.194c-.259-.025-.519-.048-.778-.07a.185.185,0,0,1-.189-.237c.1-.556.195-1.113.294-1.668.031-.171.115-.219.291-.173l4.032,1.05,2.289.6C491.574,2160.469,491.6,2160.478,491.609,2160.482Z"/>
    <path id="Path_699" data-name="Path 699" d="M494.221,2157.02c-.232.18-.466.349-.683.537s-.414.391-.627.6l-.225-.219-1.988-1.959c-.2-.191-.194-.248.016-.425.1-.089.212-.174.342-.281-.062-.052-.123-.095-.175-.147q-1.053-1.065-2.105-2.134c-.116-.118-.114-.212.012-.318q.652-.547,1.307-1.093c.119-.1.215-.082.31.052l.965,1.363q1.375,1.941,2.749,3.882Z"/>
    <path id="Path_700" data-name="Path 700" d="M501.127,2167.653a6.56,6.56,0,0,0,1.307-1.136l.361.354,1.924,1.9a.179.179,0,0,1-.014.311l-.386.318c.014.015.025.029.037.042l2.231,2.263a.178.178,0,0,1-.007.3q-.528.445-1.06.888a2.8,2.8,0,0,0-.245.207c-.113.117-.239.086-.33-.043l-.584-.826q-1.566-2.209-3.13-4.42Z"/>
    <path id="Path_701" data-name="Path 701" d="M502.738,2166.154a6.2,6.2,0,0,0,.841-1.509l.225.1,2.682,1.231c.15.069.179.158.1.3l-.252.427.369.178,2.564,1.211a.178.178,0,0,1,.09.277q-.436.759-.877,1.516a.179.179,0,0,1-.283.045c-.15-.1-.3-.2-.447-.308q-1.361-.939-2.721-1.879l-2.267-1.568A.153.153,0,0,1,502.738,2166.154Z"/>
    <path id="Path_702" data-name="Path 702" d="M500.552,2156.687a6.461,6.461,0,0,0-1.636-.566l.188-.722q.311-1.183.62-2.369a.186.186,0,0,1,.277-.148c.157.056.313.114.476.174l.25-.907.612-2.218a.175.175,0,0,1,.261-.137l1.612.589c.15.055.185.137.118.282q-.7,1.522-1.4,3.045-.662,1.437-1.325,2.873Z"/>
    <path id="Path_703" data-name="Path 703" d="M498.234,2172.023l.046.61q.063.775.125,1.55c.029.363.057.727.087,1.091a.162.162,0,0,1-.175.2q-.88,0-1.761,0c-.125,0-.2-.089-.187-.227.044-.55.091-1.1.137-1.648.041-.495.08-.99.121-1.485q.07-.864.143-1.73.068-.832.136-1.664c0-.025.005-.049.008-.082a6.3,6.3,0,0,0,1.734-.023l.07.737.159,1.679c.025.262.05.524.073.787a.176.176,0,0,1-.193.209C498.588,2172.025,498.418,2172.023,498.234,2172.023Z"/>
    <path id="Path_704" data-name="Path 704" d="M489.034,2157.982l-1.129-.533-1.8-.855c-.131-.062-.157-.162-.078-.3.2-.345.4-.688.6-1.032.085-.147.169-.295.255-.442a.174.174,0,0,1,.291-.064l3.824,2.643,1.551,1.071.085.059a6.248,6.248,0,0,0-.84,1.513c-.035-.015-.064-.026-.093-.04l-2.824-1.294a.178.178,0,0,1-.091-.291C488.86,2158.273,488.946,2158.131,489.034,2157.982Z"/>
    <path id="Path_705" data-name="Path 705" d="M494.814,2167.983a5.973,5.973,0,0,0,1.633.566.509.509,0,0,1-.012.067q-.391,1.5-.785,3.005c-.05.192-.122.229-.309.159l-.448-.165c-.035.124-.068.241-.1.359l-.768,2.788a.169.169,0,0,1-.244.118c-.284-.1-.566-.207-.849-.31l-.8-.29a.157.157,0,0,1-.106-.2,2.019,2.019,0,0,1,.1-.25l2.61-5.683C494.758,2168.1,494.784,2168.045,494.814,2167.983Z"/>
  </g>
</svg>
