<svg xmlns="http://www.w3.org/2000/svg" width="20.018" height="20" viewBox="0 0 20.018 20">
  <g id="subnav-icon-3" transform="translate(-85.293 -426)">
    <path id="Path_779" data-name="Path 779" d="M88.587,428.5c.125-.827.126-.851.949-.819.5.02.811-.037,1.048-.593a1.835,1.835,0,0,1,1.949-1.078,1.938,1.938,0,0,1,1.775,1.315c.109.287.244.385.535.353a6.152,6.152,0,0,1,.719,0c.451,0,.554.1.566.548,0,.081.008.162.014.279.378,0,.739,0,1.1,0a2.1,2.1,0,0,1,2.234,2.23c.006,1.553,0,3.106,0,4.66,0,.4-.143.61-.419.614s-.43-.207-.43-.6q0-2.3,0-4.6a1.288,1.288,0,0,0-1.471-1.475c-.331,0-.661,0-1.032,0,0,.18.006.323,0,.465a1.21,1.21,0,0,1-1.194,1.2q-2.548.024-5.1,0a1.243,1.243,0,0,1-1.209-1.266c-.007-.122,0-.245,0-.424-.544.026-1.055.011-1.554.084a1.215,1.215,0,0,0-.946,1.269c-.008.375,0,.75,0,1.126q0,4.69,0,9.382a1.319,1.319,0,0,0,1.5,1.519q2.658,0,5.316,0c.115,0,.255-.033.338.02a.767.767,0,0,1,.326.352.339.339,0,0,1-.266.429,1.064,1.064,0,0,1-.31.026q-2.751,0-5.5,0a2.091,2.091,0,0,1-2.233-2.225q0-5.286,0-10.571A2.089,2.089,0,0,1,87.5,428.5C87.866,428.5,88.229,428.5,88.587,428.5Zm6.712,0c-.4,0-.752,0-1.105,0-.409,0-.522-.112-.579-.528a1.533,1.533,0,0,0-.109-.418,1.237,1.237,0,0,0-2.343.309c-.12.628-.132.638-.764.638h-.927c0,.384,0,.735,0,1.086,0,.46.129.586.6.587.739,0,1.478,0,2.216,0,.822,0,1.644,0,2.466,0,.353,0,.531-.135.542-.425C95.31,429.342,95.3,428.937,95.3,428.5Z"/>
    <path id="Path_780" data-name="Path 780" d="M102.855,435.505a1.24,1.24,0,0,1,.926.379q.543.54,1.082,1.083a1.259,1.259,0,0,1,0,1.926q-2.116,2.125-4.24,4.243c-.619.619-1.248,1.227-1.85,1.861a1.657,1.657,0,0,1-.96.517c-.808.141-1.612.312-2.417.469-.424.082-.656-.131-.576-.55q.266-1.41.56-2.813a.805.805,0,0,1,.225-.363q3.163-3.177,6.336-6.345A1.235,1.235,0,0,1,102.855,435.505Zm-7.113,9.559c.774-.158,1.483-.3,2.19-.452.054-.011.1-.07.145-.113q3.1-3.1,6.206-6.206a.442.442,0,0,0,0-.729q-.5-.513-1.015-1.016c-.287-.284-.488-.286-.771,0q-3.081,3.081-6.16,6.165a.561.561,0,0,0-.156.256C96.031,443.635,95.9,444.307,95.742,445.064Z"/>
    <path id="Path_781" data-name="Path 781" d="M92.352,433.5q-1.966,0-3.935,0c-.1,0-.242.029-.3-.025a.849.849,0,0,1-.3-.415c-.034-.2.117-.347.335-.376a2.371,2.371,0,0,1,.28-.011h7.9c.084,0,.167,0,.25.007a.381.381,0,0,1,.382.411.392.392,0,0,1-.363.4,1.877,1.877,0,0,1-.281.007Z"/>
    <path id="Path_782" data-name="Path 782" d="M92.394,436H88.428a1.3,1.3,0,0,1-.28-.011.392.392,0,0,1-.346-.417.375.375,0,0,1,.367-.391,2.627,2.627,0,0,1,.281-.008h7.964c.361.006.552.146.555.408s-.2.417-.546.42c-.281,0-.562,0-.843,0Z"/>
    <path id="Path_783" data-name="Path 783" d="M92.382,437.678h3.9c.1,0,.209,0,.312.008a.375.375,0,0,1,.364.4.388.388,0,0,1-.349.413,1.537,1.537,0,0,1-.28.01h-7.9a1.6,1.6,0,0,1-.25-.005.4.4,0,0,1-.378-.42.375.375,0,0,1,.394-.4c.218-.01.437-.006.656-.006Z"/>
  </g>
</svg>
