<svg xmlns="http://www.w3.org/2000/svg" width="20.015" height="20" viewBox="0 0 20.015 20">
  <g id="subnav-icon-1" transform="translate(3345.365 -1605.207)">
    <path id="Path_1069" data-name="Path 1069" d="M-3098.834,1761.585c-.8,0-1.6,0-2.4,0a1.857,1.857,0,0,1-.389-.038.673.673,0,0,1-.584-.685.718.718,0,0,1,.553-.721,1.19,1.19,0,0,1,.31-.044q2.519-.008,5.038-.007a.765.765,0,0,1,.84.879.715.715,0,0,1-.77.612c-.866.007-1.732,0-2.6,0Z" transform="translate(-233.579 -148.781)"/>
    <path id="Path_1070" data-name="Path 1070" d="M-3098.795,1938.678c.866,0,1.731,0,2.6,0a.71.71,0,0,1,.748.637.71.71,0,0,1-.717.822c-.576.029-1.154.028-1.731.028-1.128,0-2.256-.008-3.384-.014-.065,0-.131-.005-.2-.011a.724.724,0,0,1-.72-.752.714.714,0,0,1,.747-.7c.662-.019,1.324-.013,1.987-.017.223,0,.446,0,.669,0Z" transform="translate(-233.59 -320.328)"/>
    <path id="Path_1071" data-name="Path 1071" d="M-3250.526,1724.373c.038-.036.088-.082.138-.131.486-.488.971-.978,1.458-1.464a.819.819,0,0,1,.826-.292.713.713,0,0,1,.369,1.182c-.76.79-1.54,1.56-2.322,2.327a.671.671,0,0,1-.962.022,9.914,9.914,0,0,1-.86-.863.672.672,0,0,1-.02-.9.7.7,0,0,1,.9-.2A4.5,4.5,0,0,1-3250.526,1724.373Z" transform="translate(-89.627 -112.634)"/>
    <path id="Path_1072" data-name="Path 1072" d="M-3250.462,1902.58c.563-.542,1.109-1.07,1.661-1.593a1.227,1.227,0,0,1,.346-.249.709.709,0,0,1,.871.25.7.7,0,0,1-.057.921c-.377.4-.769.788-1.158,1.178-.356.357-.717.711-1.076,1.065a.717.717,0,0,1-1.1.034,7.273,7.273,0,0,1-.818-.846.7.7,0,0,1,.382-1.123.78.78,0,0,1,.652.136A3.267,3.267,0,0,1-3250.462,1902.58Z" transform="translate(-89.734 -283.836)"/>
    <path id="Path_1073" data-name="Path 1073" d="M-3339.8,1606.467h.028c.546,0,1.135,0,1.856,0h1.361v.019h1.258c.519,0,1.045,0,1.553-.007s1.026-.006,1.537-.006c.732,0,1.335.007,1.9.021a3.625,3.625,0,0,1,2.111.721,3.876,3.876,0,0,1,1.312,1.868,5.129,5.129,0,0,1,.276,1.679c0,1.962,0,3.956,0,5.885q0,1.478,0,2.957a5.046,5.046,0,0,1-.246,1.744,3.784,3.784,0,0,1-1.052,1.618,3.907,3.907,0,0,1-1.743.841,5.41,5.41,0,0,1-1.17.128c-1.467.006-2.787.009-4.035.009-1.758,0-3.363-.006-4.908-.017a7.077,7.077,0,0,1-1.553-.174,3.378,3.378,0,0,1-2.244-1.791,4.2,4.2,0,0,1-.533-2.1c0-1.084,0-2.185,0-3.25-.005-2.094-.01-4.258.021-6.381a3.647,3.647,0,0,1,2.509-3.463,5.1,5.1,0,0,1,1.771-.3h0m0-1.26a6.375,6.375,0,0,0-2.2.38,4.907,4.907,0,0,0-3.339,4.629c-.047,3.215-.011,6.431-.017,9.647a5.481,5.481,0,0,0,.691,2.713,4.629,4.629,0,0,0,3.059,2.407,8.366,8.366,0,0,0,1.831.207q2.459.019,4.918.017,2.02,0,4.04-.009a6.718,6.718,0,0,0,1.443-.159,4.847,4.847,0,0,0,3.7-3.263,6.359,6.359,0,0,0,.32-2.169q0-4.42,0-8.84a6.408,6.408,0,0,0-.343-2.085,4.905,4.905,0,0,0-4.584-3.444c-.643-.017-1.287-.022-1.93-.022-1.03,0-2.06.013-3.09.013v-.02l-2.619,0q-.925,0-1.85,0Z"/>
  </g>
</svg>
