<svg xmlns="http://www.w3.org/2000/svg" width="20.015" height="27.227" viewBox="0 0 20.015 27.227">
  <g id="subnav-icon-active-2" transform="translate(2398.975 -340.977)">
    <path id="Path_1062" data-name="Path 1062" d="M-2305.183,508.553c-.009,2.712,0,5.422-.008,8.134a.912.912,0,0,1-.99.992c-.4.011-.8.013-1.193,0h-1.272c0-.012,0-.024,0-.036a1.594,1.594,0,0,0-1.594-1.593,1.593,1.593,0,0,0-1.594,1.593c0,.012,0,.025,0,.037h-.779c-.56.011-1.121-.014-1.679.009-.294.012-.375-.085-.369-.373.017-.943,0-1.886.008-2.829,0-.274-.008-.52-.305-.669-.281-.141-.472-.011-.682.139a1.4,1.4,0,0,1-1.327.254,1.453,1.453,0,0,1-1.052-1.238,1.377,1.377,0,0,1,.7-1.421,1.375,1.375,0,0,1,1.614.058.731.731,0,0,0,.775.157c.314-.148.279-.449.277-.731,0-.81.011-1.621-.007-2.431-.005-.282.066-.382.365-.374.824.02,1.65.01,2.475.006.736,0,.959-.375.61-1.007a1.476,1.476,0,0,1,.332-1.911,1.472,1.472,0,0,1,1.873,0,1.461,1.461,0,0,1,.311,1.914c-.337.608-.115,1,.583,1,.869.006,1.739.011,2.608,0C-2305.251,508.226-2305.183,508.305-2305.183,508.553Z" transform="translate(-73.777 -149.486)"/>
    <path id="Path_1063" data-name="Path 1063" d="M-2389.5,542.037c.014-.29-.076-.372-.368-.371q-4.378.016-8.757,0c-.26,0-.354.053-.353.337.011,2.7,0,5.4.009,8.094a.92.92,0,0,0,1.011,1.017c.56.011,1.12,0,1.681,0q3.184,0,6.369,0c.194,0,.419.07.409-.281-.021-.691-.006-1.384-.006-2.12a3.256,3.256,0,0,1-1.528,0,2.6,2.6,0,0,1-1.814-3.111,2.588,2.588,0,0,1,3.013-1.892c.242.046.347.017.335-.264C-2389.518,542.981-2389.52,542.507-2389.5,542.037Z" transform="translate(0 -182.923)"/>
    <path id="Path_1064" data-name="Path 1064" d="M-2360.945,347.888q-3.138-3.141-6.284-6.274a2,2,0,0,0-2.921-.008q-3.17,3.14-6.313,6.307c-.365.366-.359.6.011.977.527.536,1.049,1.079,1.6,1.589.26.241.225.327-.056.521a2.569,2.569,0,0,0-.934,2.94,2.6,2.6,0,0,0,2.468,1.735,2.643,2.643,0,0,0,2.318-1.41c.636.643,1.234,1.254,1.84,1.857.4.4.649.4,1.047,0q1.131-1.12,2.252-2.251c.536-.539.424-.936-.32-1.147a1.474,1.474,0,0,1-.974-1.962,1.441,1.441,0,0,1,1.453-.935,1.466,1.466,0,0,1,1.353,1.135c.215.681.608.783,1.115.28q1.177-1.167,2.345-2.345C-2360.564,348.514-2360.561,348.272-2360.945,347.888Z" transform="translate(-20.272)"/>
  </g>
</svg>
