<svg xmlns="http://www.w3.org/2000/svg" width="15.717" height="20" viewBox="0 0 15.717 20">
  <g id="subnav-icon-2" transform="translate(-87.435 -346)">
    <path id="Path_776" data-name="Path 776" d="M102.349,358.539c-.687,0-1.34,0-1.993,0-.579,0-.718-.238-.447-.758a1.041,1.041,0,1,0-1.836,0c.276.541.141.761-.471.761-.632,0-1.264,0-1.93,0V360.5c0,.2.035.411-.184.524s-.391.009-.574-.114a1.034,1.034,0,1,0,.006,1.707c.044-.028.082-.064.126-.092a.376.376,0,0,1,.623.331c.008.768,0,1.536,0,2.353.4,0,.766,0,1.136,0a1.267,1.267,0,0,1,.492.026.534.534,0,0,1,.3.359c0,.127-.164.273-.286.377-.055.048-.18.02-.273.02q-4,0-7.99,0a1.48,1.48,0,0,1-1.613-1.608q0-3.014,0-6.025c0-.5.119-.615.631-.615h9.142a1.874,1.874,0,0,1,.512-1.755,1.808,1.808,0,0,1,1.261-.535c1.11-.031,1.759.78,1.824,2.29h1.735c.487,0,.61.122.61.6q0,3.029,0,6.057a1.473,1.473,0,0,1-1.571,1.587c-.281,0-.562,0-.843,0-.256,0-.431-.125-.434-.386s.168-.39.426-.393c.322-.005.645.006.967-.008a.619.619,0,0,0,.65-.62C102.353,362.587,102.349,360.591,102.349,358.539Zm-7.452,4.99c-1.379.154-2.288-.476-2.382-1.651a1.7,1.7,0,0,1,.453-1.318,1.844,1.844,0,0,1,1.92-.556V358.56H88.234v5.785c0,.647.213.863.853.864h5.491c.1,0,.2-.01.319-.016Z"/>
    <path id="Path_777" data-name="Path 777" d="M91.131,352.878c-.423-.417-.846-.83-1.265-1.248-.328-.326-.326-.472.005-.8q2.149-2.151,4.3-4.3a1.457,1.457,0,0,1,2.246,0q2.152,2.148,4.3,4.3c.325.324.323.476,0,.8q-.793.795-1.589,1.588c-.377.375-.653.31-.811-.184a1.038,1.038,0,0,0-1.148-.79A1.044,1.044,0,0,0,97.1,354.3c.414.113.505.431.2.741q-.821.834-1.654,1.655c-.265.262-.449.259-.718-.009-.427-.426-.847-.858-1.3-1.314a1.9,1.9,0,0,1-1.776.99,1.755,1.755,0,0,1-1.231-.594C89.845,354.919,90.024,353.843,91.131,352.878Zm-.552-1.657c.078.085.132.148.19.206.455.457.919.9,1.36,1.375a.493.493,0,0,1,.124.4c-.047.125-.221.211-.354.291a1.386,1.386,0,0,1-.27.064,1.042,1.042,0,0,0,.5,2.013c.5-.084.753-.364.9-.94a.545.545,0,0,1,.273-.357c.123-.037.3.061.438.136a1.332,1.332,0,0,1,.267.259l1.213,1.241,1.092-1.082a1.84,1.84,0,0,1-.4-2.734,1.742,1.742,0,0,1,1.305-.637,1.827,1.827,0,0,1,1.621.825l1.125-1.092c-1.392-1.395-2.792-2.8-4.2-4.2a.647.647,0,0,0-.95,0c-.1.09-.193.19-.288.285Z"/>
    <path id="Path_778" data-name="Path 778" d="M99.363,365.584a.381.381,0,0,1-.359.4.391.391,0,0,1-.411-.375.37.37,0,0,1,.389-.388A.364.364,0,0,1,99.363,365.584Z"/>
  </g>
</svg>
