<svg xmlns="http://www.w3.org/2000/svg" width="20.015" height="20" viewBox="0 0 20.015 20">
  <path id="subnav-icon-active-1" d="M-1730.3,1351.229c1.673,0,3.348-.035,5.02.009a4.905,4.905,0,0,1,4.585,3.444,6.409,6.409,0,0,1,.343,2.085q-.005,4.42,0,8.84a6.353,6.353,0,0,1-.32,2.169,4.848,4.848,0,0,1-3.7,3.263,6.72,6.72,0,0,1-1.443.159q-4.479.018-8.958-.009a8.36,8.36,0,0,1-1.831-.207,4.629,4.629,0,0,1-3.059-2.407,5.48,5.48,0,0,1-.691-2.713c.006-3.216-.03-6.432.017-9.647a4.906,4.906,0,0,1,3.339-4.629,6.387,6.387,0,0,1,2.236-.38c1.49.007,2.979,0,4.469,0Zm2.883,7.574v0c.866,0,1.732.005,2.6,0a.715.715,0,0,0,.77-.612.765.765,0,0,0-.84-.879q-2.519,0-5.038.008a1.189,1.189,0,0,0-.31.044.718.718,0,0,0-.553.721.673.673,0,0,0,.584.685,1.857,1.857,0,0,0,.389.038C-1729.014,1358.8-1728.214,1358.8-1727.414,1358.8Zm.028,5.547v-.01c-.223,0-.446,0-.669,0-.662,0-1.325,0-1.987.017a.714.714,0,0,0-.747.7.724.724,0,0,0,.72.752c.065.006.131.011.2.011,1.128.006,2.256.014,3.384.014.577,0,1.155,0,1.731-.028a.71.71,0,0,0,.717-.822.71.71,0,0,0-.748-.637C-1725.654,1364.346-1726.52,1364.35-1727.385,1364.35Zm-7.768-6.611a4.548,4.548,0,0,0-.474-.322.7.7,0,0,0-.9.2.673.673,0,0,0,.02.9,9.914,9.914,0,0,0,.86.863.672.672,0,0,0,.962-.022c.782-.767,1.562-1.537,2.322-2.327a.713.713,0,0,0-.369-1.182.82.82,0,0,0-.827.292c-.488.487-.972.976-1.459,1.464C-1735.065,1357.656-1735.116,1357.7-1735.153,1357.739Zm-.043,7.005a3.313,3.313,0,0,0-.293-.227.78.78,0,0,0-.652-.136.7.7,0,0,0-.383,1.123,7.282,7.282,0,0,0,.818.846.717.717,0,0,0,1.1-.034c.36-.354.72-.708,1.076-1.065.389-.39.781-.777,1.158-1.178a.7.7,0,0,0,.057-.92.709.709,0,0,0-.87-.251,1.222,1.222,0,0,0-.346.249C-1734.087,1363.674-1734.633,1364.2-1735.2,1364.744Z" transform="translate(1740.365 -1351.207)"/>
</svg>
