<svg xmlns="http://www.w3.org/2000/svg" width="20.018" height="20" viewBox="0 0 20.018 20">
  <g id="subnav-icon-active-3" transform="translate(2737.013 -909.036)">
    <path id="Path_1065" data-name="Path 1065" d="M-2734.536,949.018a14.6,14.6,0,0,0,.085,1.468,2.171,2.171,0,0,0,2.048,1.827c1.646.031,3.293.036,4.939,0a2.247,2.247,0,0,0,2.13-2.3c.008-.322,0-.643,0-.96a2.172,2.172,0,0,1,2.326,1.41,2.92,2.92,0,0,1,.17.945c.016,1.73.012,3.461,0,5.191a.683.683,0,0,1-.175.432q-1.311,1.341-2.652,2.652a.631.631,0,0,1-.4.153c-2.553.009-5.106,0-7.66.015a.883.883,0,0,0-.587.208.831.831,0,0,0-.152.588.5.5,0,0,0,.473.43,2.68,2.68,0,0,0,.374.014h6.437l.084.058a3.421,3.421,0,0,0-1.429,2.853c-.146.007-.246.016-.346.016q-2.86,0-5.721,0a2.294,2.294,0,0,1-2.417-2.409q0-5.129,0-10.257a2.289,2.289,0,0,1,2.354-2.345C-2734.618,949-2734.579,949.012-2734.536,949.018Zm4.632,5.414c-1.312,0-2.624,0-3.936,0a.613.613,0,0,0-.668.594.64.64,0,0,0,.626.648c.093.009.187,0,.281,0h7.5c.261,0,.533-.039.642-.294a.962.962,0,0,0,.037-.614c-.08-.263-.333-.344-.606-.343C-2727.322,954.434-2728.613,954.432-2729.9,954.432Zm0,2.7q-1.937,0-3.874,0a.648.648,0,0,0-.7.453.627.627,0,0,0,.665.794c1.146.005,2.291,0,3.437,0,1.437,0,2.874,0,4.312,0a.657.657,0,0,0,.666-.369.622.622,0,0,0-.631-.88C-2727.324,957.13-2728.616,957.134-2729.907,957.134Z" transform="translate(0 -37.468)"/>
    <path id="Path_1066" data-name="Path 1066" d="M-2571.844,1064.81a1.1,1.1,0,0,1,.821.358c.344.333.684.671,1.015,1.017a1.441,1.441,0,0,1-.007,2.1q-3.05,3.068-6.124,6.112a1.485,1.485,0,0,1-.727.3c-.682.139-1.371.24-2.057.359-.568.1-.9-.233-.8-.811.134-.789.266-1.578.423-2.363a.943.943,0,0,1,.256-.448q3.04-3.057,6.094-6.1A1.5,1.5,0,0,1-2571.844,1064.81Z" transform="translate(-147.436 -146.034)"/>
    <path id="Path_1067" data-name="Path 1067" d="M-2680.1,914.037c-.729,0-1.459,0-2.188,0a1.476,1.476,0,0,1-1.554-1.519c-.01-.365-.008-.73,0-1.094.01-.475.246-.739.714-.706a.987.987,0,0,0,1.13-.6,2.029,2.029,0,0,1,2.1-1.071,2.19,2.19,0,0,1,1.932,1.418c.079.185.163.263.362.247a5.484,5.484,0,0,1,.594,0,.6.6,0,0,1,.669.652c.01.406.011.813,0,1.219a1.439,1.439,0,0,1-1.507,1.456C-2678.6,914.041-2679.353,914.037-2680.1,914.037Z" transform="translate(-49.838)"/>
  </g>
</svg>
